<svg width="1570" height="1264" viewBox="0 0 1570 1264" fill="none" xmlns="http://www.w3.org/2000/svg">
<rect width="1570" height="1264" rx="80" fill="#25442C"/>
<path d="M600.024 659.768C596.056 659.768 592.771 658.168 590.168 654.968C587.565 651.725 586.264 647.501 586.264 642.296C586.264 637.091 587.16 632.355 588.952 628.088C590.744 623.779 593.304 620.28 596.632 617.592C599.96 614.904 603.501 613.56 607.256 613.56C611.053 613.56 614.104 614.413 616.408 616.12C618.755 617.827 619.928 619.875 619.928 622.264C619.928 624.611 619.224 626.616 617.816 628.28C616.451 628.28 614.915 627.981 613.208 627.384C611.501 626.787 610.221 626.061 609.368 625.208L610.584 618.744C609.56 618.104 608.216 617.784 606.552 617.784C603.949 617.784 601.645 620.024 599.64 624.504C597.635 628.941 596.632 634.424 596.632 640.952C596.632 645.261 597.336 648.397 598.744 650.36C600.195 652.28 601.944 653.24 603.992 653.24C607.363 653.24 610.605 651.661 613.72 648.504L616.344 650.872C615.875 651.555 615.021 652.493 613.784 653.688C612.547 654.883 611.331 655.885 610.136 656.696C608.941 657.464 607.427 658.168 605.592 658.808C603.757 659.448 601.901 659.768 600.024 659.768ZM654.68 619.192C655.832 620.899 656.685 622.712 657.24 624.632C657.794 626.509 658.072 628.6 658.072 630.904C658.072 633.208 657.816 635.661 657.304 638.264C656.792 640.867 655.938 643.469 654.744 646.072C653.549 648.675 652.098 650.979 650.392 652.984C648.685 654.989 646.53 656.632 643.928 657.912C641.325 659.149 638.466 659.768 635.352 659.768C630.786 659.768 627.245 658.147 624.728 654.904C622.21 651.619 620.952 647.416 620.952 642.296C620.952 637.133 621.848 632.419 623.64 628.152C625.474 623.843 628.077 620.344 631.448 617.656C634.861 614.925 638.637 613.56 642.776 613.56C645.506 613.56 647.896 614.072 649.944 615.096C651.992 616.12 653.57 617.485 654.68 619.192ZM637.272 655.416C639.277 655.416 640.962 654.541 642.328 652.792C643.736 651.043 644.802 648.76 645.528 645.944C646.978 640.397 647.704 634.701 647.704 628.856C647.704 621.56 645.741 617.912 641.816 617.912C639.597 617.912 637.656 619.235 635.992 621.88C632.877 626.872 631.32 633.784 631.32 642.616C631.32 647.437 631.597 650.424 632.152 651.576C632.408 652.216 632.749 652.877 633.176 653.56C633.944 654.797 635.309 655.416 637.272 655.416ZM708.935 659.768C707.356 659.768 706.076 659.213 705.095 658.104C704.114 656.952 703.623 655.416 703.623 653.496C703.623 651.533 704.498 646.691 706.247 638.968C708.039 631.245 708.935 626.317 708.935 624.184C708.935 622.051 708.103 620.984 706.439 620.984C704.135 620.984 701.596 622.008 698.823 624.056C698.524 626.36 697.65 630.392 696.199 636.152C694.748 641.869 693.767 646.115 693.255 648.888C692.786 651.619 692.551 653.731 692.551 655.224C692.551 656.717 692.572 657.635 692.615 657.976C690.951 658.829 687.986 659.256 683.719 659.256H682.503C682.503 655.672 683.506 649.571 685.511 640.952C687.559 632.163 688.583 626.637 688.583 624.376C688.583 622.115 687.794 620.984 686.215 620.984C683.911 620.984 681.223 622.093 678.151 624.312C677.682 626.659 676.807 630.477 675.527 635.768C672.668 647.885 671.239 655.288 671.239 657.976C669.575 658.829 666.631 659.256 662.407 659.256H661.191C661.362 657.336 662.492 651.704 664.583 642.36C666.674 632.973 667.975 625.955 668.487 621.304C668.487 620.621 668.252 619.811 667.783 618.872C667.356 617.891 666.908 617.101 666.439 616.504L665.799 615.608L665.991 614.648C668.38 613.923 672.498 613.56 678.343 613.56C678.898 614.584 679.175 615.885 679.175 617.464C679.175 617.805 679.09 618.701 678.919 620.152C683.826 615.757 688.22 613.56 692.103 613.56C693.852 613.56 695.324 614.157 696.519 615.352C697.714 616.547 698.482 618.104 698.823 620.024C703.9 615.715 708.21 613.56 711.751 613.56C713.97 613.56 715.762 614.285 717.127 615.736C718.492 617.187 719.175 619.213 719.175 621.816C719.175 624.419 718.258 629.389 716.423 636.728C714.631 644.024 713.735 649.123 713.735 652.024C713.735 653.261 713.948 653.88 714.375 653.88C714.759 653.88 715.804 653.453 717.511 652.6L718.407 652.216L719.687 654.584C717.852 656.163 715.996 657.421 714.119 658.36C712.284 659.299 710.556 659.768 708.935 659.768ZM672.967 634.04C672.924 634.125 672.903 634.232 672.903 634.36L672.967 634.04ZM733.814 652.472C733.814 653.411 734.048 653.88 734.518 653.88C734.774 653.88 736.011 653.325 738.23 652.216L739.446 654.584C735.606 658.04 732.214 659.768 729.27 659.768C727.435 659.768 726.027 659.149 725.046 657.912C724.107 656.675 723.638 655.139 723.638 653.304C723.638 651.469 724.662 646.456 726.71 638.264C728.8 630.029 729.952 624.376 730.166 621.304C730.166 620.621 729.931 619.811 729.462 618.872C729.035 617.891 728.587 617.101 728.118 616.504L727.478 615.608L727.67 614.648C730.102 613.923 734.112 613.56 739.702 613.56C740.214 614.541 740.47 615.971 740.47 617.848C740.47 619.683 739.36 625.037 737.142 633.912C734.923 642.787 733.814 648.973 733.814 652.472ZM745.282 659.256H744.066C744.237 657.336 745.367 651.704 747.458 642.36C749.549 632.973 750.85 625.955 751.362 621.304C751.362 620.621 751.127 619.811 750.658 618.872C750.231 617.891 749.783 617.101 749.314 616.504L748.674 615.608L748.866 614.648C751.255 613.923 755.373 613.56 761.218 613.56C761.773 614.584 762.05 615.587 762.05 616.568C762.05 617.549 761.965 618.765 761.794 620.216C767.127 615.779 771.479 613.56 774.85 613.56C777.069 613.56 778.861 614.285 780.226 615.736C781.591 617.187 782.274 619.213 782.274 621.816C782.274 624.419 781.357 629.389 779.522 636.728C777.73 644.024 776.834 649.123 776.834 652.024C776.834 653.261 777.047 653.88 777.474 653.88C777.858 653.88 778.925 653.453 780.674 652.6L781.506 652.216L782.786 654.584C780.994 656.12 779.138 657.379 777.218 658.36C775.298 659.299 773.549 659.768 771.97 659.768C770.434 659.768 769.175 659.213 768.194 658.104C767.213 656.952 766.722 655.416 766.722 653.496C766.722 651.533 767.597 646.691 769.346 638.968C771.138 631.245 772.034 626.317 772.034 624.184C772.034 622.051 771.202 620.984 769.538 620.984C767.021 620.984 764.162 622.243 760.962 624.76C760.493 627.021 759.618 630.797 758.338 636.088C755.522 647.736 754.114 655.032 754.114 657.976C752.45 658.829 749.506 659.256 745.282 659.256ZM797.771 673.336C795.637 673.336 793.867 672.803 792.459 671.736C791.051 670.712 790.347 669.283 790.347 667.448C790.347 662.541 795.36 659.32 805.387 657.784C805.771 656.376 806.069 655.011 806.283 653.688C804.32 654.883 802.251 655.48 800.075 655.48C796.107 655.48 792.907 654.051 790.475 651.192C788.043 648.291 786.827 644.536 786.827 639.928C786.827 635.32 787.723 631.053 789.515 627.128C791.307 623.203 793.867 619.96 797.195 617.4C800.565 614.84 804.128 613.56 807.883 613.56C811.68 613.56 814.773 614.499 817.163 616.376C819.595 618.211 820.811 620.557 820.811 623.416C820.811 625.123 820.512 626.509 819.915 627.576C819.573 627.619 819.104 627.64 818.507 627.64C815.221 627.64 812.747 627.107 811.083 626.04L811.147 619.128C810.123 618.232 808.779 617.784 807.115 617.784C804.512 617.784 802.208 619.789 800.203 623.8C798.197 627.768 797.195 632.611 797.195 638.328C797.195 642.125 797.813 644.92 799.051 646.712C800.288 648.504 801.76 649.4 803.467 649.4C806.027 649.4 808.331 648.12 810.379 645.56C812.427 643 813.899 639.949 814.795 636.408L818.251 636.984C816.629 649.187 814.176 658.296 810.891 664.312C807.605 670.328 803.232 673.336 797.771 673.336ZM794.507 667.256C794.507 668.451 795.509 669.048 797.515 669.048C798.539 669.048 799.755 668.408 801.163 667.128C802.571 665.891 803.637 664.269 804.363 662.264C801.888 662.477 799.627 663.032 797.579 663.928C795.531 664.867 794.507 665.976 794.507 667.256ZM860.336 646.456C860.336 650.552 858.778 653.795 855.664 656.184C852.549 658.573 848.773 659.768 844.336 659.768C841.349 659.768 838.874 659.021 836.911 657.528C834.992 655.992 833.925 654.691 833.712 653.624C834.181 652.216 835.184 650.637 836.72 648.888C838.256 647.139 839.642 646.072 840.88 645.688C843.056 647.096 845.082 650.232 846.96 655.096C849.733 655.011 851.12 653.496 851.12 650.552C851.12 648.931 850.458 646.947 849.135 644.6C847.856 642.211 846.448 639.992 844.912 637.944C843.376 635.853 841.946 633.528 840.624 630.968C839.344 628.365 838.704 626.061 838.704 624.056C838.704 620.813 840.005 618.253 842.608 616.376C845.253 614.499 848.218 613.56 851.503 613.56C854.789 613.56 857.328 614.264 859.12 615.672C860.954 617.08 861.872 618.68 861.872 620.472C861.872 622.264 861.189 624.099 859.824 625.976C858.458 627.853 857.093 629.347 855.728 630.456L853.68 632.12C854.192 632.803 854.81 633.677 855.536 634.744C856.261 635.811 857.242 637.624 858.48 640.184C859.717 642.744 860.336 644.835 860.336 646.456ZM855.408 625.464C856.005 624.909 856.538 624.248 857.008 623.48C857.477 622.669 857.712 621.837 857.712 620.984C857.712 620.088 857.2 619.341 856.176 618.744C855.152 618.147 853.914 617.848 852.464 617.848C851.056 617.848 849.861 618.189 848.88 618.872C847.941 619.512 847.472 620.301 847.472 621.24C847.472 622.136 847.77 623.203 848.368 624.44C849.008 625.635 849.626 626.637 850.224 627.448L851.184 628.664C851.61 628.451 852.272 628.003 853.168 627.32C854.106 626.637 854.853 626.019 855.408 625.464ZM899.305 619.192C900.457 620.899 901.31 622.712 901.865 624.632C902.419 626.509 902.697 628.6 902.697 630.904C902.697 633.208 902.441 635.661 901.929 638.264C901.417 640.867 900.563 643.469 899.369 646.072C898.174 648.675 896.723 650.979 895.017 652.984C893.31 654.989 891.155 656.632 888.553 657.912C885.95 659.149 883.091 659.768 879.977 659.768C875.411 659.768 871.87 658.147 869.353 654.904C866.835 651.619 865.577 647.416 865.577 642.296C865.577 637.133 866.473 632.419 868.265 628.152C870.099 623.843 872.702 620.344 876.073 617.656C879.486 614.925 883.262 613.56 887.401 613.56C890.131 613.56 892.521 614.072 894.569 615.096C896.617 616.12 898.195 617.485 899.305 619.192ZM881.897 655.416C883.902 655.416 885.587 654.541 886.953 652.792C888.361 651.043 889.427 648.76 890.153 645.944C891.603 640.397 892.329 634.701 892.329 628.856C892.329 621.56 890.366 617.912 886.441 617.912C884.222 617.912 882.281 619.235 880.617 621.88C877.502 626.872 875.945 633.784 875.945 642.616C875.945 647.437 876.222 650.424 876.777 651.576C877.033 652.216 877.374 652.877 877.801 653.56C878.569 654.797 879.934 655.416 881.897 655.416ZM939.992 619.192C941.144 620.899 941.997 622.712 942.552 624.632C943.107 626.509 943.384 628.6 943.384 630.904C943.384 633.208 943.128 635.661 942.616 638.264C942.104 640.867 941.251 643.469 940.056 646.072C938.861 648.675 937.411 650.979 935.704 652.984C933.997 654.989 931.843 656.632 929.24 657.912C926.637 659.149 923.779 659.768 920.664 659.768C916.099 659.768 912.557 658.147 910.04 654.904C907.523 651.619 906.264 647.416 906.264 642.296C906.264 637.133 907.16 632.419 908.952 628.152C910.787 623.843 913.389 620.344 916.76 617.656C920.173 614.925 923.949 613.56 928.088 613.56C930.819 613.56 933.208 614.072 935.256 615.096C937.304 616.12 938.883 617.485 939.992 619.192ZM922.584 655.416C924.589 655.416 926.275 654.541 927.64 652.792C929.048 651.043 930.115 648.76 930.84 645.944C932.291 640.397 933.016 634.701 933.016 628.856C933.016 621.56 931.053 617.912 927.128 617.912C924.909 617.912 922.968 619.235 921.304 621.88C918.189 626.872 916.632 633.784 916.632 642.616C916.632 647.437 916.909 650.424 917.464 651.576C917.72 652.216 918.061 652.877 918.488 653.56C919.256 654.797 920.621 655.416 922.584 655.416ZM947.72 659.256H946.504C946.674 657.336 947.805 651.704 949.896 642.36C951.986 632.973 953.288 625.955 953.8 621.304C953.8 620.621 953.565 619.811 953.095 618.872C952.669 617.891 952.221 617.101 951.752 616.504L951.112 615.608L951.304 614.648C953.693 613.923 957.81 613.56 963.656 613.56C964.21 614.584 964.488 615.587 964.488 616.568C964.488 617.549 964.402 618.765 964.232 620.216C969.565 615.779 973.917 613.56 977.288 613.56C979.506 613.56 981.298 614.285 982.664 615.736C984.029 617.187 984.712 619.213 984.712 621.816C984.712 624.419 983.794 629.389 981.96 636.728C980.168 644.024 979.272 649.123 979.272 652.024C979.272 653.261 979.485 653.88 979.912 653.88C980.296 653.88 981.362 653.453 983.112 652.6L983.944 652.216L985.224 654.584C983.432 656.12 981.576 657.379 979.656 658.36C977.736 659.299 975.986 659.768 974.408 659.768C972.872 659.768 971.613 659.213 970.632 658.104C969.65 656.952 969.16 655.416 969.16 653.496C969.16 651.533 970.034 646.691 971.784 638.968C973.576 631.245 974.472 626.317 974.472 624.184C974.472 622.051 973.64 620.984 971.976 620.984C969.458 620.984 966.6 622.243 963.4 624.76C962.93 627.021 962.056 630.797 960.776 636.088C957.96 647.736 956.552 655.032 956.552 657.976C954.888 658.829 951.944 659.256 947.72 659.256Z" fill="#FFF6DA"/>
<path d="M784.5 535.5C870.611 535.5 948.469 546.561 1004.72 564.38C1032.85 573.294 1055.44 583.856 1070.94 595.466C1086.49 607.109 1094.5 619.481 1094.5 632C1094.5 644.519 1086.49 656.891 1070.94 668.534C1055.44 680.144 1032.85 690.706 1004.72 699.62C948.469 717.439 870.611 728.5 784.5 728.5C698.389 728.5 620.531 717.439 564.284 699.62C536.146 690.706 513.558 680.144 498.057 668.534C482.512 656.891 474.5 644.519 474.5 632C474.5 619.481 482.512 607.109 498.057 595.466C513.558 583.856 536.146 573.294 564.284 564.38C620.531 546.561 698.389 535.5 784.5 535.5Z" stroke="#FFF6DA" stroke-width="5"/>
</svg>
