<svg width="31" height="306" viewBox="0 0 31 306" fill="none" xmlns="http://www.w3.org/2000/svg">
<path d="M22.5138 0.76C22.6538 0.699999 22.9938 0.679999 23.5338 0.699999C24.0938 0.719999 24.4638 0.749999 24.6438 0.789999C24.8238 0.849999 25.1038 1.05 25.4838 1.39C25.8638 1.71 26.0538 1.92 26.0538 2.02C26.0538 2.1 26.1038 2.25 26.2038 2.47C26.3038 2.71 26.3738 3.03 26.4138 3.43C26.4338 3.83 26.5138 4.13 26.6538 4.33C26.8938 4.69 27.0438 5.23 27.1038 5.95C27.1438 6.45 27.2238 6.85 27.3438 7.15C27.4638 7.41 27.5438 7.67 27.5838 7.93C27.6438 8.27 27.7838 8.56 28.0038 8.8C28.1238 8.94 28.2238 9.16 28.3038 9.46C28.3838 9.76 28.5338 10.04 28.7538 10.3C28.9938 10.54 29.1138 10.7 29.1138 10.78C29.1138 10.84 29.1738 10.95 29.2938 11.11C29.6938 11.59 29.8738 12 29.8338 12.34C29.8138 12.56 29.8438 12.76 29.9238 12.94C30.0638 13.18 30.1238 13.86 30.1038 14.98C30.0838 16.08 30.0038 16.83 29.8638 17.23C29.7838 17.43 29.7438 17.66 29.7438 17.92C29.7438 18.16 29.6738 18.4 29.5338 18.64C29.3738 18.86 29.2038 19.21 29.0238 19.69C28.8638 20.17 28.6738 20.49 28.4538 20.65C28.2538 20.81 28.1138 20.98 28.0338 21.16C27.9938 21.28 27.8838 21.44 27.7038 21.64C27.5238 21.82 27.3938 21.91 27.3138 21.91C27.2738 21.91 27.1438 22 26.9238 22.18C26.7038 22.36 26.2538 22.62 25.5738 22.96C24.8938 23.3 24.4538 23.56 24.2538 23.74C23.7938 24.16 23.3138 24.41 22.8138 24.49C22.5138 24.55 22.1138 24.7 21.6138 24.94C21.2138 25.14 20.7738 25.26 20.2938 25.3C19.8338 25.34 19.1038 25.31 18.1038 25.21C17.5038 25.15 17.0838 25.16 16.8438 25.24C16.4438 25.38 15.9138 25.38 15.2538 25.24C14.8938 25.16 14.5838 25.15 14.3238 25.21C14.0638 25.29 13.8338 25.3 13.6338 25.24C13.4738 25.2 13.1138 25.17 12.5538 25.15C11.9938 25.13 11.6038 25.07 11.3838 24.97C11.2038 24.87 10.9238 24.79 10.5438 24.73C10.1638 24.67 9.86379 24.59 9.64379 24.49C9.38379 24.39 9.07379 24.35 8.71379 24.37C8.43379 24.39 8.24379 24.39 8.14379 24.37C8.06379 24.35 7.94379 24.29 7.78379 24.19C7.54379 24.03 7.28379 23.91 7.00379 23.83C6.42379 23.63 5.73379 23.19 4.93379 22.51C4.57379 22.19 4.28379 21.99 4.06379 21.91C3.84379 21.81 3.63379 21.63 3.43379 21.37C3.23379 21.13 3.04379 20.93 2.86379 20.77C2.70379 20.63 2.49379 20.38 2.23379 20.02C1.97379 19.66 1.79379 19.37 1.69379 19.15C1.67379 19.09 1.62379 18.97 1.54379 18.79C1.46379 18.59 1.41379 18.48 1.39379 18.46C1.29379 18.24 1.22379 17.96 1.18379 17.62C1.14379 17.26 1.07379 16.82 0.973789 16.3C0.893789 15.8 0.883789 15.41 0.943789 15.13C0.983789 14.85 0.973789 14.6 0.913789 14.38C0.873789 14.16 0.913789 13.86 1.03379 13.48C1.15379 13.08 1.23379 12.74 1.27379 12.46C1.29379 12.26 1.34379 12.05 1.42379 11.83C1.52379 11.59 1.61379 11.45 1.69379 11.41C1.73379 11.37 1.78379 11.25 1.84379 11.05C1.90379 10.83 2.00379 10.64 2.14379 10.48C2.28379 10.3 2.42379 10.07 2.56379 9.79C2.68379 9.51 2.87379 9.26 3.13379 9.04C3.65379 8.64 3.98379 8.35 4.12379 8.17C4.26379 7.99 4.32379 7.78 4.30379 7.54C4.26379 7.22 4.36379 6.63 4.60379 5.77C4.86379 4.89 5.12379 4.19 5.38379 3.67C5.52379 3.43 5.59379 3.26 5.59379 3.16C5.59379 3.06 5.69379 2.89 5.89379 2.65C6.11379 2.41 6.22379 2.26 6.22379 2.2C6.22379 2.06 6.31379 1.91 6.49379 1.75C6.69379 1.59 6.90379 1.49 7.12379 1.45C8.02379 1.27 8.63379 1.12 8.95379 0.999999C9.17379 0.919998 9.48379 0.929998 9.88379 1.03C10.2838 1.13 10.5538 1.27 10.6938 1.45C11.1938 2.09 11.4638 2.55 11.5038 2.83C11.5438 2.99 11.6038 3.22 11.6838 3.52C11.7638 3.74 11.8738 4.06 12.0138 4.48C12.1538 5.02 12.4138 5.39 12.7938 5.59C13.1938 5.77 13.6138 5.75 14.0538 5.53C14.2138 5.45 14.4338 5.43 14.7138 5.47C14.9938 5.49 15.2238 5.47 15.4038 5.41C15.5838 5.35 15.9038 5.35 16.3638 5.41C17.4438 5.57 18.1038 5.71 18.3438 5.83C18.5438 5.93 18.7138 5.97 18.8538 5.95C18.9738 5.91 19.1438 5.73 19.3638 5.41C19.6038 5.09 19.7438 4.84 19.7838 4.66C19.8038 4.48 19.8838 4.24 20.0238 3.94C20.1838 3.64 20.3338 3.42 20.4738 3.28C20.5738 3.12 20.6638 2.95 20.7438 2.77C20.9838 2.01 21.2938 1.53 21.6738 1.33C21.8938 1.21 22.0638 1.09 22.1838 0.969999C22.2838 0.889999 22.3938 0.819999 22.5138 0.76ZM24.0138 3.52C23.7338 3.28 23.3338 3.33 22.8138 3.67C22.2938 3.99 21.9938 4.38 21.9138 4.84C21.7938 5.6 21.6438 6.15 21.4638 6.49C21.2838 6.81 20.9138 7.19 20.3538 7.63C19.8938 8.01 19.4938 8.24 19.1538 8.32C18.8138 8.38 18.3138 8.34 17.6538 8.2C16.9938 8.04 16.5138 7.95 16.2138 7.93C15.9338 7.89 15.4538 7.87 14.7738 7.87C13.8738 7.89 13.3538 7.93 13.2138 7.99C13.0538 8.05 12.7438 8.08 12.2838 8.08C11.8238 8.08 11.5038 8.04 11.3238 7.96C10.6838 7.7 10.2838 7.11 10.1238 6.19C10.0638 5.79 9.97379 5.45 9.85379 5.17C9.71379 4.87 9.64379 4.66 9.64379 4.54C9.64379 4.42 9.56379 4.24 9.40379 4C9.26379 3.76 9.14379 3.61 9.04379 3.55C8.78379 3.41 8.45379 3.47 8.05379 3.73C7.65379 3.97 7.45379 4.24 7.45379 4.54C7.45379 4.6 7.38379 4.72 7.24379 4.9C7.08379 5.1 6.99379 5.28 6.97379 5.44C6.95379 5.58 6.91379 5.9 6.85379 6.4C6.71379 7.44 6.46379 8.33 6.10379 9.07C5.74379 9.79 5.19379 10.51 4.45379 11.23C4.03379 11.67 3.78379 11.94 3.70379 12.04C3.64379 12.14 3.61379 12.29 3.61379 12.49C3.61379 12.75 3.57379 12.95 3.49379 13.09C3.37379 13.27 3.31379 14.06 3.31379 15.46C3.29379 16.52 3.38379 17.24 3.58379 17.62C3.66379 17.82 3.72379 18.04 3.76379 18.28C3.80379 18.5 3.90379 18.68 4.06379 18.82C4.24379 18.96 4.41379 19.14 4.57379 19.36C4.73379 19.58 4.93379 19.79 5.17379 19.99C5.41379 20.17 5.63379 20.28 5.83379 20.32C5.99379 20.34 6.25379 20.47 6.61379 20.71C6.99379 20.93 7.29379 21.14 7.51379 21.34C8.39379 22.18 9.70379 22.62 11.4438 22.66C12.6438 22.68 13.5238 22.78 14.0838 22.96C14.3438 23.04 14.8438 23.05 15.5838 22.99C16.3438 22.93 16.8738 22.94 17.1738 23.02C17.8138 23.18 18.6938 23.16 19.8138 22.96C20.9338 22.76 21.7838 22.47 22.3638 22.09C22.6238 21.93 22.9238 21.81 23.2638 21.73C24.0238 21.53 24.4938 21.28 24.6738 20.98C24.7738 20.82 24.9738 20.64 25.2738 20.44C25.7538 20.14 26.1938 19.73 26.5938 19.21C27.0138 18.67 27.2238 18.25 27.2238 17.95C27.2238 17.77 27.3338 17.45 27.5538 16.99C27.7138 16.67 27.8038 16.47 27.8238 16.39C27.8438 16.29 27.8338 16.16 27.7938 16C27.7138 15.8 27.6838 15.62 27.7038 15.46C27.7638 14.14 27.7538 13.41 27.6738 13.27C27.6138 13.13 27.5438 12.92 27.4638 12.64C27.4038 12.36 27.2638 12.13 27.0438 11.95C26.8438 11.77 26.7038 11.58 26.6238 11.38C26.5438 11.18 26.4338 11 26.2938 10.84C26.1538 10.68 26.0438 10.5 25.9638 10.3C25.9038 10.08 25.8038 9.83 25.6638 9.55C25.4238 9.05 25.3238 8.4 25.3638 7.6C25.3638 7.3 25.2438 6.92 25.0038 6.46C24.7638 6 24.6138 5.62 24.5538 5.32C24.5138 5 24.4538 4.74 24.3738 4.54C24.2938 4.34 24.2538 4.15 24.2538 3.97C24.2538 3.81 24.1738 3.66 24.0138 3.52ZM9.16379 14.26C9.50379 14.08 9.80379 14.06 10.0638 14.2C10.3438 14.32 10.5738 14.51 10.7538 14.77C10.9338 15.01 11.0038 15.3 10.9638 15.64C10.9438 15.96 10.8038 16.23 10.5438 16.45C10.4438 16.53 10.2138 16.57 9.85379 16.57C9.51379 16.55 9.25379 16.5 9.07379 16.42C8.75379 16.26 8.60379 15.91 8.62379 15.37C8.64379 14.81 8.82379 14.44 9.16379 14.26ZM20.2038 14.17C20.5638 14.11 20.9138 14.23 21.2538 14.53C21.5938 14.81 21.7638 15.14 21.7638 15.52C21.7638 15.68 21.6838 15.9 21.5238 16.18C21.3838 16.46 21.2538 16.62 21.1338 16.66C21.0138 16.7 20.7838 16.7 20.4438 16.66C20.1038 16.6 19.8838 16.53 19.7838 16.45C19.4238 16.13 19.2938 15.7 19.3938 15.16C19.4938 14.6 19.7638 14.27 20.2038 14.17ZM22.5284 70.76C22.6684 70.7 23.0084 70.68 23.5484 70.7C24.0884 70.72 24.4484 70.76 24.6284 70.82C24.8084 70.88 25.0884 71.08 25.4684 71.42C25.8484 71.74 26.0384 71.95 26.0384 72.05C26.0384 72.11 26.0884 72.24 26.1884 72.44C26.2884 72.62 26.3584 72.94 26.3984 73.4C26.4384 73.86 26.5084 74.15 26.6084 74.27C26.8884 74.63 27.0484 75.17 27.0884 75.89C27.1684 76.95 27.3184 77.65 27.5384 77.99C27.6784 78.19 27.7684 78.36 27.8084 78.5C27.8684 78.76 27.9984 79.09 28.1984 79.49C28.4184 79.89 28.6084 80.16 28.7684 80.3C28.9884 80.5 29.0984 80.65 29.0984 80.75C29.0984 80.83 29.1784 80.97 29.3384 81.17C29.6984 81.63 29.8584 82.02 29.8184 82.34C29.7784 82.54 29.8084 82.74 29.9084 82.94C30.0284 83.18 30.0784 83.83 30.0584 84.89C30.0584 85.95 29.9784 86.73 29.8184 87.23C29.7584 87.47 29.7384 87.69 29.7584 87.89C29.7984 88.07 29.7284 88.3 29.5484 88.58C29.3484 88.84 29.1784 89.19 29.0384 89.63C28.8984 90.07 28.6884 90.43 28.4084 90.71C28.1284 90.99 27.9884 91.16 27.9884 91.22C27.9884 91.36 27.7284 91.62 27.2084 92C26.6884 92.36 26.1184 92.69 25.4984 92.99C24.8984 93.29 24.4584 93.55 24.1784 93.77C23.9784 93.95 23.7384 94.11 23.4584 94.25C23.1984 94.41 22.9884 94.49 22.8284 94.49C22.5484 94.49 22.2084 94.61 21.8084 94.85C21.3884 95.11 20.9484 95.26 20.4884 95.3C20.0284 95.34 19.2384 95.31 18.1184 95.21C17.5384 95.15 17.1184 95.16 16.8584 95.24C16.3984 95.36 15.8484 95.36 15.2084 95.24C14.8684 95.16 14.5984 95.15 14.3984 95.21C14.2384 95.27 13.9784 95.28 13.6184 95.24C13.3384 95.2 12.9384 95.17 12.4184 95.15C11.9384 95.13 11.5484 95.05 11.2484 94.91C10.9484 94.79 10.7184 94.73 10.5584 94.73C10.4184 94.73 10.1484 94.66 9.74844 94.52C9.36844 94.4 8.99844 94.35 8.63844 94.37C8.39844 94.39 8.22844 94.39 8.12844 94.37C8.04844 94.35 7.92844 94.29 7.76844 94.19C7.52844 94.03 7.26844 93.91 6.98844 93.83C6.40844 93.63 5.71844 93.19 4.91844 92.51C4.55844 92.19 4.26844 91.99 4.04844 91.91C3.82844 91.81 3.60844 91.63 3.38844 91.37C3.18844 91.09 3.01844 90.9 2.87844 90.8C2.75844 90.7 2.53844 90.44 2.21844 90.02C1.89844 89.6 1.73844 89.36 1.73844 89.3C1.73844 89.24 1.65844 89.04 1.49844 88.7C1.33844 88.4 1.19844 87.85 1.07844 87.05C0.958438 86.23 0.898438 85.53 0.898438 84.95V83.99C0.898438 83.85 0.948438 83.64 1.04844 83.36C1.12844 83.1 1.19844 82.77 1.25844 82.37C1.31844 81.99 1.39844 81.74 1.49844 81.62C1.61844 81.5 1.72844 81.31 1.82844 81.05C1.92844 80.77 2.04844 80.55 2.18844 80.39C2.32844 80.25 2.46844 80.05 2.60844 79.79C2.72844 79.51 2.87844 79.33 3.05844 79.25C3.39844 79.07 3.59844 78.86 3.65844 78.62C3.69844 78.46 3.79844 78.3 3.95844 78.14C4.13844 77.98 4.23844 77.73 4.25844 77.39C4.29844 76.97 4.44844 76.32 4.70844 75.44C4.96844 74.56 5.17844 74 5.33844 73.76C5.43844 73.62 5.50844 73.46 5.54844 73.28C5.58844 73.08 5.68844 72.89 5.84844 72.71C5.98844 72.53 6.12844 72.33 6.26844 72.11C6.36844 71.89 6.47844 71.74 6.59844 71.66C6.71844 71.56 6.89844 71.49 7.13844 71.45C8.03844 71.27 8.63844 71.12 8.93844 71C9.15844 70.92 9.46844 70.93 9.86844 71.03C10.2684 71.13 10.5384 71.27 10.6784 71.45C10.8384 71.67 11.0184 71.95 11.2184 72.29C11.4184 72.61 11.5184 72.8 11.5184 72.86C11.5184 72.96 11.5684 73.16 11.6684 73.46C11.6884 73.54 11.7384 73.71 11.8184 73.97C11.8984 74.21 11.9484 74.38 11.9684 74.48C12.1284 75.02 12.3984 75.39 12.7784 75.59C13.1784 75.77 13.6084 75.74 14.0684 75.5C14.2484 75.42 14.4584 75.4 14.6984 75.44C14.9384 75.48 15.1584 75.47 15.3584 75.41C15.5784 75.35 15.8984 75.35 16.3184 75.41C16.4384 75.43 16.6384 75.46 16.9184 75.5C17.1984 75.54 17.3784 75.57 17.4584 75.59C17.8184 75.63 18.0984 75.7 18.2984 75.8C18.5184 75.92 18.6784 75.98 18.7784 75.98C18.8984 75.98 19.0984 75.79 19.3784 75.41C19.6584 75.03 19.7984 74.76 19.7984 74.6C19.7984 74.5 19.8784 74.28 20.0384 73.94C20.2184 73.58 20.3684 73.33 20.4884 73.19C20.5884 73.07 20.6684 72.93 20.7284 72.77C20.8484 72.45 20.9884 72.15 21.1484 71.87C21.3084 71.57 21.4284 71.41 21.5084 71.39C21.6284 71.35 21.7984 71.25 22.0184 71.09C22.2384 70.91 22.4084 70.8 22.5284 70.76ZM23.9684 73.49C23.8084 73.37 23.6784 73.31 23.5784 73.31C23.2784 73.31 22.9284 73.49 22.5284 73.85C22.1484 74.21 21.9384 74.54 21.8984 74.84C21.6784 76.14 21.3184 76.94 20.8184 77.24C20.5584 77.4 20.3684 77.57 20.2484 77.75C20.1284 77.93 20.0484 78.19 20.0084 78.53C19.8684 80.01 19.3384 80.75 18.4184 80.75C17.9784 80.75 17.5984 80.55 17.2784 80.15C16.9584 79.75 16.8684 79.34 17.0084 78.92C17.1484 78.46 17.0284 78.23 16.6484 78.23C16.3484 78.23 16.2484 78.47 16.3484 78.95C16.4084 79.19 16.3884 79.46 16.2884 79.76C16.1884 80.04 16.1684 80.27 16.2284 80.45C16.2684 80.63 16.2584 80.95 16.1984 81.41C16.1584 81.83 16.0784 82.11 15.9584 82.25C15.8584 82.39 15.6584 82.49 15.3584 82.55C14.7584 82.63 14.2884 82.51 13.9484 82.19C13.6284 81.85 13.4684 81.32 13.4684 80.6C13.4684 80.28 13.4084 80.08 13.2884 80C13.1684 79.9 13.0284 79.94 12.8684 80.12C12.4084 80.64 11.8284 80.65 11.1284 80.15C10.8884 79.97 10.7284 79.79 10.6484 79.61C10.5884 79.41 10.5784 79.06 10.6184 78.56C10.6384 78.14 10.6384 77.88 10.6184 77.78C10.6184 77.66 10.5684 77.49 10.4684 77.27C10.3084 76.99 10.1884 76.62 10.1084 76.16C10.0084 75.66 9.91844 75.34 9.83844 75.2C9.75844 75.06 9.69844 74.89 9.65844 74.69C9.59844 74.33 9.46844 74.04 9.26844 73.82C9.08844 73.58 8.88844 73.46 8.66844 73.46C8.44844 73.46 8.20844 73.57 7.94844 73.79C7.68844 73.99 7.53844 74.2 7.49844 74.42C7.43844 74.58 7.34844 74.73 7.22844 74.87C7.00844 75.15 6.89844 75.46 6.89844 75.8C6.89844 76.06 6.77844 76.81 6.53844 78.05C6.39844 78.73 6.28844 79.15 6.20844 79.31C6.12844 79.47 5.88844 79.72 5.48844 80.06C5.02844 80.48 4.72844 80.8 4.58844 81.02C4.46844 81.2 4.26844 81.42 3.98844 81.68C3.80844 81.84 3.69844 81.96 3.65844 82.04C3.61844 82.12 3.58844 82.26 3.56844 82.46C3.56844 82.76 3.52844 82.97 3.44844 83.09C3.36844 83.25 3.30844 84.03 3.26844 85.43C3.24844 86.47 3.33844 87.21 3.53844 87.65C3.63844 87.87 3.70844 88.09 3.74844 88.31C3.76844 88.53 3.86844 88.69 4.04844 88.79C4.20844 88.89 4.36844 89.06 4.52844 89.3C4.66844 89.54 4.86844 89.76 5.12844 89.96C5.38844 90.16 5.60844 90.28 5.78844 90.32C5.94844 90.34 6.22844 90.48 6.62844 90.74C7.02844 90.98 7.30844 91.18 7.46844 91.34C7.80844 91.72 8.33844 92.03 9.05844 92.27C9.77844 92.51 10.5584 92.64 11.3984 92.66C12.5184 92.68 13.4084 92.78 14.0684 92.96C14.3884 93.06 14.7084 93.08 15.0284 93.02C15.3284 92.98 15.7684 92.97 16.3484 92.99C18.0284 93.05 19.2884 93.02 20.1284 92.9C20.9884 92.78 21.7284 92.51 22.3484 92.09C22.6084 91.93 22.9084 91.81 23.2484 91.73C24.0284 91.51 24.4884 91.27 24.6284 91.01C24.7084 90.87 24.9084 90.69 25.2284 90.47C25.5884 90.23 25.8384 90.04 25.9784 89.9C26.1384 89.76 26.3384 89.52 26.5784 89.18C26.8784 88.8 27.0584 88.55 27.1184 88.43C27.1784 88.29 27.2084 88.14 27.2084 87.98C27.2084 87.8 27.3184 87.49 27.5384 87.05C27.6984 86.69 27.7884 86.44 27.8084 86.3C27.8284 86.14 27.7984 85.96 27.7184 85.76C27.6384 85.58 27.6284 85.4 27.6884 85.22C27.8484 84.74 27.8484 84.14 27.6884 83.42C27.5284 82.68 27.2984 82.18 26.9984 81.92C26.7784 81.72 26.6384 81.54 26.5784 81.38C26.5384 81.2 26.4484 81.03 26.3084 80.87C26.1684 80.71 26.0784 80.53 26.0384 80.33C25.9584 80.09 25.8484 79.9 25.7084 79.76C25.5684 79.6 25.4684 79.38 25.4084 79.1C25.3684 78.84 25.3184 78.66 25.2584 78.56C25.1984 78.44 25.1684 78.25 25.1684 77.99C25.1684 77.27 25.0484 76.65 24.8084 76.13C24.6884 75.91 24.5984 75.64 24.5384 75.32C24.4984 75 24.4384 74.72 24.3584 74.48C24.2784 74.24 24.2384 74.04 24.2384 73.88C24.2384 73.72 24.1484 73.59 23.9684 73.49ZM9.14844 84.29C9.40844 84.11 9.63844 84.04 9.83844 84.08C10.0584 84.12 10.2984 84.27 10.5584 84.53C10.7584 84.75 10.8784 84.91 10.9184 85.01C10.9584 85.09 10.9784 85.21 10.9784 85.37C10.9384 85.83 10.8184 86.15 10.6184 86.33C10.4384 86.51 10.1584 86.58 9.77844 86.54C9.41844 86.52 9.17844 86.48 9.05844 86.42C8.95844 86.36 8.85844 86.23 8.75844 86.03C8.59844 85.67 8.54844 85.33 8.60844 85.01C8.68844 84.69 8.86844 84.45 9.14844 84.29ZM20.4284 84.17C20.6484 84.13 20.8984 84.24 21.1784 84.5C21.4784 84.76 21.6584 85.02 21.7184 85.28C21.7584 85.56 21.6984 85.86 21.5384 86.18C21.3784 86.5 21.1984 86.67 20.9984 86.69C20.4384 86.77 20.0084 86.65 19.7084 86.33C19.4084 86.01 19.3084 85.58 19.4084 85.04C19.4484 84.74 19.5384 84.53 19.6784 84.41C19.8384 84.29 20.0884 84.21 20.4284 84.17ZM21.9431 141.15C22.7431 140.63 23.6531 140.54 24.6731 140.88C24.8931 140.96 25.1731 141.15 25.5131 141.45C25.8731 141.73 26.0531 141.92 26.0531 142.02C26.0531 142.08 26.1031 142.23 26.2031 142.47C26.3031 142.69 26.3731 143.02 26.4131 143.46C26.4331 143.9 26.5131 144.21 26.6531 144.39C26.8131 144.61 26.9231 144.86 26.9831 145.14C27.0431 145.4 27.0831 145.84 27.1031 146.46C27.1231 147.08 27.1631 147.49 27.2231 147.69C27.2831 147.89 27.4631 148.19 27.7631 148.59C28.0031 148.91 28.1831 149.23 28.3031 149.55C28.4231 149.89 28.5831 150.17 28.7831 150.39C29.0031 150.61 29.1131 150.75 29.1131 150.81C29.1131 150.87 29.2231 151.05 29.4431 151.35C29.6431 151.63 29.7631 151.94 29.8031 152.28C29.8431 152.64 29.8931 152.88 29.9531 153C30.0531 153.14 30.0931 153.72 30.0731 154.74C30.0531 155.74 30.0031 156.44 29.9231 156.84C29.8231 157.24 29.7631 157.61 29.7431 157.95C29.7031 158.29 29.6431 158.51 29.5631 158.61C29.3431 158.85 29.1531 159.26 28.9931 159.84C28.8931 160.14 28.7231 160.41 28.4831 160.65C28.2431 160.87 28.0731 161.09 27.9731 161.31C27.8931 161.49 27.7531 161.64 27.5531 161.76C27.4131 161.86 27.1731 162.03 26.8331 162.27C26.5531 162.47 26.2031 162.68 25.7831 162.9C25.0031 163.28 24.5431 163.53 24.4031 163.65C23.8231 164.17 23.3031 164.46 22.8431 164.52C22.5631 164.56 22.1831 164.7 21.7031 164.94C21.3231 165.12 21.0531 165.22 20.8931 165.24C20.7531 165.28 20.4131 165.29 19.8731 165.27C18.2931 165.25 17.0831 165.25 16.2431 165.27C15.3031 165.29 14.3231 165.27 13.3031 165.21C12.3031 165.17 11.6731 165.1 11.4131 165C11.0931 164.88 10.7631 164.79 10.4231 164.73C10.0831 164.67 9.82309 164.6 9.64309 164.52C9.44309 164.44 9.14309 164.41 8.74309 164.43C8.32309 164.43 7.97309 164.35 7.69309 164.19C7.39309 164.03 7.16309 163.93 7.00309 163.89C6.78309 163.85 6.62309 163.79 6.52309 163.71C6.34309 163.59 6.12309 163.45 5.86309 163.29C5.54309 163.07 5.20309 162.81 4.84309 162.51C4.50309 162.19 4.24309 161.99 4.06309 161.91C3.76309 161.77 3.32309 161.35 2.74309 160.65C2.18309 159.95 1.79309 159.35 1.57309 158.85C1.29309 158.25 1.09309 157.3 0.973086 156C0.853086 154.7 0.883086 153.83 1.06309 153.39C1.14309 153.17 1.22309 152.86 1.30309 152.46C1.34309 152.06 1.43309 151.77 1.57309 151.59C1.69309 151.39 1.78309 151.21 1.84309 151.05C1.92309 150.87 2.04309 150.67 2.20309 150.45C2.38309 150.21 2.51309 150.01 2.59309 149.85C2.65309 149.71 2.76309 149.59 2.92309 149.49C3.08309 149.39 3.23309 149.34 3.37309 149.34C3.59309 149.34 3.80309 149.16 4.00309 148.8C4.12309 148.54 4.23309 148.35 4.33309 148.23C4.41309 148.07 4.42309 147.91 4.36309 147.75C4.28309 147.55 4.29309 147.15 4.39309 146.55C4.51309 145.95 4.66309 145.47 4.84309 145.11C4.90309 144.97 4.97309 144.77 5.05309 144.51C5.11309 144.27 5.21309 144.01 5.35309 143.73C5.49309 143.47 5.58309 143.26 5.62309 143.1C5.66309 142.92 5.73309 142.8 5.83309 142.74C5.93309 142.68 6.06309 142.5 6.22309 142.2C6.46309 141.74 6.72309 141.51 7.00309 141.51C7.14309 141.51 7.29309 141.48 7.45309 141.42C7.59309 141.36 7.80309 141.31 8.08309 141.27C8.36309 141.23 8.64309 141.15 8.92309 141.03C9.22309 140.91 9.57309 140.92 9.97309 141.06C10.3931 141.2 10.6731 141.41 10.8131 141.69C10.9531 141.93 11.0931 142.13 11.2331 142.29C11.3731 142.45 11.4631 142.63 11.5031 142.83C11.5431 143.05 11.6031 143.29 11.6831 143.55C11.8031 143.89 11.9031 144.22 11.9831 144.54C12.1231 145.02 12.2931 145.34 12.4931 145.5C12.7131 145.66 13.0231 145.72 13.4231 145.68C13.7431 145.64 13.9531 145.6 14.0531 145.56C14.1731 145.5 14.4531 145.46 14.8931 145.44C15.4531 145.42 15.7531 145.41 15.7931 145.41C15.9931 145.39 16.4031 145.44 17.0231 145.56C17.6431 145.66 18.0531 145.74 18.2531 145.8C18.5731 145.94 18.7831 145.99 18.8831 145.95C19.0031 145.91 19.1731 145.74 19.3931 145.44C19.6331 145.08 19.7631 144.83 19.7831 144.69C19.8231 144.53 19.9331 144.27 20.1131 143.91C20.2931 143.55 20.4331 143.31 20.5331 143.19C20.6331 143.09 20.6931 142.97 20.7131 142.83C20.8931 142.15 21.3031 141.59 21.9431 141.15ZM10.1531 154.14C9.81309 154.02 9.50309 154.09 9.22309 154.35C8.94309 154.59 8.78309 154.9 8.74309 155.28C8.72309 155.64 8.84309 155.97 9.10309 156.27C9.62309 156.81 10.1231 156.83 10.6031 156.33C11.1031 155.83 11.1131 155.3 10.6331 154.74C10.3931 154.48 10.2731 154.32 10.2731 154.26C10.2731 154.2 10.2331 154.16 10.1531 154.14ZM20.8031 154.23C20.6631 154.15 20.5531 154.11 20.4731 154.11C20.4131 154.11 20.2931 154.15 20.1131 154.23C19.7931 154.37 19.5931 154.64 19.5131 155.04C19.4331 155.44 19.4731 155.81 19.6331 156.15C19.7931 156.49 20.0431 156.66 20.3831 156.66C20.5831 156.66 20.7231 156.69 20.8031 156.75C20.9031 156.79 20.9831 156.78 21.0431 156.72C21.1231 156.66 21.2331 156.49 21.3731 156.21C21.3731 156.19 21.3931 156.13 21.4331 156.03C21.4931 155.93 21.5331 155.87 21.5531 155.85C21.6931 155.59 21.6831 155.31 21.5231 155.01C21.3831 154.69 21.1431 154.43 20.8031 154.23ZM22.5431 210.79C22.6631 210.75 22.9831 210.74 23.5031 210.76C24.0431 210.76 24.4131 210.79 24.6131 210.85C24.8131 210.91 25.1031 211.1 25.4831 211.42C25.8631 211.72 26.0531 211.92 26.0531 212.02C26.0531 212.1 26.1031 212.25 26.2031 212.47C26.3031 212.71 26.3631 213.04 26.3831 213.46C26.4231 213.9 26.5131 214.23 26.6531 214.45C26.8331 214.69 26.9531 214.96 27.0131 215.26C27.0731 215.56 27.1031 216.07 27.1031 216.79C27.1231 217.55 27.1731 218.06 27.2531 218.32C27.3331 218.58 27.5231 218.82 27.8231 219.04C27.9831 219.18 28.1331 219.39 28.2731 219.67C28.4131 219.95 28.5831 220.19 28.7831 220.39C28.9831 220.61 29.0831 220.75 29.0831 220.81C29.0831 220.87 29.2031 221.06 29.4431 221.38C29.6831 221.7 29.8031 222 29.8031 222.28C29.8031 222.56 29.8431 222.78 29.9231 222.94C30.0231 223.12 30.0731 223.71 30.0731 224.71C30.0731 225.71 30.0231 226.42 29.9231 226.84C29.8231 227.22 29.7631 227.55 29.7431 227.83C29.7431 228.09 29.6331 228.41 29.4131 228.79C29.2131 229.17 29.0631 229.52 28.9631 229.84C28.8831 230.16 28.7331 230.42 28.5131 230.62C28.2731 230.84 28.1031 231.06 28.0031 231.28C27.8631 231.5 27.7031 231.66 27.5231 231.76C27.3431 231.88 27.1131 232.05 26.8331 232.27C26.5131 232.49 26.0531 232.75 25.4531 233.05C24.8531 233.35 24.4631 233.57 24.2831 233.71C23.7431 234.17 23.2331 234.44 22.7531 234.52C22.3731 234.6 22.0231 234.73 21.7031 234.91C21.1631 235.23 20.4731 235.36 19.6331 235.3C19.1931 235.28 18.5831 235.27 17.8031 235.27C16.7431 235.27 15.7131 235.26 14.7131 235.24C14.4531 235.24 14.2331 235.25 14.0531 235.27C13.7131 235.29 13.2031 235.26 12.5231 235.18C11.8631 235.12 11.4631 235.05 11.3231 234.97C11.1031 234.87 10.8231 234.79 10.4831 234.73C10.1631 234.67 9.90309 234.6 9.70309 234.52C9.50309 234.44 9.18309 234.4 8.74309 234.4C8.32309 234.4 7.99309 234.33 7.75309 234.19C7.55309 234.05 7.30309 233.93 7.00309 233.83C6.80309 233.77 6.47309 233.61 6.01309 233.35C5.57309 233.09 5.29309 232.9 5.17309 232.78C4.87309 232.42 4.45309 232.11 3.91309 231.85C3.67309 231.73 3.55309 231.65 3.55309 231.61C3.55309 231.55 3.36309 231.32 2.98309 230.92C2.34309 230.22 1.89309 229.61 1.63309 229.09C1.37309 228.55 1.18309 227.82 1.06309 226.9C0.963086 226.18 0.913086 225.46 0.913086 224.74C0.913086 224 0.963086 223.54 1.06309 223.36C1.14309 223.2 1.21309 222.9 1.27309 222.46C1.33309 222.02 1.41309 221.75 1.51309 221.65C1.61309 221.55 1.73309 221.34 1.87309 221.02C1.99309 220.7 2.11309 220.48 2.23309 220.36C2.37309 220.22 2.48309 220.03 2.56309 219.79C2.64309 219.57 2.82309 219.31 3.10309 219.01C3.64309 218.49 3.96309 218.15 4.06309 217.99C4.18309 217.83 4.24309 217.66 4.24309 217.48C4.24309 217.18 4.38309 216.55 4.66309 215.59C4.96309 214.61 5.19309 214.01 5.35309 213.79C5.43309 213.65 5.49309 213.48 5.53309 213.28C5.57309 213.1 5.66309 212.93 5.80309 212.77C5.94309 212.63 6.08309 212.43 6.22309 212.17C6.36309 211.89 6.52309 211.71 6.70309 211.63C6.90309 211.53 7.37309 211.41 8.11309 211.27C8.35309 211.23 8.62309 211.15 8.92309 211.03C9.20309 210.91 9.42309 210.89 9.58309 210.97C9.76309 211.03 9.97309 211.1 10.2131 211.18C10.3731 211.22 10.5331 211.33 10.6931 211.51C10.8731 211.69 10.9631 211.84 10.9631 211.96C10.9631 212 11.0431 212.1 11.2031 212.26C11.3631 212.44 11.4531 212.6 11.4731 212.74C11.5531 213.16 11.6931 213.68 11.8931 214.3C12.1131 214.92 12.2631 215.28 12.3431 215.38C12.5231 215.56 12.7931 215.67 13.1531 215.71C13.5131 215.73 13.8131 215.68 14.0531 215.56C14.1531 215.5 14.4131 215.46 14.8331 215.44C15.1931 215.44 15.4931 215.43 15.7331 215.41C15.9131 215.39 16.3231 215.43 16.9631 215.53C17.6031 215.63 18.0331 215.71 18.2531 215.77C18.5131 215.85 18.7031 215.87 18.8231 215.83C18.9431 215.81 19.1231 215.64 19.3631 215.32C19.6231 214.98 19.7831 214.7 19.8431 214.48C19.9831 213.96 20.2031 213.54 20.5031 213.22C20.6031 213.1 20.6731 212.97 20.7131 212.83C20.7531 212.65 20.8631 212.4 21.0431 212.08C21.2231 211.74 21.3631 211.54 21.4631 211.48C22.0231 211.08 22.3831 210.85 22.5431 210.79ZM9.19309 213.73C9.03309 213.55 8.86309 213.47 8.68309 213.49C8.50309 213.49 8.26309 213.59 7.96309 213.79C7.74309 213.95 7.59309 214.14 7.51309 214.36C7.43309 214.58 7.31309 214.8 7.15309 215.02C6.99309 215.26 6.91309 215.47 6.91309 215.65C6.91309 216.19 6.80309 216.91 6.58309 217.81C6.54309 218.03 6.44309 218.28 6.28309 218.56C6.14309 218.84 6.01309 219.03 5.89309 219.13C5.79309 219.21 5.70309 219.39 5.62309 219.67C5.54309 219.95 5.36309 220.24 5.08309 220.54C4.28309 221.38 3.82309 221.88 3.70309 222.04C3.60309 222.18 3.55309 222.35 3.55309 222.55C3.55309 222.77 3.50309 223 3.40309 223.24C3.32309 223.48 3.30309 223.72 3.34309 223.96C3.38309 224.2 3.37309 224.48 3.31309 224.8C3.25309 225.12 3.24309 225.62 3.28309 226.3C3.34309 226.96 3.43309 227.42 3.55309 227.68C3.65309 227.92 3.71309 228.14 3.73309 228.34C3.77309 228.54 3.85309 228.68 3.97309 228.76C4.13309 228.9 4.44309 229.23 4.90309 229.75C5.16309 230.05 5.46309 230.25 5.80309 230.35C6.34309 230.51 6.93309 230.88 7.57309 231.46C7.99309 231.84 8.57309 232.14 9.31309 232.36C10.0731 232.6 10.8431 232.7 11.6231 232.66C11.9231 232.66 12.3231 232.68 12.8231 232.72C13.3231 232.78 13.6431 232.84 13.7831 232.9C14.3231 233.12 14.7031 233.18 14.9231 233.08C15.1231 233.02 15.4831 232.98 16.0031 232.96C16.5231 232.94 16.8931 232.97 17.1131 233.05C17.3331 233.11 17.6831 233.13 18.1631 233.11C18.6631 233.09 18.9531 233.04 19.0331 232.96C19.1731 232.78 19.0531 232.58 18.6731 232.36C18.4331 232.24 18.2531 232.1 18.1331 231.94C17.6731 231.3 17.3131 230.85 17.0531 230.59C16.7931 230.33 16.6631 230.14 16.6631 230.02C16.6631 229.9 16.6131 229.76 16.5131 229.6C16.4131 229.44 16.3431 229.3 16.3031 229.18C16.2831 229.06 16.2131 228.93 16.0931 228.79C15.9731 228.67 15.8531 228.51 15.7331 228.31C15.6531 228.13 15.5531 227.94 15.4331 227.74C15.3131 227.54 15.2531 227.29 15.2531 226.99C15.2531 226.69 15.2031 226.47 15.1031 226.33C15.0031 226.17 14.9531 226.02 14.9531 225.88C14.9531 225.74 14.9131 225.56 14.8331 225.34C14.7531 225.1 14.7031 224.48 14.6831 223.48C14.6431 221.78 14.6331 220.72 14.6531 220.3C14.6931 219.86 14.8031 219.47 14.9831 219.13C15.2231 218.67 15.2231 218.33 14.9831 218.11C14.7431 217.87 14.3231 217.8 13.7231 217.9C12.6031 218.14 11.7531 218.13 11.1731 217.87C10.6131 217.61 10.2631 217.1 10.1231 216.34C10.0631 215.92 9.97309 215.54 9.85309 215.2C9.71309 214.8 9.61309 214.51 9.55309 214.33C9.49309 214.11 9.37309 213.91 9.19309 213.73ZM20.8031 224.77C20.6831 224.67 20.6031 224.63 20.5631 224.65C20.2231 224.71 20.0031 224.81 19.9031 224.95C19.8231 225.07 19.8031 225.29 19.8431 225.61C19.8631 225.81 19.9231 225.95 20.0231 226.03C20.1231 226.09 20.3331 226.13 20.6531 226.15C21.0731 226.17 21.2831 226.03 21.2831 225.73C21.2831 225.57 21.2231 225.39 21.1031 225.19C21.0031 224.99 20.9031 224.85 20.8031 224.77ZM9.43309 224.17C9.83309 224.07 10.1831 224.16 10.4831 224.44C10.7831 224.72 10.9331 225.05 10.9331 225.43C10.9331 225.81 10.7931 226.15 10.5131 226.45C10.4131 226.55 10.1631 226.59 9.76309 226.57C9.38309 226.53 9.12309 226.45 8.98309 226.33C8.62309 226.07 8.50309 225.67 8.62309 225.13C8.74309 224.59 9.01309 224.27 9.43309 224.17ZM21.9731 281.09C22.3131 280.89 22.7231 280.77 23.2031 280.73C23.7031 280.69 24.1731 280.73 24.6131 280.85C24.8131 280.91 25.1031 281.1 25.4831 281.42C25.8631 281.72 26.0531 281.92 26.0531 282.02C26.0531 282.08 26.1031 282.23 26.2031 282.47C26.3031 282.69 26.3731 283.02 26.4131 283.46C26.4331 283.9 26.5231 284.23 26.6831 284.45C26.8431 284.65 26.9431 284.87 26.9831 285.11C27.0431 285.35 27.0831 285.76 27.1031 286.34C27.1431 287.4 27.3631 288.21 27.7631 288.77C27.9831 289.05 28.1631 289.35 28.3031 289.67C28.4831 290.01 28.6531 290.26 28.8131 290.42C28.9931 290.6 29.0831 290.72 29.0831 290.78C29.0831 290.86 29.2031 291.06 29.4431 291.38C29.6231 291.6 29.7331 291.77 29.7731 291.89C29.8131 292.01 29.8231 292.19 29.8031 292.43C29.7831 292.59 29.8231 292.75 29.9231 292.91C30.0431 293.15 30.0931 293.78 30.0731 294.8C30.0731 295.8 30.0031 296.58 29.8631 297.14C29.8031 297.38 29.7731 297.63 29.7731 297.89C29.7531 298.15 29.6531 298.44 29.4731 298.76C29.2731 299.06 29.1231 299.39 29.0231 299.75C28.9031 300.11 28.7331 300.4 28.5131 300.62C28.2931 300.82 28.1231 301.04 28.0031 301.28C27.9031 301.48 27.7431 301.65 27.5231 301.79C27.3831 301.89 27.1431 302.06 26.8031 302.3C26.5631 302.48 26.1231 302.72 25.4831 303.02C24.8831 303.32 24.4931 303.55 24.3131 303.71C23.7331 304.19 23.2231 304.46 22.7831 304.52C22.4831 304.56 22.1031 304.7 21.6431 304.94C21.3031 305.12 21.0531 305.22 20.8931 305.24C20.7531 305.28 20.4231 305.29 19.9031 305.27C18.3231 305.25 17.0931 305.25 16.2131 305.27C16.1331 305.27 15.9931 305.27 15.7931 305.27C15.5931 305.27 15.4131 305.27 15.2531 305.27C15.0931 305.27 14.9531 305.27 14.8331 305.27C14.5731 305.27 14.2731 305.27 13.9331 305.27C13.4931 305.27 12.9831 305.24 12.4031 305.18C11.8231 305.12 11.4631 305.05 11.3231 304.97C11.1031 304.87 10.8231 304.79 10.4831 304.73C10.1631 304.67 9.90309 304.6 9.70309 304.52C9.50309 304.44 9.19309 304.4 8.77309 304.4C8.33309 304.4 7.99309 304.33 7.75309 304.19C7.51309 304.03 7.25309 303.91 6.97309 303.83C6.69309 303.75 6.48309 303.66 6.34309 303.56C6.22309 303.46 6.01309 303.32 5.71309 303.14C5.41309 302.98 5.26309 302.88 5.26309 302.84C5.26309 302.8 5.10309 302.66 4.78309 302.42C4.48309 302.18 4.25309 302.02 4.09309 301.94C3.83309 301.8 3.41309 301.41 2.83309 300.77C2.25309 300.11 1.90309 299.64 1.78309 299.36C1.70309 299.16 1.59309 298.92 1.45309 298.64C1.23309 298.16 1.07309 297.26 0.973086 295.94C0.873086 294.62 0.893086 293.77 1.03309 293.39C1.15309 293.13 1.23309 292.8 1.27309 292.4C1.35309 292 1.43309 291.74 1.51309 291.62C1.61309 291.52 1.72309 291.34 1.84309 291.08C1.94309 290.82 2.05309 290.61 2.17309 290.45C2.31309 290.27 2.45309 290.03 2.59309 289.73C2.85309 289.11 3.12309 288.64 3.40309 288.32C3.56309 288.1 3.74309 287.82 3.94309 287.48C4.10309 287.16 4.21309 286.98 4.27309 286.94C4.31309 286.88 4.38309 286.64 4.48309 286.22C4.60309 285.78 4.71309 285.43 4.81309 285.17C4.93309 284.87 5.02309 284.61 5.08309 284.39C5.14309 284.15 5.23309 283.95 5.35309 283.79C5.45309 283.61 5.52309 283.44 5.56309 283.28C5.58309 283.1 5.68309 282.91 5.86309 282.71C6.04309 282.53 6.17309 282.34 6.25309 282.14C6.33309 281.96 6.43309 281.81 6.55309 281.69C6.69309 281.57 6.81309 281.51 6.91309 281.51C7.13309 281.51 7.76309 281.35 8.80309 281.03C9.08309 280.93 9.39309 280.92 9.73309 281C10.0931 281.06 10.3831 281.18 10.6031 281.36C10.7031 281.44 10.8731 281.69 11.1131 282.11C11.3731 282.53 11.5031 282.78 11.5031 282.86C11.5031 283.1 11.6631 283.59 11.9831 284.33C12.3231 285.07 12.5731 285.49 12.7331 285.59C12.8531 285.67 13.0531 285.71 13.3331 285.71C13.6131 285.69 13.8231 285.64 13.9631 285.56C14.0631 285.5 14.3431 285.46 14.8031 285.44C15.1831 285.44 15.4931 285.43 15.7331 285.41C16.4131 285.37 17.2231 285.5 18.1631 285.8L18.7931 286.01L19.0631 285.71C19.2431 285.49 19.3831 285.25 19.4831 284.99C19.5431 284.81 19.6531 284.52 19.8131 284.12C19.9331 283.8 20.0731 283.53 20.2331 283.31C20.4131 283.05 20.5631 282.79 20.6831 282.53C20.8431 282.17 21.0131 281.89 21.1931 281.69C21.3731 281.49 21.6331 281.29 21.9731 281.09ZM16.4831 287.96C16.2631 287.88 15.9331 287.86 15.4931 287.9C15.2331 287.94 14.9431 288.08 14.6231 288.32C14.3231 288.56 14.1731 288.76 14.1731 288.92C14.1731 289.02 14.0531 289.22 13.8131 289.52C13.5931 289.74 13.4031 289.99 13.2431 290.27C13.1231 290.47 12.9631 290.64 12.7631 290.78C12.5631 290.92 12.4631 291.01 12.4631 291.05C12.4631 291.15 12.3731 291.27 12.1931 291.41C12.0131 291.55 11.8331 291.65 11.6531 291.71C11.3731 291.79 11.0831 291.94 10.7831 292.16C10.4431 292.38 10.1631 292.51 9.94309 292.55C7.22309 293.07 5.33309 293.02 4.27309 292.4C4.07309 292.3 3.91309 292.27 3.79309 292.31C3.67309 292.33 3.61309 292.41 3.61309 292.55C3.61309 292.67 3.57309 292.84 3.49309 293.06C3.37309 293.32 3.30309 294.12 3.28309 295.46C3.26309 296.56 3.35309 297.3 3.55309 297.68C3.65309 297.86 3.71309 298.06 3.73309 298.28C3.77309 298.48 3.92309 298.71 4.18309 298.97C4.24309 299.05 4.50309 299.33 4.96309 299.81C5.26309 300.11 5.54309 300.29 5.80309 300.35C6.32309 300.47 6.92309 300.85 7.60309 301.49C8.00309 301.85 8.57309 302.14 9.31309 302.36C10.0731 302.58 10.8431 302.68 11.6231 302.66C12.5031 302.66 13.2931 302.77 13.9931 302.99C14.4331 303.11 14.7331 303.14 14.8931 303.08C15.1331 303.02 15.5031 302.98 16.0031 302.96C16.5231 302.94 16.8831 302.96 17.0831 303.02C17.2631 303.08 17.7131 303.11 18.4331 303.11C19.1531 303.11 19.6431 303.08 19.9031 303.02C20.1831 302.98 20.6431 302.84 21.2831 302.6C21.9231 302.36 22.2931 302.19 22.3931 302.09C22.5531 301.97 22.7331 301.88 22.9331 301.82C23.9331 301.58 24.5131 301.29 24.6731 300.95C24.7531 300.81 24.8831 300.7 25.0631 300.62C25.5031 300.38 25.9731 299.97 26.4731 299.39C26.9731 298.79 27.2231 298.33 27.2231 298.01C27.2231 297.81 27.3231 297.5 27.5231 297.08C27.7031 296.72 27.8031 296.46 27.8231 296.3C27.8431 296.14 27.8131 295.96 27.7331 295.76C27.6331 295.56 27.6031 295.42 27.6431 295.34C27.7431 295.14 27.7831 294.81 27.7631 294.35C27.7631 293.89 27.7231 293.52 27.6431 293.24C27.4831 292.72 27.3431 292.41 27.2231 292.31C27.1231 292.21 26.9331 292.23 26.6531 292.37C26.2531 292.59 25.5531 292.66 24.5531 292.58C23.5731 292.48 22.9131 292.29 22.5731 292.01C22.4331 291.89 22.2631 291.83 22.0631 291.83C21.8831 291.83 21.7331 291.79 21.6131 291.71C21.5331 291.63 21.3631 291.59 21.1031 291.59C20.8431 291.59 20.6231 291.54 20.4431 291.44C20.2431 291.34 20.0831 291.29 19.9631 291.29C19.8231 291.29 19.5731 291.08 19.2131 290.66C19.1331 290.56 19.0131 290.49 18.8531 290.45C18.6531 290.41 18.3531 290.16 17.9531 289.7C17.7931 289.54 17.6531 289.41 17.5331 289.31C17.3931 289.15 17.2731 288.95 17.1731 288.71C17.1131 288.49 17.0331 288.34 16.9331 288.26C16.8531 288.16 16.7031 288.06 16.4831 287.96ZM9.43309 294.17C9.71309 294.11 9.92309 294.11 10.0631 294.17C10.2031 294.21 10.3931 294.37 10.6331 294.65C10.8531 294.89 10.9731 295.07 10.9931 295.19C11.0131 295.31 10.9731 295.54 10.8731 295.88C10.7931 296.18 10.6731 296.38 10.5131 296.48C10.3731 296.56 10.1331 296.58 9.79309 296.54C9.43309 296.52 9.19309 296.48 9.07309 296.42C8.97309 296.36 8.87309 296.22 8.77309 296C8.59309 295.58 8.56309 295.19 8.68309 294.83C8.82309 294.47 9.07309 294.25 9.43309 294.17ZM20.0531 294.26C20.6131 294.12 21.0631 294.26 21.4031 294.68C21.7631 295.1 21.8231 295.58 21.5831 296.12C21.3231 296.76 20.7631 296.9 19.9031 296.54C19.5231 296.4 19.3531 296.01 19.3931 295.37C19.4331 294.71 19.6531 294.34 20.0531 294.26Z" fill="#25442C"/>
</svg>
