<svg width="147" height="125" viewBox="0 0 147 125" fill="none" xmlns="http://www.w3.org/2000/svg">
<path d="M108.9 0.799999C109.6 0.499997 111.3 0.399996 114 0.499994C116.7 0.599993 118.5 0.799993 119.4 1.1C120.3 1.4 121.7 2.4 123.6 4.09999C125.5 5.7 126.45 6.75 126.45 7.25C126.45 7.54999 126.7 8.19999 127.2 9.2C127.7 10.1 128.05 11.7 128.25 14C128.45 16.3 128.8 17.75 129.3 18.35C130.7 20.15 131.5 22.85 131.7 26.45C132.1 31.75 132.85 35.25 133.95 36.95C134.65 37.95 135.1 38.8 135.3 39.5C135.6 40.8 136.25 42.45 137.25 44.45C138.35 46.45 139.3 47.8 140.1 48.5C141.2 49.5 141.75 50.25 141.75 50.75C141.75 51.15 142.15 51.85 142.95 52.85C144.75 55.15 145.55 57.1 145.35 58.7C145.15 59.7 145.3 60.7 145.8 61.7C146.4 62.9 146.65 66.15 146.55 71.45C146.55 76.75 146.15 80.65 145.35 83.15C145.05 84.35 144.95 85.45 145.05 86.45C145.25 87.35 144.9 88.5 144 89.9C143 91.2 142.15 92.95 141.45 95.15C140.75 97.35 139.7 99.15 138.3 100.55C136.9 101.95 136.2 102.8 136.2 103.1C136.2 103.8 134.9 105.1 132.3 107C129.7 108.8 126.85 110.45 123.75 111.95C120.75 113.45 118.55 114.75 117.15 115.85C116.15 116.75 114.95 117.55 113.55 118.25C112.25 119.05 111.2 119.45 110.4 119.45C109 119.45 107.3 120.05 105.3 121.25C103.2 122.55 101 123.3 98.7 123.5C96.4 123.7 92.45 123.55 86.85 123.05C83.95 122.75 81.85 122.8 80.55 123.2C78.25 123.8 75.5 123.8 72.3 123.2C70.6 122.8 69.25 122.75 68.25 123.05C67.45 123.35 66.15 123.4 64.35 123.2C62.95 123 60.95 122.85 58.35 122.75C55.95 122.65 54 122.25 52.5 121.55C51 120.95 49.85 120.65 49.05 120.65C48.35 120.65 47 120.3 45 119.6C43.1 119 41.25 118.75 39.45 118.85C38.25 118.95 37.4 118.95 36.9 118.85C36.5 118.75 35.9 118.45 35.1 117.95C33.9 117.15 32.6 116.55 31.2 116.15C28.3 115.15 24.85 112.95 20.85 109.55C19.05 107.95 17.6 106.95 16.5 106.55C15.4 106.05 14.3 105.15 13.2 103.85C12.2 102.45 11.35 101.5 10.65 101C10.05 100.5 8.95 99.2 7.35 97.1C5.75 95 4.95 93.8 4.95 93.5C4.95 93.2 4.55 92.2 3.75 90.5C2.95 89 2.25 86.25 1.65 82.25C1.05 78.15 0.75 74.65 0.75 71.75V66.95C0.75 66.25 1 65.2 1.5 63.8C1.9 62.5 2.25 60.85 2.55 58.85C2.85 56.95 3.25 55.7 3.75 55.1C4.35 54.5 4.9 53.55 5.4 52.25C5.9 50.85 6.5 49.75 7.2 48.95C7.9 48.25 8.6 47.25 9.3 45.95C9.9 44.55 10.65 43.65 11.55 43.25C13.25 42.35 14.25 41.3 14.55 40.1C14.75 39.3 15.25 38.5 16.05 37.7C16.95 36.9 17.45 35.65 17.55 33.95C17.75 31.85 18.5 28.6 19.8 24.2C21.1 19.8 22.15 17 22.95 15.8C23.45 15.1 23.8 14.3 24 13.4C24.2 12.4 24.7 11.45 25.5 10.55C26.2 9.65 26.9 8.65 27.6 7.54999C28.1 6.45 28.65 5.7 29.25 5.3C29.85 4.8 30.75 4.44999 31.95 4.24999C36.45 3.35 39.45 2.6 40.95 1.99999C42.05 1.59999 43.6 1.64999 45.6 2.14999C47.6 2.65 48.95 3.35 49.65 4.24999C50.45 5.34999 51.35 6.75 52.35 8.45C53.35 10.05 53.85 11 53.85 11.3C53.85 11.8 54.1 12.8 54.6 14.3C54.7 14.7 54.95 15.55 55.35 16.85C55.75 18.05 56 18.9 56.1 19.4C56.9 22.1 58.25 23.95 60.15 24.95C62.15 25.85 64.3 25.7 66.6 24.5C67.5 24.1 68.55 24 69.75 24.2C70.95 24.4 72.05 24.35 73.05 24.05C74.15 23.75 75.75 23.75 77.85 24.05C78.45 24.15 79.45 24.3 80.85 24.5C82.25 24.7 83.15 24.85 83.55 24.95C85.35 25.15 86.75 25.5 87.75 26C88.85 26.6 89.65 26.9 90.15 26.9C90.75 26.9 91.75 25.95 93.15 24.05C94.55 22.15 95.25 20.8 95.25 20C95.25 19.5 95.65 18.4 96.45 16.7C97.35 14.9 98.1 13.65 98.7 12.95C99.2 12.35 99.6 11.65 99.9 10.85C100.5 9.25 101.2 7.75 102 6.35C102.8 4.84999 103.4 4.04999 103.8 3.94999C104.4 3.75 105.25 3.25 106.35 2.45C107.45 1.55 108.3 0.999997 108.9 0.799999ZM116.1 14.45C115.3 13.85 114.65 13.55 114.15 13.55C112.65 13.55 110.9 14.45 108.9 16.25C107 18.05 105.95 19.7 105.75 21.2C104.65 27.7 102.85 31.7 100.35 33.2C99.05 34 98.1 34.85 97.5 35.75C96.9 36.65 96.5 37.95 96.3 39.65C95.6 47.05 92.95 50.75 88.35 50.75C86.15 50.75 84.25 49.75 82.65 47.75C81.05 45.75 80.6 43.7 81.3 41.6C82 39.3 81.4 38.15 79.5 38.15C78 38.15 77.5 39.35 78 41.75C78.3 42.95 78.2 44.3 77.7 45.8C77.2 47.2 77.1 48.35 77.4 49.25C77.6 50.15 77.55 51.75 77.25 54.05C77.05 56.15 76.65 57.55 76.05 58.25C75.55 58.95 74.55 59.45 73.05 59.75C70.05 60.15 67.7 59.55 66 57.95C64.4 56.25 63.6 53.6 63.6 50C63.6 48.4 63.3 47.4 62.7 47C62.1 46.5 61.4 46.7 60.6 47.6C58.3 50.2 55.4 50.25 51.9 47.75C50.7 46.85 49.9 45.95 49.5 45.05C49.2 44.05 49.15 42.3 49.35 39.8C49.45 37.7 49.45 36.4 49.35 35.9C49.35 35.3 49.1 34.45 48.6 33.35C47.8 31.95 47.2 30.1 46.8 27.8C46.3 25.3 45.85 23.7 45.45 23C45.05 22.3 44.75 21.45 44.55 20.45C44.25 18.65 43.6 17.2 42.6 16.1C41.7 14.9 40.7 14.3 39.6 14.3C38.5 14.3 37.3 14.85 36 15.95C34.7 16.95 33.95 18 33.75 19.1C33.45 19.9 33 20.65 32.4 21.35C31.3 22.75 30.75 24.3 30.75 26C30.75 27.3 30.15 31.05 28.95 37.25C28.25 40.65 27.7 42.75 27.3 43.55C26.9 44.35 25.7 45.6 23.7 47.3C21.4 49.4 19.9 51 19.2 52.1C18.6 53 17.6 54.1 16.2 55.4C15.3 56.2 14.75 56.8 14.55 57.2C14.35 57.6 14.2 58.3 14.1 59.3C14.1 60.8 13.9 61.85 13.5 62.45C13.1 63.25 12.8 67.15 12.6 74.15C12.5 79.35 12.95 83.05 13.95 85.25C14.45 86.35 14.8 87.45 15 88.55C15.1 89.65 15.6 90.45 16.5 90.95C17.3 91.45 18.1 92.3 18.9 93.5C19.6 94.7 20.6 95.8 21.9 96.8C23.2 97.8 24.3 98.4 25.2 98.6C26 98.7 27.4 99.4 29.4 100.7C31.4 101.9 32.8 102.9 33.6 103.7C35.3 105.6 37.95 107.15 41.55 108.35C45.15 109.55 49.05 110.2 53.25 110.3C58.85 110.4 63.3 110.9 66.6 111.8C68.2 112.3 69.8 112.4 71.4 112.1C72.9 111.9 75.1 111.85 78 111.95C86.4 112.25 92.7 112.1 96.9 111.5C101.2 110.9 104.9 109.55 108 107.45C109.3 106.65 110.8 106.05 112.5 105.65C116.4 104.55 118.7 103.35 119.4 102.05C119.8 101.35 120.8 100.45 122.4 99.35C124.2 98.15 125.45 97.2 126.15 96.5C126.95 95.8 127.95 94.6 129.15 92.9C130.65 91 131.55 89.75 131.85 89.15C132.15 88.45 132.3 87.7 132.3 86.9C132.3 86 132.85 84.45 133.95 82.25C134.75 80.45 135.2 79.2 135.3 78.5C135.4 77.7 135.25 76.8 134.85 75.8C134.45 74.9 134.4 74 134.7 73.1C135.5 70.7 135.5 67.7 134.7 64.1C133.9 60.4 132.75 57.9 131.25 56.6C130.15 55.6 129.45 54.7 129.15 53.9C128.95 53 128.5 52.15 127.8 51.35C127.1 50.55 126.65 49.65 126.45 48.65C126.05 47.45 125.5 46.5 124.8 45.8C124.1 45 123.6 43.9 123.3 42.5C123.1 41.2 122.85 40.3 122.55 39.8C122.25 39.2 122.1 38.25 122.1 36.95C122.1 33.35 121.5 30.25 120.3 27.65C119.7 26.55 119.25 25.2 118.95 23.6C118.75 22 118.45 20.6 118.05 19.4C117.65 18.2 117.45 17.2 117.45 16.4C117.45 15.6 117 14.95 116.1 14.45ZM42 68.45C43.3 67.55 44.45 67.2 45.45 67.4C46.55 67.6 47.75 68.35 49.05 69.65C50.05 70.75 50.65 71.55 50.85 72.05C51.05 72.45 51.15 73.05 51.15 73.85C50.95 76.15 50.35 77.75 49.35 78.65C48.45 79.55 47.05 79.9 45.15 79.7C43.35 79.6 42.15 79.4 41.55 79.1C41.05 78.8 40.55 78.15 40.05 77.15C39.25 75.35 39 73.65 39.3 72.05C39.7 70.45 40.6 69.25 42 68.45ZM98.4 67.85C99.5 67.65 100.75 68.2 102.15 69.5C103.65 70.8 104.55 72.1 104.85 73.4C105.05 74.8 104.75 76.3 103.95 77.9C103.15 79.5 102.25 80.35 101.25 80.45C98.45 80.85 96.3 80.25 94.8 78.65C93.3 77.05 92.8 74.9 93.3 72.2C93.5 70.7 93.95 69.65 94.65 69.05C95.45 68.45 96.7 68.05 98.4 67.85Z" fill="white"/>
</svg>
