<svg width="147" height="124" viewBox="0 0 147 124" fill="none" xmlns="http://www.w3.org/2000/svg">
<path d="M108.9 0.949997C109.5 0.749994 111.1 0.699995 113.7 0.799999C116.4 0.799999 118.25 0.949997 119.25 1.24999C120.25 1.55 121.7 2.5 123.6 4.09999C125.5 5.6 126.45 6.6 126.45 7.1C126.45 7.49999 126.7 8.24999 127.2 9.35C127.7 10.55 128 12.2 128.1 14.3C128.3 16.5 128.75 18.15 129.45 19.25C130.35 20.45 130.95 21.8 131.25 23.3C131.55 24.8 131.7 27.35 131.7 30.95C131.8 34.75 132.05 37.3 132.45 38.6C132.85 39.9 133.8 41.1 135.3 42.2C136.1 42.9 136.85 43.95 137.55 45.35C138.25 46.75 139.1 47.95 140.1 48.95C141.1 50.05 141.6 50.75 141.6 51.05C141.6 51.35 142.2 52.3 143.4 53.9C144.6 55.5 145.2 57 145.2 58.4C145.2 59.8 145.4 60.9 145.8 61.7C146.3 62.6 146.55 65.55 146.55 70.55C146.55 75.55 146.3 79.1 145.8 81.2C145.3 83.1 145 84.75 144.9 86.15C144.9 87.45 144.35 89.05 143.25 90.95C142.25 92.85 141.5 94.6 141 96.2C140.6 97.8 139.85 99.1 138.75 100.1C137.55 101.2 136.7 102.3 136.2 103.4C135.5 104.5 134.7 105.3 133.8 105.8C132.9 106.4 131.75 107.25 130.35 108.35C128.75 109.45 126.45 110.75 123.45 112.25C120.45 113.75 118.5 114.85 117.6 115.55C114.9 117.85 112.35 119.2 109.95 119.6C108.05 120 106.3 120.65 104.7 121.55C102 123.15 98.55 123.8 94.35 123.5C92.15 123.4 89.1 123.35 85.2 123.35C79.9 123.35 74.75 123.3 69.75 123.2C68.45 123.2 67.35 123.25 66.45 123.35C64.75 123.45 62.2 123.3 58.8 122.9C55.5 122.6 53.5 122.25 52.8 121.85C51.7 121.35 50.3 120.95 48.6 120.65C47 120.35 45.7 120 44.7 119.6C43.7 119.2 42.1 119 39.9 119C37.8 119 36.15 118.65 34.95 117.95C33.95 117.25 32.7 116.65 31.2 116.15C30.2 115.85 28.55 115.05 26.25 113.75C24.05 112.45 22.65 111.5 22.05 110.9C20.55 109.1 18.45 107.55 15.75 106.25C14.55 105.65 13.95 105.25 13.95 105.05C13.95 104.75 13 103.6 11.1 101.6C7.9 98.1 5.65 95.05 4.35 92.45C3.05 89.75 2.1 86.1 1.5 81.5C1 77.9 0.75 74.3 0.75 70.7C0.75 67 1 64.7 1.5 63.8C1.9 63 2.25 61.5 2.55 59.3C2.85 57.1 3.25 55.75 3.75 55.25C4.25 54.75 4.85 53.7 5.55 52.1C6.15 50.5 6.75 49.4 7.35 48.8C8.05 48.1 8.6 47.15 9 45.95C9.4 44.85 10.3 43.55 11.7 42.05C14.4 39.45 16 37.75 16.5 36.95C17.1 36.15 17.4 35.3 17.4 34.4C17.4 32.9 18.1 29.75 19.5 24.95C21 20.05 22.15 17.05 22.95 15.95C23.35 15.25 23.65 14.4 23.85 13.4C24.05 12.5 24.5 11.65 25.2 10.85C25.9 10.15 26.6 9.15 27.3 7.85C28 6.45 28.8 5.55 29.7 5.15C30.7 4.65 33.05 4.05 36.75 3.34999C37.95 3.15 39.3 2.75 40.8 2.14999C42.2 1.54999 43.3 1.44999 44.1 1.84999C45 2.15 46.05 2.5 47.25 2.9C48.05 3.1 48.85 3.65 49.65 4.55C50.55 5.45 51 6.2 51 6.79999C51 7 51.4 7.5 52.2 8.29999C53 9.19999 53.45 9.99999 53.55 10.7C53.95 12.8 54.65 15.4 55.65 18.5C56.75 21.6 57.5 23.4 57.9 23.9C58.8 24.8 60.15 25.35 61.95 25.55C63.75 25.65 65.25 25.4 66.45 24.8C66.95 24.5 68.25 24.3 70.35 24.2C72.15 24.2 73.65 24.15 74.85 24.05C75.75 23.95 77.8 24.15 81 24.65C84.2 25.15 86.35 25.55 87.45 25.85C88.75 26.25 89.7 26.35 90.3 26.15C90.9 26.05 91.8 25.2 93 23.6C94.3 21.9 95.1 20.5 95.4 19.4C96.1 16.8 97.2 14.7 98.7 13.1C99.2 12.5 99.55 11.85 99.75 11.15C99.95 10.25 100.5 9 101.4 7.39999C102.3 5.69999 103 4.69999 103.5 4.4C106.3 2.39999 108.1 1.24999 108.9 0.949997ZM42.15 15.65C41.35 14.75 40.5 14.35 39.6 14.45C38.7 14.45 37.5 14.95 36 15.95C34.9 16.75 34.15 17.7 33.75 18.8C33.35 19.9 32.75 21 31.95 22.1C31.15 23.3 30.75 24.35 30.75 25.25C30.75 27.95 30.2 31.55 29.1 36.05C28.9 37.15 28.4 38.4 27.6 39.8C26.9 41.2 26.25 42.15 25.65 42.65C25.15 43.05 24.7 43.95 24.3 45.35C23.9 46.75 23 48.2 21.6 49.7C17.6 53.9 15.3 56.4 14.7 57.2C14.2 57.9 13.95 58.75 13.95 59.75C13.95 60.85 13.7 62 13.2 63.2C12.8 64.4 12.7 65.6 12.9 66.8C13.1 68 13.05 69.4 12.75 71C12.45 72.6 12.4 75.1 12.6 78.5C12.9 81.8 13.35 84.1 13.95 85.4C14.45 86.6 14.75 87.7 14.85 88.7C15.05 89.7 15.45 90.4 16.05 90.8C16.85 91.5 18.4 93.15 20.7 95.75C22 97.25 23.5 98.25 25.2 98.75C27.9 99.55 30.85 101.4 34.05 104.3C36.15 106.2 39.05 107.7 42.75 108.8C46.55 110 50.4 110.5 54.3 110.3C55.8 110.3 57.8 110.4 60.3 110.6C62.8 110.9 64.4 111.2 65.1 111.5C67.8 112.6 69.7 112.9 70.8 112.4C71.8 112.1 73.6 111.9 76.2 111.8C78.8 111.7 80.65 111.85 81.75 112.25C82.85 112.55 84.6 112.65 87 112.55C89.5 112.45 90.95 112.2 91.35 111.8C92.05 110.9 91.45 109.9 89.55 108.8C88.35 108.2 87.45 107.5 86.85 106.7C84.55 103.5 82.75 101.25 81.45 99.95C80.15 98.65 79.5 97.7 79.5 97.1C79.5 96.5 79.25 95.8 78.75 95C78.25 94.2 77.9 93.5 77.7 92.9C77.6 92.3 77.25 91.65 76.65 90.95C76.05 90.35 75.45 89.55 74.85 88.55C74.45 87.65 73.95 86.7 73.35 85.7C72.75 84.7 72.45 83.45 72.45 81.95C72.45 80.45 72.2 79.35 71.7 78.65C71.2 77.85 70.95 77.1 70.95 76.4C70.95 75.7 70.75 74.8 70.35 73.7C69.95 72.5 69.7 69.4 69.6 64.4C69.4 55.9 69.35 50.6 69.45 48.5C69.65 46.3 70.2 44.35 71.1 42.65C72.3 40.35 72.3 38.65 71.1 37.55C69.9 36.35 67.8 36 64.8 36.5C59.2 37.7 54.95 37.65 52.05 36.35C49.25 35.05 47.5 32.5 46.8 28.7C46.5 26.6 46.05 24.7 45.45 23C44.75 21 44.25 19.55 43.95 18.65C43.65 17.55 43.05 16.55 42.15 15.65ZM100.2 70.85C99.6 70.35 99.2 70.15 99 70.25C97.3 70.55 96.2 71.05 95.7 71.75C95.3 72.35 95.2 73.45 95.4 75.05C95.5 76.05 95.8 76.75 96.3 77.15C96.8 77.45 97.85 77.65 99.45 77.75C101.55 77.85 102.6 77.15 102.6 75.65C102.6 74.85 102.3 73.95 101.7 72.95C101.2 71.95 100.7 71.25 100.2 70.85ZM43.35 67.85C45.35 67.35 47.1 67.8 48.6 69.2C50.1 70.6 50.85 72.25 50.85 74.15C50.85 76.05 50.15 77.75 48.75 79.25C48.25 79.75 47 79.95 45 79.85C43.1 79.65 41.8 79.25 41.1 78.65C39.3 77.35 38.7 75.35 39.3 72.65C39.9 69.95 41.25 68.35 43.35 67.85Z" fill="white"/>
</svg>
