<svg width="75" height="72" viewBox="0 0 75 72" fill="none" xmlns="http://www.w3.org/2000/svg">
<path d="M33.012 3.63526C34.5087 -0.971292 41.0258 -0.9713 42.5226 3.63525L47.8747 20.1075C48.5441 22.1676 50.4639 23.5624 52.63 23.5624H69.95C74.7936 23.5624 76.8075 29.7605 72.8889 32.6075L58.8767 42.7879C57.1243 44.0612 56.391 46.318 57.0604 48.3781L62.4126 64.8504C63.9093 69.4569 58.6369 73.2875 54.7183 70.4405L40.7062 60.2601C38.9538 58.9869 36.5808 58.9869 34.8283 60.2601L20.8162 70.4405C16.8976 73.2875 11.6252 69.4569 13.122 64.8504L18.4742 48.3781C19.1435 46.318 18.4102 44.0612 16.6578 42.7879L2.64566 32.6075C-1.27291 29.7605 0.740963 23.5624 5.58458 23.5624H22.9045C25.0707 23.5624 26.9905 22.1676 27.6598 20.1075L33.012 3.63526Z" fill="#D9D9D9"/>
</svg>
