<svg width="40" height="32" viewBox="0 0 40 32" fill="none" xmlns="http://www.w3.org/2000/svg">
<path d="M14.9619 26.7598L15.4851 25.354L14.8861 25.1311L14.3105 25.4086L14.9619 26.7598ZM5 30L3.93934 28.9393L0.915628 31.9631L5.16565 31.4908L5 30ZM8.48926 22.4629L9.98368 22.5921L10.0394 21.9476L9.60891 21.4647L8.48926 22.4629ZM22 2V3.5C30.6372 3.5 37 8.96227 37 15H38.5H40C40 6.67833 31.5882 0.5 22 0.5V2ZM38.5 15H37C37 21.0377 30.6372 26.5 22 26.5V28V29.5C31.5882 29.5 40 23.3217 40 15H38.5ZM22 28V26.5C19.6587 26.5 17.4505 26.0854 15.4851 25.354L14.9619 26.7598L14.4387 28.1656C16.7431 29.0231 19.3059 29.5 22 29.5V28ZM14.9619 26.7598L14.3105 25.4086C9.87462 27.5473 6.09431 28.3692 4.83435 28.5092L5 30L5.16565 31.4908C6.7934 31.31 10.9007 30.3831 15.6134 28.1109L14.9619 26.7598ZM5 30L6.06066 31.0607C8.8565 28.2648 9.78804 24.8549 9.98368 22.5921L8.48926 22.4629L6.99483 22.3337C6.84142 24.108 6.10166 26.777 3.93934 28.9393L5 30ZM8.48926 22.4629L9.60891 21.4647C7.93644 19.5887 7 17.3607 7 15H5.5H4C4 18.194 5.27584 21.1125 7.3696 23.4611L8.48926 22.4629ZM5.5 15H7C7 8.96227 13.3628 3.5 22 3.5V2V0.5C12.4118 0.5 4 6.67833 4 15H5.5Z" fill="#777777"/>
</svg>
