<svg width="193" height="115" viewBox="0 0 193 115" fill="none" xmlns="http://www.w3.org/2000/svg">
<mask id="path-1-outside-1_949_1164" maskUnits="userSpaceOnUse" x="31" y="19" width="138" height="49" fill="black">
<rect fill="white" x="31" y="19" width="138" height="49"/>
<path d="M46.399 66.768C42.431 66.768 39.1457 65.168 36.543 61.968C33.9403 58.7253 32.639 54.5013 32.639 49.296C32.639 44.0907 33.535 39.3547 35.327 35.088C37.119 30.7787 39.679 27.28 43.007 24.592C46.335 21.904 49.8763 20.56 53.631 20.56C57.4283 20.56 60.479 21.4133 62.783 23.12C65.1297 24.8267 66.303 26.8747 66.303 29.264C66.303 31.6107 65.599 33.616 64.191 35.28C62.8257 35.28 61.2897 34.9813 59.583 34.384C57.8763 33.7867 56.5963 33.0613 55.743 32.208L56.959 25.744C55.935 25.104 54.591 24.784 52.927 24.784C50.3243 24.784 48.0203 27.024 46.015 31.504C44.0097 35.9413 43.007 41.424 43.007 47.952C43.007 52.2613 43.711 55.3973 45.119 57.36C46.5697 59.28 48.319 60.24 50.367 60.24C53.7377 60.24 56.9803 58.6613 60.095 55.504L62.719 57.872C62.2497 58.5547 61.3963 59.4933 60.159 60.688C58.9217 61.8827 57.7057 62.8853 56.511 63.696C55.3163 64.464 53.8017 65.168 51.967 65.808C50.1323 66.448 48.2763 66.768 46.399 66.768ZM74.9425 66.768C71.9985 66.768 69.6945 65.744 68.0305 63.696C66.3665 61.6053 65.5345 58.704 65.5345 54.992C65.5345 50.256 66.7932 46.1813 69.3105 42.768C71.8705 39.3547 75.3905 37.648 79.8705 37.648L82.1745 37.776C82.8998 37.392 83.7105 37.2 84.6065 37.2C87.9772 37.2 89.6625 40.3787 89.6625 46.736C91.4118 46.6507 93.1825 46.416 94.9745 46.032L95.9985 45.776L96.3825 48.272C94.9745 48.8693 93.0758 49.4027 90.6865 49.872L89.4065 50.128C88.5958 54.608 86.9532 58.512 84.4785 61.84C82.0038 65.1253 78.8252 66.768 74.9425 66.768ZM78.3985 61.264C80.1905 61.264 81.7905 60.112 83.1985 57.808C84.6492 55.504 85.6518 53.072 86.2065 50.512C81.6412 50.512 79.3585 48.8053 79.3585 45.392C79.3585 44.0267 79.6358 42.7467 80.1905 41.552L80.5105 40.912C80.3398 40.8267 80.1265 40.784 79.8705 40.784C79.6145 40.784 79.4225 40.8267 79.2945 40.912C78.2278 41.5947 77.2252 43.1947 76.2865 45.712C75.3478 48.2293 74.8785 51.1093 74.8785 54.352C74.8785 58.96 76.0518 61.264 78.3985 61.264ZM98.6905 37.648C100.568 37.648 101.955 38.032 102.851 38.8C103.789 39.568 104.259 41.1467 104.259 43.536C104.259 44.816 103.875 47.44 103.107 51.408C102.339 55.3333 101.955 57.7227 101.955 58.576C101.955 60.2827 102.296 61.136 102.979 61.136C104.6 61.136 106.371 59.9413 108.291 57.552C110.253 55.12 111.277 53.0933 111.363 51.472L107.01 46.608C107.181 44.7733 107.629 43.1093 108.355 41.616C109.08 40.1227 109.763 39.0773 110.403 38.48L111.299 37.648C113.133 37.648 114.52 38.1387 115.459 39.12C116.397 40.1013 116.867 41.2533 116.867 42.576C116.867 45.9467 116.035 49.5093 114.371 53.264C112.707 57.0187 110.488 60.2187 107.715 62.864C104.941 65.4667 102.125 66.768 99.2665 66.768C97.4745 66.768 96.0878 66.2133 95.1065 65.104C94.1678 63.9947 93.6985 62.544 93.6985 60.752C93.6985 58.9173 93.8265 56.464 94.0825 53.392C94.3812 50.32 94.5305 47.2693 94.5305 44.24C94.5305 43.5573 94.2745 42.7467 93.7625 41.808C93.2932 40.8693 92.8025 40.1227 92.2905 39.568L92.4825 38.8C94.7865 38.032 96.8558 37.648 98.6905 37.648ZM117.414 54.928C117.414 49.5947 119.014 45.392 122.214 42.32C125.457 39.2053 129.126 37.648 133.222 37.648C135.739 37.648 137.809 38.2667 139.43 39.504C141.051 40.7413 141.862 42.4053 141.862 44.496C141.862 46.544 141.329 48.272 140.262 49.68C139.238 51.088 137.979 52.176 136.486 52.944C133.457 54.4373 130.683 55.376 128.166 55.76L126.63 55.952C126.929 59.9627 128.571 61.968 131.558 61.968C132.582 61.968 133.67 61.712 134.822 61.2C135.974 60.688 136.87 60.176 137.51 59.664L138.47 58.896L140.006 60.944C139.665 61.4133 138.982 62.032 137.958 62.8C136.934 63.568 135.974 64.208 135.078 64.72C132.603 66.0853 129.894 66.768 126.95 66.768C124.006 66.768 121.681 65.7227 119.974 63.632C118.267 61.5413 117.414 58.64 117.414 54.928ZM126.566 52.816C128.742 52.432 130.47 51.5147 131.75 50.064C133.03 48.6133 133.67 46.736 133.67 44.432C133.67 42.128 132.987 40.976 131.622 40.976C130.001 40.976 128.742 42.3627 127.846 45.136C126.993 47.8667 126.566 50.4267 126.566 52.816ZM144.513 66.192H144.065C143.979 65.8507 143.937 65.0827 143.937 63.888C143.937 62.6507 144.513 59.3653 145.665 54.032C146.817 48.6987 147.393 45.648 147.393 44.88C147.393 43.5573 146.795 42.1067 145.601 40.528L145.025 39.76L145.089 38.928C147.393 38.288 151.083 37.968 156.161 37.968C156.673 39.0773 156.929 40.6347 156.929 42.64C157.398 41.872 158.379 40.848 159.873 39.568C161.366 38.288 162.902 37.648 164.481 37.648C166.785 37.648 167.937 39.6533 167.937 43.664C167.723 43.92 167.425 44.2613 167.041 44.688C166.699 45.072 165.974 45.6267 164.865 46.352C163.798 47.0773 162.753 47.5253 161.729 47.696C161.686 47.696 161.323 47.12 160.641 45.968C159.958 44.816 159.446 44.24 159.105 44.24C158.038 44.624 157.099 45.264 156.289 46.16C154.326 54.992 153.345 60.7093 153.345 63.312C153.345 64.2507 153.366 64.912 153.409 65.296C151.915 65.8933 148.95 66.192 144.513 66.192Z"/>
</mask>
<path d="M46.399 66.768C42.431 66.768 39.1457 65.168 36.543 61.968C33.9403 58.7253 32.639 54.5013 32.639 49.296C32.639 44.0907 33.535 39.3547 35.327 35.088C37.119 30.7787 39.679 27.28 43.007 24.592C46.335 21.904 49.8763 20.56 53.631 20.56C57.4283 20.56 60.479 21.4133 62.783 23.12C65.1297 24.8267 66.303 26.8747 66.303 29.264C66.303 31.6107 65.599 33.616 64.191 35.28C62.8257 35.28 61.2897 34.9813 59.583 34.384C57.8763 33.7867 56.5963 33.0613 55.743 32.208L56.959 25.744C55.935 25.104 54.591 24.784 52.927 24.784C50.3243 24.784 48.0203 27.024 46.015 31.504C44.0097 35.9413 43.007 41.424 43.007 47.952C43.007 52.2613 43.711 55.3973 45.119 57.36C46.5697 59.28 48.319 60.24 50.367 60.24C53.7377 60.24 56.9803 58.6613 60.095 55.504L62.719 57.872C62.2497 58.5547 61.3963 59.4933 60.159 60.688C58.9217 61.8827 57.7057 62.8853 56.511 63.696C55.3163 64.464 53.8017 65.168 51.967 65.808C50.1323 66.448 48.2763 66.768 46.399 66.768ZM74.9425 66.768C71.9985 66.768 69.6945 65.744 68.0305 63.696C66.3665 61.6053 65.5345 58.704 65.5345 54.992C65.5345 50.256 66.7932 46.1813 69.3105 42.768C71.8705 39.3547 75.3905 37.648 79.8705 37.648L82.1745 37.776C82.8998 37.392 83.7105 37.2 84.6065 37.2C87.9772 37.2 89.6625 40.3787 89.6625 46.736C91.4118 46.6507 93.1825 46.416 94.9745 46.032L95.9985 45.776L96.3825 48.272C94.9745 48.8693 93.0758 49.4027 90.6865 49.872L89.4065 50.128C88.5958 54.608 86.9532 58.512 84.4785 61.84C82.0038 65.1253 78.8252 66.768 74.9425 66.768ZM78.3985 61.264C80.1905 61.264 81.7905 60.112 83.1985 57.808C84.6492 55.504 85.6518 53.072 86.2065 50.512C81.6412 50.512 79.3585 48.8053 79.3585 45.392C79.3585 44.0267 79.6358 42.7467 80.1905 41.552L80.5105 40.912C80.3398 40.8267 80.1265 40.784 79.8705 40.784C79.6145 40.784 79.4225 40.8267 79.2945 40.912C78.2278 41.5947 77.2252 43.1947 76.2865 45.712C75.3478 48.2293 74.8785 51.1093 74.8785 54.352C74.8785 58.96 76.0518 61.264 78.3985 61.264ZM98.6905 37.648C100.568 37.648 101.955 38.032 102.851 38.8C103.789 39.568 104.259 41.1467 104.259 43.536C104.259 44.816 103.875 47.44 103.107 51.408C102.339 55.3333 101.955 57.7227 101.955 58.576C101.955 60.2827 102.296 61.136 102.979 61.136C104.6 61.136 106.371 59.9413 108.291 57.552C110.253 55.12 111.277 53.0933 111.363 51.472L107.01 46.608C107.181 44.7733 107.629 43.1093 108.355 41.616C109.08 40.1227 109.763 39.0773 110.403 38.48L111.299 37.648C113.133 37.648 114.52 38.1387 115.459 39.12C116.397 40.1013 116.867 41.2533 116.867 42.576C116.867 45.9467 116.035 49.5093 114.371 53.264C112.707 57.0187 110.488 60.2187 107.715 62.864C104.941 65.4667 102.125 66.768 99.2665 66.768C97.4745 66.768 96.0878 66.2133 95.1065 65.104C94.1678 63.9947 93.6985 62.544 93.6985 60.752C93.6985 58.9173 93.8265 56.464 94.0825 53.392C94.3812 50.32 94.5305 47.2693 94.5305 44.24C94.5305 43.5573 94.2745 42.7467 93.7625 41.808C93.2932 40.8693 92.8025 40.1227 92.2905 39.568L92.4825 38.8C94.7865 38.032 96.8558 37.648 98.6905 37.648ZM117.414 54.928C117.414 49.5947 119.014 45.392 122.214 42.32C125.457 39.2053 129.126 37.648 133.222 37.648C135.739 37.648 137.809 38.2667 139.43 39.504C141.051 40.7413 141.862 42.4053 141.862 44.496C141.862 46.544 141.329 48.272 140.262 49.68C139.238 51.088 137.979 52.176 136.486 52.944C133.457 54.4373 130.683 55.376 128.166 55.76L126.63 55.952C126.929 59.9627 128.571 61.968 131.558 61.968C132.582 61.968 133.67 61.712 134.822 61.2C135.974 60.688 136.87 60.176 137.51 59.664L138.47 58.896L140.006 60.944C139.665 61.4133 138.982 62.032 137.958 62.8C136.934 63.568 135.974 64.208 135.078 64.72C132.603 66.0853 129.894 66.768 126.95 66.768C124.006 66.768 121.681 65.7227 119.974 63.632C118.267 61.5413 117.414 58.64 117.414 54.928ZM126.566 52.816C128.742 52.432 130.47 51.5147 131.75 50.064C133.03 48.6133 133.67 46.736 133.67 44.432C133.67 42.128 132.987 40.976 131.622 40.976C130.001 40.976 128.742 42.3627 127.846 45.136C126.993 47.8667 126.566 50.4267 126.566 52.816ZM144.513 66.192H144.065C143.979 65.8507 143.937 65.0827 143.937 63.888C143.937 62.6507 144.513 59.3653 145.665 54.032C146.817 48.6987 147.393 45.648 147.393 44.88C147.393 43.5573 146.795 42.1067 145.601 40.528L145.025 39.76L145.089 38.928C147.393 38.288 151.083 37.968 156.161 37.968C156.673 39.0773 156.929 40.6347 156.929 42.64C157.398 41.872 158.379 40.848 159.873 39.568C161.366 38.288 162.902 37.648 164.481 37.648C166.785 37.648 167.937 39.6533 167.937 43.664C167.723 43.92 167.425 44.2613 167.041 44.688C166.699 45.072 165.974 45.6267 164.865 46.352C163.798 47.0773 162.753 47.5253 161.729 47.696C161.686 47.696 161.323 47.12 160.641 45.968C159.958 44.816 159.446 44.24 159.105 44.24C158.038 44.624 157.099 45.264 156.289 46.16C154.326 54.992 153.345 60.7093 153.345 63.312C153.345 64.2507 153.366 64.912 153.409 65.296C151.915 65.8933 148.95 66.192 144.513 66.192Z" fill="#FFEEBC"/>
<path d="M36.543 61.968L35.7631 62.594L35.7672 62.599L36.543 61.968ZM35.327 35.088L36.249 35.4752L36.2503 35.472L35.327 35.088ZM43.007 24.592L43.6353 25.3699L43.6353 25.3699L43.007 24.592ZM62.783 23.12L62.1878 23.9236L62.1948 23.9287L62.783 23.12ZM64.191 35.28V36.28H64.6548L64.9544 35.9259L64.191 35.28ZM59.583 34.384L59.9134 33.4401L59.9134 33.4401L59.583 34.384ZM55.743 32.208L54.7602 32.0231L54.6627 32.5419L55.0359 32.9151L55.743 32.208ZM56.959 25.744L57.9418 25.9289L58.068 25.2579L57.489 24.896L56.959 25.744ZM46.015 31.504L46.9263 31.9158L46.9277 31.9126L46.015 31.504ZM45.119 57.36L44.3065 57.9429L44.3137 57.953L44.3211 57.9628L45.119 57.36ZM60.095 55.504L60.765 54.7616L60.0548 54.1208L59.3831 54.8017L60.095 55.504ZM62.719 57.872L63.543 58.4385L64.0394 57.7166L63.389 57.1296L62.719 57.872ZM60.159 60.688L60.8536 61.4074L60.8536 61.4074L60.159 60.688ZM56.511 63.696L57.0518 64.5372L57.0622 64.5305L57.0725 64.5235L56.511 63.696ZM51.967 65.808L52.2964 66.7522L52.2964 66.7522L51.967 65.808ZM46.399 66.768V65.768C42.7454 65.768 39.7402 64.3142 37.3188 61.337L36.543 61.968L35.7672 62.599C38.5511 66.0218 42.1166 67.768 46.399 67.768V66.768ZM36.543 61.968L37.3229 61.3421C34.8955 58.3178 33.639 54.3324 33.639 49.296H32.639H31.639C31.639 54.6703 32.9852 59.1329 35.7631 62.5939L36.543 61.968ZM32.639 49.296H33.639C33.639 44.2071 34.5145 39.6049 36.249 35.4752L35.327 35.088L34.405 34.7008C32.5555 39.1044 31.639 43.9743 31.639 49.296H32.639ZM35.327 35.088L36.2503 35.472C37.9843 31.3021 40.4485 27.9439 43.6353 25.3699L43.007 24.592L42.3787 23.8141C38.9095 26.6161 36.2537 30.2552 34.4037 34.704L35.327 35.088ZM43.007 24.592L43.6353 25.3699C46.8116 22.8045 50.1365 21.56 53.631 21.56V20.56V19.56C49.6162 19.56 45.8584 21.0035 42.3787 23.8141L43.007 24.592ZM53.631 20.56V21.56C57.2831 21.56 60.1043 22.3802 62.1878 23.9236L62.783 23.12L63.3782 22.3164C60.8537 20.4464 57.5736 19.56 53.631 19.56V20.56ZM62.783 23.12L62.1948 23.9287C64.3452 25.4927 65.303 27.2647 65.303 29.264H66.303H67.303C67.303 26.4846 65.9141 24.1607 63.3712 22.3113L62.783 23.12ZM66.303 29.264H65.303C65.303 31.3937 64.6707 33.165 63.4276 34.6341L64.191 35.28L64.9544 35.9259C66.5273 34.067 67.303 31.8277 67.303 29.264H66.303ZM64.191 35.28V34.28C62.968 34.28 61.5462 34.0116 59.9134 33.4401L59.583 34.384L59.2527 35.3279C61.0331 35.951 62.6834 36.28 64.191 36.28V35.28ZM59.583 34.384L59.9134 33.4401C58.2839 32.8698 57.1576 32.2084 56.4501 31.5009L55.743 32.208L55.0359 32.9151C56.035 33.9142 57.4688 34.7035 59.2527 35.3279L59.583 34.384ZM55.743 32.208L56.7258 32.3929L57.9418 25.9289L56.959 25.744L55.9762 25.5591L54.7602 32.0231L55.743 32.208ZM56.959 25.744L57.489 24.896C56.2568 24.1258 54.7102 23.784 52.927 23.784V24.784V25.784C54.4718 25.784 55.6132 26.0821 56.429 26.592L56.959 25.744ZM52.927 24.784V23.784C49.6673 23.784 47.1228 26.5815 45.1023 31.0954L46.015 31.504L46.9277 31.9126C48.9179 27.4665 50.9814 25.784 52.927 25.784V24.784ZM46.015 31.504L45.1037 31.0922C43.0236 35.695 42.007 41.3278 42.007 47.952H43.007H44.007C44.007 41.5202 44.9957 36.1876 46.9263 31.9158L46.015 31.504ZM43.007 47.952H42.007C42.007 52.3264 42.7133 55.7221 44.3065 57.9429L45.119 57.36L45.9315 56.7771C44.7087 55.0726 44.007 52.1963 44.007 47.952H43.007ZM45.119 57.36L44.3211 57.9628C45.9234 60.0835 47.9483 61.24 50.367 61.24V60.24V59.24C48.6897 59.24 47.2159 58.4765 45.9169 56.7572L45.119 57.36ZM50.367 60.24V61.24C54.0819 61.24 57.566 59.4915 60.8069 56.2063L60.095 55.504L59.3831 54.8017C56.3946 57.8311 53.3934 59.24 50.367 59.24V60.24ZM60.095 55.504L59.425 56.2464L62.049 58.6144L62.719 57.872L63.389 57.1296L60.765 54.7616L60.095 55.504ZM62.719 57.872L61.895 57.3055C61.4856 57.9009 60.6934 58.7819 59.4644 59.9686L60.159 60.688L60.8536 61.4074C62.0992 60.2047 63.0137 59.2084 63.543 58.4385L62.719 57.872ZM60.159 60.688L59.4644 59.9686C58.2607 61.1308 57.0888 62.0954 55.9495 62.8685L56.511 63.696L57.0725 64.5235C58.3225 63.6753 59.5826 62.6345 60.8536 61.4074L60.159 60.688ZM56.511 63.696L55.9702 62.8548C54.8609 63.568 53.4232 64.2409 51.6376 64.8638L51.967 65.808L52.2964 66.7522C54.1802 66.0951 55.7718 65.36 57.0518 64.5372L56.511 63.696ZM51.967 65.808L51.6376 64.8638C49.9051 65.4682 48.1603 65.768 46.399 65.768V66.768V67.768C48.3924 67.768 50.3596 67.4278 52.2964 66.7522L51.967 65.808ZM68.0305 63.696L67.248 64.3188L67.2544 64.3266L68.0305 63.696ZM69.3105 42.768L68.5105 42.168L68.5057 42.1745L69.3105 42.768ZM79.8705 37.648L79.926 36.6495L79.8983 36.648H79.8705V37.648ZM82.1745 37.776L82.119 38.7745L82.3967 38.7899L82.6424 38.6598L82.1745 37.776ZM89.6625 46.736H88.6625V47.786L89.7112 47.7348L89.6625 46.736ZM94.9745 46.032L95.184 47.0098L95.2006 47.0063L95.217 47.0021L94.9745 46.032ZM95.9985 45.776L96.9869 45.6239L96.8201 44.5398L95.756 44.8059L95.9985 45.776ZM96.3825 48.272L96.773 49.1926L97.4892 48.8888L97.3709 48.1199L96.3825 48.272ZM90.6865 49.872L90.4938 48.8907L90.4904 48.8914L90.6865 49.872ZM89.4065 50.128L89.2104 49.1474L88.5436 49.2808L88.4225 49.9499L89.4065 50.128ZM84.4785 61.84L85.2773 62.4417L85.281 62.4367L84.4785 61.84ZM83.1985 57.808L82.3522 57.2751L82.3452 57.2865L83.1985 57.808ZM86.2065 50.512L87.1838 50.7238L87.4464 49.512H86.2065V50.512ZM80.1905 41.552L79.2961 41.1048L79.2896 41.1177L79.2835 41.1309L80.1905 41.552ZM80.5105 40.912L81.4049 41.3592L81.8521 40.4648L80.9577 40.0176L80.5105 40.912ZM79.2945 40.912L79.8336 41.7543L79.8414 41.7492L79.8492 41.744L79.2945 40.912ZM76.2865 45.712L77.2235 46.0614L77.2235 46.0614L76.2865 45.712ZM74.9425 66.768V65.768C72.2602 65.768 70.2572 64.8507 68.8066 63.0654L68.0305 63.696L67.2544 64.3266C69.1318 66.6373 71.7368 67.768 74.9425 67.768V66.768ZM68.0305 63.696L68.8129 63.0733C67.3357 61.2173 66.5345 58.5646 66.5345 54.992H65.5345H64.5345C64.5345 58.8434 65.3973 61.9934 67.2481 64.3187L68.0305 63.696ZM65.5345 54.992H66.5345C66.5345 50.4435 67.7394 46.583 70.1153 43.3615L69.3105 42.768L68.5057 42.1745C65.8469 45.7796 64.5345 50.0685 64.5345 54.992H65.5345ZM69.3105 42.768L70.1105 43.368C72.4709 40.2208 75.6869 38.648 79.8705 38.648V37.648V36.648C75.0941 36.648 71.2701 38.4885 68.5105 42.168L69.3105 42.768ZM79.8705 37.648L79.815 38.6465L82.119 38.7745L82.1745 37.776L82.23 36.7775L79.926 36.6495L79.8705 37.648ZM82.1745 37.776L82.6424 38.6598C83.2106 38.359 83.8583 38.2 84.6065 38.2V37.2V36.2C83.5627 36.2 82.589 36.425 81.7066 36.8922L82.1745 37.776ZM84.6065 37.2V38.2C85.2858 38.2 85.8335 38.358 86.2863 38.6426C86.7425 38.9294 87.1589 39.3807 87.515 40.0524C88.243 41.4255 88.6625 43.6131 88.6625 46.736H89.6625H90.6625C90.6625 43.5016 90.2393 40.9211 89.282 39.1156C88.7955 38.1979 88.1585 37.4573 87.3507 36.9494C86.5395 36.4394 85.6126 36.2 84.6065 36.2V37.2ZM89.6625 46.736L89.7112 47.7348C91.5171 47.6467 93.3415 47.4046 95.184 47.0098L94.9745 46.032L94.765 45.0542C93.0235 45.4274 91.3066 45.6546 89.6138 45.7372L89.6625 46.736ZM94.9745 46.032L95.217 47.0021L96.241 46.7461L95.9985 45.776L95.756 44.8059L94.732 45.0619L94.9745 46.032ZM95.9985 45.776L95.0101 45.9281L95.3941 48.4241L96.3825 48.272L97.3709 48.1199L96.9869 45.6239L95.9985 45.776ZM96.3825 48.272L95.9919 47.3514C94.6736 47.9107 92.85 48.4279 90.4938 48.8908L90.6865 49.872L90.8792 50.8532C93.3016 50.3774 95.2754 49.8279 96.773 49.1926L96.3825 48.272ZM90.6865 49.872L90.4904 48.8914L89.2104 49.1474L89.4065 50.128L89.6026 51.1086L90.8826 50.8526L90.6865 49.872ZM89.4065 50.128L88.4225 49.9499C87.6365 54.2933 86.05 58.0507 83.676 61.2433L84.4785 61.84L85.281 62.4367C87.8563 58.9733 89.5551 54.9227 90.3905 50.3061L89.4065 50.128ZM84.4785 61.84L83.6797 61.2383C81.381 64.2902 78.49 65.768 74.9425 65.768V66.768V67.768C79.1603 67.768 82.6267 65.9605 85.2773 62.4417L84.4785 61.84ZM78.3985 61.264V62.264C80.6937 62.264 82.561 60.7689 84.0518 58.3294L83.1985 57.808L82.3452 57.2865C81.02 59.4551 79.6873 60.264 78.3985 60.264V61.264ZM83.1985 57.808L84.0447 58.3408C85.555 55.9422 86.6035 53.402 87.1838 50.7238L86.2065 50.512L85.2292 50.3002C84.7001 52.7419 83.7434 55.0658 82.3523 57.2752L83.1985 57.808ZM86.2065 50.512V49.512C84.0195 49.512 82.5614 49.0981 81.6693 48.4311C80.8318 47.8049 80.3585 46.8535 80.3585 45.392H79.3585H78.3585C78.3585 47.3438 79.0265 48.9524 80.4717 50.0329C81.8622 51.0726 83.8282 51.512 86.2065 51.512V50.512ZM79.3585 45.392H80.3585C80.3585 44.1667 80.6064 43.031 81.0975 41.9731L80.1905 41.552L79.2835 41.1309C78.6653 42.4624 78.3585 43.8867 78.3585 45.392H79.3585ZM80.1905 41.552L81.0849 41.9992L81.4049 41.3592L80.5105 40.912L79.6161 40.4648L79.2961 41.1048L80.1905 41.552ZM80.5105 40.912L80.9577 40.0176C80.6091 39.8433 80.2311 39.784 79.8705 39.784V40.784V41.784C80.0219 41.784 80.0706 41.8101 80.0633 41.8064L80.5105 40.912ZM79.8705 40.784V39.784C79.535 39.784 79.1084 39.8342 78.7398 40.0799L79.2945 40.912L79.8492 41.744C79.8172 41.7654 79.7906 41.7778 79.7739 41.7845C79.7573 41.7911 79.7489 41.7927 79.7514 41.7922C79.7539 41.7916 79.7647 41.7895 79.7853 41.7875C79.8059 41.7855 79.8339 41.784 79.8705 41.784V40.784ZM79.2945 40.912L78.7554 40.0697C77.3904 40.9433 76.2949 42.8272 75.3495 45.3626L76.2865 45.712L77.2235 46.0614C78.1554 43.5622 79.0652 42.246 79.8336 41.7543L79.2945 40.912ZM76.2865 45.712L75.3495 45.3626C74.3615 48.0122 73.8785 51.014 73.8785 54.352H74.8785H75.8785C75.8785 51.2046 76.3341 48.4465 77.2235 46.0614L76.2865 45.712ZM74.8785 54.352H73.8785C73.8785 56.7085 74.1731 58.6265 74.8674 59.9898C75.2219 60.6858 75.695 61.2656 76.3108 61.6687C76.9321 62.0753 77.6406 62.264 78.3985 62.264V61.264V60.264C77.9831 60.264 77.6649 60.1647 77.4062 59.9953C77.142 59.8224 76.8818 59.5382 76.6496 59.0822C76.1705 58.1415 75.8785 56.6035 75.8785 54.352H74.8785ZM102.851 38.8L102.2 39.5593L102.208 39.5667L102.217 39.574L102.851 38.8ZM103.107 51.408L104.088 51.6L104.088 51.598L103.107 51.408ZM108.291 57.552L107.512 56.924L107.511 56.9256L108.291 57.552ZM111.363 51.472L112.361 51.5246L112.383 51.1126L112.108 50.8052L111.363 51.472ZM107.01 46.608L106.015 46.5154L105.974 46.9497L106.265 47.2748L107.01 46.608ZM108.355 41.616L109.254 42.0529L109.254 42.0529L108.355 41.616ZM110.403 38.48L109.722 37.7472L109.72 37.7489L110.403 38.48ZM111.299 37.648V36.648H110.906L110.618 36.9152L111.299 37.648ZM115.459 39.12L116.181 38.4288L116.181 38.4288L115.459 39.12ZM114.371 53.264L113.456 52.8588L113.456 52.8588L114.371 53.264ZM107.715 62.864L108.399 63.5932L108.405 63.5876L107.715 62.864ZM95.1065 65.104L94.3431 65.7499L94.3502 65.7583L94.3575 65.7666L95.1065 65.104ZM94.0825 53.392L93.0871 53.2952L93.086 53.309L94.0825 53.392ZM93.7625 41.808L92.8681 42.2552L92.8761 42.2712L92.8846 42.2869L93.7625 41.808ZM92.2905 39.568L91.3204 39.3255L91.1894 39.8494L91.5557 40.2463L92.2905 39.568ZM92.4825 38.8L92.1663 37.8513L91.6455 38.0249L91.5124 38.5575L92.4825 38.8ZM98.6905 37.648V38.648C100.462 38.648 101.565 39.0155 102.2 39.5593L102.851 38.8L103.501 38.0407C102.344 37.0485 100.673 36.648 98.6905 36.648V37.648ZM102.851 38.8L102.217 39.574C102.777 40.0323 103.259 41.1843 103.259 43.536H104.259H105.259C105.259 41.1091 104.801 39.1037 103.484 38.026L102.851 38.8ZM104.259 43.536H103.259C103.259 44.7029 102.897 47.2303 102.125 51.218L103.107 51.408L104.088 51.598C104.852 47.6497 105.259 44.9291 105.259 43.536H104.259ZM103.107 51.408L102.125 51.216C101.74 53.1836 101.45 54.7747 101.255 55.9853C101.065 57.17 100.955 58.0573 100.955 58.576H101.955H102.955C102.955 58.2413 103.036 57.5074 103.23 56.3027C103.419 55.124 103.705 53.5577 104.088 51.6L103.107 51.408ZM101.955 58.576H100.955C100.955 59.4665 101.039 60.2608 101.282 60.8674C101.407 61.1794 101.596 61.4986 101.89 61.7442C102.203 62.0046 102.58 62.136 102.979 62.136V61.136V60.136C103.036 60.136 103.114 60.1608 103.171 60.2078C103.209 60.24 103.185 60.2393 103.139 60.1246C103.04 59.8779 102.955 59.3922 102.955 58.576H101.955ZM102.979 61.136V62.136C105.086 62.136 107.116 60.6098 109.07 58.1784L108.291 57.552L107.511 56.9256C105.625 59.2729 104.114 60.136 102.979 60.136V61.136ZM108.291 57.552L109.069 58.18C111.06 55.7128 112.258 53.4762 112.361 51.5246L111.363 51.472L110.364 51.4194C110.296 52.7104 109.447 54.5272 107.512 56.924L108.291 57.552ZM111.363 51.472L112.108 50.8052L107.756 45.9412L107.01 46.608L106.265 47.2748L110.617 52.1388L111.363 51.472ZM107.01 46.608L108.006 46.7006C108.167 44.9725 108.587 43.427 109.254 42.0529L108.355 41.616L107.455 41.1791C106.672 42.7917 106.195 44.5742 106.015 46.5154L107.01 46.608ZM108.355 41.616L109.254 42.0529C109.965 40.5892 110.583 39.6796 111.085 39.2111L110.403 38.48L109.72 37.7489C108.942 38.4751 108.195 39.6561 107.455 41.1791L108.355 41.616ZM110.403 38.48L111.083 39.2128L111.979 38.3808L111.299 37.648L110.618 36.9152L109.722 37.7472L110.403 38.48ZM111.299 37.648V38.648C112.959 38.648 114.045 39.0889 114.736 39.8112L115.459 39.12L116.181 38.4288C114.995 37.1885 113.307 36.648 111.299 36.648V37.648ZM115.459 39.12L114.736 39.8112C115.502 40.612 115.867 41.5184 115.867 42.576H116.867H117.867C117.867 40.9883 117.293 39.5907 116.181 38.4288L115.459 39.12ZM116.867 42.576H115.867C115.867 45.7801 115.076 49.2045 113.456 52.8588L114.371 53.264L115.285 53.6692C116.993 49.8142 117.867 46.1132 117.867 42.576H116.867ZM114.371 53.264L113.456 52.8588C111.842 56.5024 109.696 59.5918 107.024 62.1404L107.715 62.864L108.405 63.5876C111.279 60.8455 113.571 57.535 115.285 53.6692L114.371 53.264ZM107.715 62.864L107.03 62.1348C104.38 64.6224 101.796 65.768 99.2665 65.768V66.768V67.768C102.454 67.768 105.503 66.311 108.399 63.5932L107.715 62.864ZM99.2665 66.768V65.768C97.6955 65.768 96.6076 65.2916 95.8555 64.4414L95.1065 65.104L94.3575 65.7666C95.5681 67.1351 97.2535 67.768 99.2665 67.768V66.768ZM95.1065 65.104L95.8699 64.4581C95.1172 63.5685 94.6985 62.3646 94.6985 60.752H93.6985H92.6985C92.6985 62.7234 93.2184 64.4208 94.3431 65.7499L95.1065 65.104ZM93.6985 60.752H94.6985C94.6985 58.9574 94.824 56.5352 95.079 53.475L94.0825 53.392L93.086 53.309C92.829 56.3928 92.6985 58.8773 92.6985 60.752H93.6985ZM94.0825 53.392L95.0778 53.4888C95.3795 50.3852 95.5305 47.3022 95.5305 44.24H94.5305H93.5305C93.5305 47.2364 93.3828 50.2548 93.0872 53.2952L94.0825 53.392ZM94.5305 44.24H95.5305C95.5305 43.3212 95.1914 42.3394 94.6404 41.3291L93.7625 41.808L92.8846 42.2869C93.3576 43.154 93.5305 43.7934 93.5305 44.24H94.5305ZM93.7625 41.808L94.6569 41.3608C94.1606 40.3681 93.6205 39.5346 93.0253 38.8897L92.2905 39.568L91.5557 40.2463C91.9845 40.7108 92.4257 41.3705 92.8681 42.2552L93.7625 41.808ZM92.2905 39.568L93.2606 39.8105L93.4526 39.0425L92.4825 38.8L91.5124 38.5575L91.3204 39.3255L92.2905 39.568ZM92.4825 38.8L92.7987 39.7487C95.0317 39.0043 96.9917 38.648 98.6905 38.648V37.648V36.648C96.7199 36.648 94.5413 37.0597 92.1663 37.8513L92.4825 38.8ZM122.214 42.32L122.907 43.0414L122.907 43.0412L122.214 42.32ZM139.43 39.504L140.037 38.709L140.037 38.709L139.43 39.504ZM140.262 49.68L139.465 49.0761L139.459 49.0839L139.453 49.0918L140.262 49.68ZM136.486 52.944L136.928 53.8409L136.936 53.8372L136.943 53.8333L136.486 52.944ZM128.166 55.76L128.29 56.7523L128.303 56.7506L128.317 56.7486L128.166 55.76ZM126.63 55.952L126.506 54.9597L125.562 55.0777L125.633 56.0263L126.63 55.952ZM134.822 61.2L134.416 60.2862L134.416 60.2862L134.822 61.2ZM137.51 59.664L136.885 58.8831L136.885 58.8831L137.51 59.664ZM138.47 58.896L139.27 58.296L138.651 57.4706L137.845 58.1151L138.47 58.896ZM140.006 60.944L140.815 61.5322L141.249 60.9349L140.806 60.344L140.006 60.944ZM137.958 62.8L137.358 62L137.358 62L137.958 62.8ZM135.078 64.72L135.561 65.5956L135.568 65.592L135.574 65.5882L135.078 64.72ZM119.974 63.632L119.199 64.2644L119.199 64.2644L119.974 63.632ZM126.566 52.816H125.566V54.0079L126.74 53.8008L126.566 52.816ZM131.75 50.064L131 49.4024L131 49.4024L131.75 50.064ZM127.846 45.136L126.894 44.8286L126.892 44.8377L127.846 45.136ZM117.414 54.928H118.414C118.414 49.8077 119.942 45.8873 122.907 43.0414L122.214 42.32L121.521 41.5986C118.086 44.8967 116.414 49.3817 116.414 54.928H117.414ZM122.214 42.32L122.907 43.0412C125.983 40.0863 129.411 38.648 133.222 38.648V37.648V36.648C128.841 36.648 124.93 38.3243 121.521 41.5988L122.214 42.32ZM133.222 37.648V38.648C135.573 38.648 137.414 39.2233 138.823 40.2989L139.43 39.504L140.037 38.709C138.204 37.3101 135.906 36.648 133.222 36.648V37.648ZM139.43 39.504L138.823 40.2989C140.19 41.3416 140.862 42.708 140.862 44.496H141.862H142.862C142.862 42.1027 141.913 40.141 140.037 38.709L139.43 39.504ZM141.862 44.496H140.862C140.862 46.3621 140.38 47.8687 139.465 49.0761L140.262 49.68L141.059 50.2839C142.278 48.6753 142.862 46.7259 142.862 44.496H141.862ZM140.262 49.68L139.453 49.0918C138.518 50.3782 137.378 51.3609 136.029 52.0547L136.486 52.944L136.943 53.8333C138.581 52.9911 139.958 51.7978 141.071 50.2682L140.262 49.68ZM136.486 52.944L136.044 52.0471C133.078 53.5089 130.404 54.407 128.015 54.7714L128.166 55.76L128.317 56.7486C130.962 56.345 133.835 55.3657 136.928 53.8409L136.486 52.944ZM128.166 55.76L128.042 54.7677L126.506 54.9597L126.63 55.952L126.754 56.9443L128.29 56.7523L128.166 55.76ZM126.63 55.952L125.633 56.0263C125.79 58.1314 126.307 59.8702 127.312 61.0977C128.354 62.3691 129.816 62.968 131.558 62.968V61.968V60.968C130.313 60.968 129.461 60.5643 128.86 59.8303C128.222 59.0524 127.769 57.7833 127.627 55.8777L126.63 55.952ZM131.558 61.968V62.968C132.75 62.968 133.977 62.6698 135.228 62.1138L134.822 61.2L134.416 60.2862C133.363 60.7542 132.414 60.968 131.558 60.968V61.968ZM134.822 61.2L135.228 62.1138C136.421 61.5835 137.402 61.0309 138.135 60.4449L137.51 59.664L136.885 58.8831C136.338 59.3211 135.527 59.7925 134.416 60.2862L134.822 61.2ZM137.51 59.664L138.135 60.4449L139.095 59.6769L138.47 58.896L137.845 58.1151L136.885 58.8831L137.51 59.664ZM138.47 58.896L137.67 59.496L139.206 61.544L140.006 60.944L140.806 60.344L139.27 58.296L138.47 58.896ZM140.006 60.944L139.197 60.3558C138.951 60.6945 138.375 61.2375 137.358 62L137.958 62.8L138.558 63.6C139.589 62.8265 140.378 62.1321 140.815 61.5322L140.006 60.944ZM137.958 62.8L137.358 62C136.36 62.7488 135.435 63.3645 134.582 63.8518L135.078 64.72L135.574 65.5882C136.513 65.0515 137.508 64.3872 138.558 63.6L137.958 62.8ZM135.078 64.72L134.595 63.8444C132.274 65.1247 129.732 65.768 126.95 65.768V66.768V67.768C130.056 67.768 132.932 67.046 135.561 65.5956L135.078 64.72ZM126.95 66.768V65.768C124.275 65.768 122.247 64.8346 120.749 62.9996L119.974 63.632L119.199 64.2644C121.115 66.6107 123.737 67.768 126.95 67.768V66.768ZM119.974 63.632L120.749 62.9996C119.234 61.1443 118.414 58.4954 118.414 54.928H117.414H116.414C116.414 58.7846 117.301 61.9384 119.199 64.2644L119.974 63.632ZM126.566 52.816L126.74 53.8008C129.106 53.3833 131.049 52.3699 132.5 50.7256L131.75 50.064L131 49.4024C129.891 50.6594 128.378 51.4807 126.392 51.8312L126.566 52.816ZM131.75 50.064L132.5 50.7256C133.971 49.0586 134.67 46.9307 134.67 44.432H133.67H132.67C132.67 46.5413 132.089 48.1681 131 49.4024L131.75 50.064ZM133.67 44.432H134.67C134.67 43.2139 134.495 42.1352 134.018 41.3302C133.493 40.4431 132.649 39.976 131.622 39.976V40.976V41.976C131.96 41.976 132.141 42.0849 132.298 42.3498C132.503 42.6968 132.67 43.3461 132.67 44.432H133.67ZM131.622 40.976V39.976C129.279 39.976 127.806 42.0062 126.894 44.8286L127.846 45.136L128.798 45.4434C129.678 42.7191 130.722 41.976 131.622 41.976V40.976ZM127.846 45.136L126.892 44.8377C126.014 47.6465 125.566 50.3079 125.566 52.816H126.566H127.566C127.566 50.5455 127.972 48.0868 128.8 45.4343L127.846 45.136ZM144.065 66.192L143.094 66.4345L143.284 67.192H144.065V66.192ZM145.665 54.032L144.687 53.8209L145.665 54.032ZM145.601 40.528L144.8 41.128L144.803 41.1314L145.601 40.528ZM145.025 39.76L144.027 39.6833L143.999 40.0588L144.225 40.36L145.025 39.76ZM145.089 38.928L144.821 37.9645L144.145 38.1522L144.091 38.8513L145.089 38.928ZM156.161 37.968L157.068 37.5489L156.8 36.968H156.161V37.968ZM156.929 42.64H155.929V46.1941L157.782 43.1614L156.929 42.64ZM167.937 43.664L168.705 44.3042L168.937 44.0261V43.664H167.937ZM167.041 44.688L166.297 44.019L166.293 44.0236L167.041 44.688ZM164.865 46.352L164.317 45.515L164.31 45.52L164.302 45.5251L164.865 46.352ZM161.729 47.696V48.696H161.811L161.893 48.6824L161.729 47.696ZM160.641 45.968L161.501 45.4582L161.501 45.4582L160.641 45.968ZM159.105 44.24V43.24H158.93L158.766 43.2991L159.105 44.24ZM156.289 46.16L155.547 45.4891L155.37 45.6851L155.312 45.9431L156.289 46.16ZM153.409 65.296L153.78 66.2245L154.486 65.9419L154.402 65.1856L153.409 65.296ZM144.513 66.192V65.192H144.065V66.192V67.192H144.513V66.192ZM144.065 66.192L145.035 65.9495C144.985 65.7509 144.937 65.1153 144.937 63.888H143.937H142.937C142.937 65.05 142.973 65.9504 143.094 66.4345L144.065 66.192ZM143.937 63.888H144.937C144.937 63.3684 145.064 62.319 145.353 60.6687C145.638 59.0443 146.067 56.9039 146.642 54.2431L145.665 54.032L144.687 53.8209C144.11 56.4934 143.675 58.6623 143.384 60.3233C143.097 61.9584 142.937 63.1703 142.937 63.888H143.937ZM145.665 54.032L146.642 54.2431C147.219 51.5733 147.653 49.4675 147.943 47.9295C148.224 46.4396 148.393 45.379 148.393 44.88H147.393H146.393C146.393 45.149 146.273 45.9978 145.978 47.5585C145.692 49.0712 145.262 51.1574 144.687 53.8209L145.665 54.032ZM147.393 44.88H148.393C148.393 43.2551 147.662 41.5948 146.398 39.9246L145.601 40.528L144.803 41.1314C145.928 42.6186 146.393 43.8596 146.393 44.88H147.393ZM145.601 40.528L146.4 39.928L145.825 39.16L145.025 39.76L144.225 40.36L144.801 41.128L145.601 40.528ZM145.025 39.76L146.022 39.8367L146.086 39.0047L145.089 38.928L144.091 38.8513L144.027 39.6833L145.025 39.76ZM145.089 38.928L145.356 39.8915C147.521 39.2902 151.096 38.968 156.161 38.968V37.968V36.968C151.07 36.968 147.264 37.2858 144.821 37.9645L145.089 38.928ZM156.161 37.968L155.253 38.3871C155.677 39.307 155.929 40.6979 155.929 42.64H156.929H157.929C157.929 40.5715 157.668 38.8477 157.068 37.5489L156.161 37.968ZM156.929 42.64L157.782 43.1614C158.163 42.5379 159.038 41.6003 160.523 40.3273L159.873 39.568L159.222 38.8087C157.72 40.0957 156.633 41.2061 156.075 42.1185L156.929 42.64ZM159.873 39.568L160.523 40.3273C161.881 39.1631 163.195 38.648 164.481 38.648V37.648V36.648C162.609 36.648 160.85 37.4129 159.222 38.8087L159.873 39.568ZM164.481 37.648V38.648C165.273 38.648 165.807 38.9565 166.205 39.6501C166.652 40.4272 166.937 41.7216 166.937 43.664H167.937H168.937C168.937 41.5957 168.645 39.8822 167.94 38.6539C167.186 37.3422 165.992 36.648 164.481 36.648V37.648ZM167.937 43.664L167.168 43.0238C166.967 43.2656 166.678 43.5961 166.297 44.019L167.041 44.688L167.784 45.357C168.171 44.9265 168.48 44.5744 168.705 44.3042L167.937 43.664ZM167.041 44.688L166.293 44.0236C166.051 44.2955 165.433 44.7854 164.317 45.515L164.865 46.352L165.412 47.189C166.514 46.468 167.347 45.8485 167.788 45.3524L167.041 44.688ZM164.865 46.352L164.302 45.5251C163.327 46.1883 162.415 46.5677 161.564 46.7096L161.729 47.696L161.893 48.6824C163.09 48.4829 164.269 47.9664 165.427 47.1789L164.865 46.352ZM161.729 47.696V46.696C161.984 46.696 162.165 46.7944 162.222 46.8272C162.297 46.8705 162.349 46.9142 162.374 46.9352C162.423 46.9783 162.454 47.0146 162.459 47.0205C162.474 47.038 162.474 47.0408 162.454 47.0125C162.419 46.962 162.359 46.8714 162.271 46.7312C162.097 46.4549 161.841 46.0323 161.501 45.4582L160.641 45.968L159.78 46.4778C160.123 47.0557 160.39 47.4971 160.578 47.7968C160.671 47.9446 160.753 48.07 160.819 48.1635C160.849 48.2072 160.891 48.264 160.936 48.3175C160.957 48.3413 161 48.3912 161.06 48.4433C161.089 48.4688 161.146 48.5158 161.225 48.5614C161.286 48.5964 161.47 48.696 161.729 48.696V47.696ZM160.641 45.968L161.501 45.4582C161.147 44.861 160.81 44.3659 160.492 44.0076C160.333 43.8288 160.153 43.6549 159.952 43.5192C159.759 43.3887 159.467 43.24 159.105 43.24V44.24V45.24C158.913 45.24 158.813 45.1633 158.833 45.1768C158.845 45.1851 158.9 45.2272 158.997 45.3364C159.191 45.5541 159.451 45.923 159.78 46.4778L160.641 45.968ZM159.105 44.24L158.766 43.2991C157.535 43.7423 156.46 44.4797 155.547 45.4891L156.289 46.16L157.03 46.8309C157.738 46.0483 158.541 45.5057 159.443 45.1809L159.105 44.24ZM156.289 46.16L155.312 45.9431C153.356 54.745 152.345 60.5775 152.345 63.312H153.345H154.345C154.345 60.8411 155.295 55.239 157.265 46.3769L156.289 46.16ZM153.345 63.312H152.345C152.345 64.2503 152.365 64.9615 152.415 65.4064L153.409 65.296L154.402 65.1856C154.366 64.8625 154.345 64.251 154.345 63.312H153.345ZM153.409 65.296L153.037 64.3675C152.422 64.6135 151.419 64.8265 149.964 64.973C148.527 65.1178 146.712 65.192 144.513 65.192V66.192V67.192C146.75 67.192 148.637 67.1168 150.165 66.963C151.676 66.8108 152.902 66.5758 153.78 66.2245L153.409 65.296Z" fill="#FFEEBC" mask="url(#path-1-outside-1_949_1164)"/>
<path d="M96.5 2.5C122.884 2.5 146.651 7.21535 163.729 14.7363C172.27 18.4982 179.027 22.9128 183.613 27.6885C188.188 32.452 190.5 37.4533 190.5 42.5C190.5 47.5467 188.188 52.548 183.613 57.3115C179.027 62.0872 172.27 66.5018 163.729 70.2637C146.651 77.7847 122.884 82.5 96.5 82.5C70.1156 82.5 46.3485 77.7847 29.2715 70.2637C20.7298 66.5018 13.9733 62.0872 9.38672 57.3115C4.81198 52.548 2.5 47.5467 2.5 42.5C2.5 37.4533 4.81198 32.452 9.38672 27.6885C13.9733 22.9128 20.7298 18.4982 29.2715 14.7363C46.3485 7.21535 70.1156 2.5 96.5 2.5Z" stroke="#FFEEBC" stroke-width="5"/>
</svg>
