<svg width="193" height="115" viewBox="0 0 193 115" fill="none" xmlns="http://www.w3.org/2000/svg">
<mask id="path-1-outside-1_911_1164" maskUnits="userSpaceOnUse" x="40" y="19" width="121" height="49" fill="black">
<rect fill="white" x="40" y="19" width="121" height="49"/>
<path d="M70.9062 66.768C69.2423 66.768 67.8769 66.2347 66.8103 65.168C65.7436 64.0587 65.2103 62.5867 65.2103 60.752C65.2103 58.8747 66.1489 53.6053 68.0263 44.944C66.9169 44.688 65.1249 44.56 62.6503 44.56C60.1756 44.56 57.8076 44.7733 55.5463 45.2C53.3703 55.0133 52.2183 61.584 52.0903 64.912C50.5543 65.7653 47.3116 66.192 42.3623 66.192H41.7223C41.8503 64.3147 42.9809 58.704 45.1143 49.36C47.2903 40.016 48.6343 32.9973 49.1463 28.304C49.1463 27.6213 48.9329 26.8107 48.5063 25.872C48.0796 24.8907 47.6529 24.1013 47.2263 23.504L46.5223 22.608L46.7143 21.648C49.2316 20.9227 53.2209 20.56 58.6823 20.56C59.1943 21.4133 59.4503 22.8 59.4503 24.72C59.4503 26.64 58.4903 31.9307 56.5703 40.592H68.9223C70.4156 32.9973 71.1836 27.5787 71.2262 24.336C71.2262 23.6107 71.1836 23.0133 71.0983 22.544C74.5116 21.2213 77.9463 20.56 81.4023 20.56C81.5303 20.816 81.5943 21.456 81.5943 22.48C81.5943 24.8267 80.5489 30.864 78.4583 40.592C76.4103 50.32 75.3863 56.5067 75.3863 59.152C75.3863 60.304 75.5783 60.88 75.9623 60.88C76.3463 60.88 77.6476 60.3253 79.8663 59.216L81.0183 61.584C77.2209 65.04 73.8503 66.768 70.9062 66.768ZM119.461 26.192C120.613 27.8987 121.466 29.712 122.021 31.632C122.575 33.5093 122.853 35.6 122.853 37.904C122.853 40.208 122.597 42.6613 122.085 45.264C121.573 47.8667 120.719 50.4693 119.525 53.072C118.33 55.6747 116.879 57.9787 115.173 59.984C113.466 61.9893 111.311 63.632 108.709 64.912C106.106 66.1493 103.247 66.768 100.133 66.768C95.5674 66.768 92.0261 65.1467 89.5088 61.904C86.9914 58.6187 85.7328 54.416 85.7328 49.296C85.7328 44.1333 86.6288 39.4187 88.4208 35.152C90.2554 30.8427 92.8581 27.344 96.2288 24.656C99.6421 21.9253 103.418 20.56 107.557 20.56C110.287 20.56 112.677 21.072 114.725 22.096C116.773 23.12 118.351 24.4853 119.461 26.192ZM102.053 62.416C104.058 62.416 105.743 61.5413 107.109 59.792C108.517 58.0427 109.583 55.76 110.309 52.944C111.759 47.3973 112.485 41.7013 112.485 35.856C112.485 28.56 110.522 24.912 106.597 24.912C104.378 24.912 102.437 26.2347 100.773 28.88C97.6581 33.872 96.1008 40.784 96.1008 49.616C96.1008 54.4373 96.3781 57.424 96.9328 58.576C97.1888 59.216 97.5301 59.8773 97.9568 60.56C98.7248 61.7973 100.09 62.416 102.053 62.416ZM131.86 20.56L153.236 21.264L159.252 21.136C159.38 22.032 159.444 22.9707 159.444 23.952C159.444 24.9333 159.274 25.6373 158.932 26.064C158.591 26.4907 157.972 26.704 157.076 26.704C156.991 26.704 153.983 26.4267 148.052 25.872C147.882 27.792 147.242 31.0773 146.132 35.728C145.023 40.3787 143.956 45.3493 142.932 50.64C141.908 55.9307 141.375 60.688 141.332 64.912C139.668 65.7653 136.255 66.192 131.092 66.192H130.644C130.644 63.9733 131.86 57.36 134.292 46.352C136.724 35.344 137.94 28.6453 137.94 26.256C137.94 26.0853 137.898 25.7867 137.812 25.36H135.252C131.754 25.36 129.066 25.8933 127.188 26.96C126.207 25.68 125.61 23.8027 125.396 21.328C126.847 20.816 129.002 20.56 131.86 20.56Z"/>
</mask>
<path d="M70.9062 66.768C69.2423 66.768 67.8769 66.2347 66.8103 65.168C65.7436 64.0587 65.2103 62.5867 65.2103 60.752C65.2103 58.8747 66.1489 53.6053 68.0263 44.944C66.9169 44.688 65.1249 44.56 62.6503 44.56C60.1756 44.56 57.8076 44.7733 55.5463 45.2C53.3703 55.0133 52.2183 61.584 52.0903 64.912C50.5543 65.7653 47.3116 66.192 42.3623 66.192H41.7223C41.8503 64.3147 42.9809 58.704 45.1143 49.36C47.2903 40.016 48.6343 32.9973 49.1463 28.304C49.1463 27.6213 48.9329 26.8107 48.5063 25.872C48.0796 24.8907 47.6529 24.1013 47.2263 23.504L46.5223 22.608L46.7143 21.648C49.2316 20.9227 53.2209 20.56 58.6823 20.56C59.1943 21.4133 59.4503 22.8 59.4503 24.72C59.4503 26.64 58.4903 31.9307 56.5703 40.592H68.9223C70.4156 32.9973 71.1836 27.5787 71.2262 24.336C71.2262 23.6107 71.1836 23.0133 71.0983 22.544C74.5116 21.2213 77.9463 20.56 81.4023 20.56C81.5303 20.816 81.5943 21.456 81.5943 22.48C81.5943 24.8267 80.5489 30.864 78.4583 40.592C76.4103 50.32 75.3863 56.5067 75.3863 59.152C75.3863 60.304 75.5783 60.88 75.9623 60.88C76.3463 60.88 77.6476 60.3253 79.8663 59.216L81.0183 61.584C77.2209 65.04 73.8503 66.768 70.9062 66.768ZM119.461 26.192C120.613 27.8987 121.466 29.712 122.021 31.632C122.575 33.5093 122.853 35.6 122.853 37.904C122.853 40.208 122.597 42.6613 122.085 45.264C121.573 47.8667 120.719 50.4693 119.525 53.072C118.33 55.6747 116.879 57.9787 115.173 59.984C113.466 61.9893 111.311 63.632 108.709 64.912C106.106 66.1493 103.247 66.768 100.133 66.768C95.5674 66.768 92.0261 65.1467 89.5088 61.904C86.9914 58.6187 85.7328 54.416 85.7328 49.296C85.7328 44.1333 86.6288 39.4187 88.4208 35.152C90.2554 30.8427 92.8581 27.344 96.2288 24.656C99.6421 21.9253 103.418 20.56 107.557 20.56C110.287 20.56 112.677 21.072 114.725 22.096C116.773 23.12 118.351 24.4853 119.461 26.192ZM102.053 62.416C104.058 62.416 105.743 61.5413 107.109 59.792C108.517 58.0427 109.583 55.76 110.309 52.944C111.759 47.3973 112.485 41.7013 112.485 35.856C112.485 28.56 110.522 24.912 106.597 24.912C104.378 24.912 102.437 26.2347 100.773 28.88C97.6581 33.872 96.1008 40.784 96.1008 49.616C96.1008 54.4373 96.3781 57.424 96.9328 58.576C97.1888 59.216 97.5301 59.8773 97.9568 60.56C98.7248 61.7973 100.09 62.416 102.053 62.416ZM131.86 20.56L153.236 21.264L159.252 21.136C159.38 22.032 159.444 22.9707 159.444 23.952C159.444 24.9333 159.274 25.6373 158.932 26.064C158.591 26.4907 157.972 26.704 157.076 26.704C156.991 26.704 153.983 26.4267 148.052 25.872C147.882 27.792 147.242 31.0773 146.132 35.728C145.023 40.3787 143.956 45.3493 142.932 50.64C141.908 55.9307 141.375 60.688 141.332 64.912C139.668 65.7653 136.255 66.192 131.092 66.192H130.644C130.644 63.9733 131.86 57.36 134.292 46.352C136.724 35.344 137.94 28.6453 137.94 26.256C137.94 26.0853 137.898 25.7867 137.812 25.36H135.252C131.754 25.36 129.066 25.8933 127.188 26.96C126.207 25.68 125.61 23.8027 125.396 21.328C126.847 20.816 129.002 20.56 131.86 20.56Z" fill="#FF5959"/>
<path d="M66.8103 65.168L66.0894 65.8611L66.0962 65.8682L66.1031 65.8751L66.8103 65.168ZM68.0263 44.944L69.0036 45.1558L69.2126 44.1915L68.2511 43.9696L68.0263 44.944ZM55.5463 45.2L55.3608 44.2173L54.7127 44.3396L54.57 44.9835L55.5463 45.2ZM52.0903 64.912L52.5759 65.7862L53.0679 65.5128L53.0895 64.9504L52.0903 64.912ZM41.7223 66.192L40.7246 66.124L40.6517 67.192H41.7223V66.192ZM45.1143 49.36L44.1403 49.1332L44.1393 49.1374L45.1143 49.36ZM49.1463 28.304L50.1404 28.4124L50.1463 28.3584V28.304H49.1463ZM48.5063 25.872L47.5892 26.2707L47.5925 26.2783L47.5959 26.2858L48.5063 25.872ZM47.2263 23.504L48.04 22.9228L48.0267 22.9042L48.0126 22.8862L47.2263 23.504ZM46.5223 22.608L45.5417 22.4119L45.4513 22.8636L45.7359 23.2258L46.5223 22.608ZM46.7143 21.648L46.4374 20.6871L45.8529 20.8555L45.7337 21.4519L46.7143 21.648ZM58.6823 20.56L59.5397 20.0455L59.2484 19.56H58.6823V20.56ZM56.5703 40.592L55.594 40.3756L55.3243 41.592H56.5703V40.592ZM68.9223 40.592V41.592H69.7448L69.9035 40.7849L68.9223 40.592ZM71.2262 24.336L72.2262 24.3492V24.336H71.2262ZM71.0983 22.544L70.7369 21.6116L69.9666 21.9101L70.1144 22.7229L71.0983 22.544ZM81.4023 20.56L82.2967 20.1128L82.0203 19.56H81.4023V20.56ZM78.4583 40.592L77.4806 40.3819L77.4797 40.386L78.4583 40.592ZM79.8663 59.216L80.7655 58.7785L80.3232 57.8695L79.419 58.3216L79.8663 59.216ZM81.0183 61.584L81.6913 62.3236L82.245 61.8197L81.9175 61.1465L81.0183 61.584ZM70.9062 66.768V65.768C69.4775 65.768 68.3763 65.3198 67.5174 64.4609L66.8103 65.168L66.1031 65.8751C67.3776 67.1495 69.007 67.768 70.9062 67.768V66.768ZM66.8103 65.168L67.5311 64.4749C66.6771 63.5868 66.2103 62.3812 66.2103 60.752H65.2103H64.2103C64.2103 62.7922 64.81 64.5305 66.0894 65.8611L66.8103 65.168ZM65.2103 60.752H66.2103C66.2103 59.9153 66.4274 58.2135 66.8988 55.5674C67.365 52.9502 68.0661 49.4811 69.0036 45.1558L68.0263 44.944L67.0489 44.7322C66.1091 49.0682 65.4022 52.5645 64.9297 55.2166C64.4625 57.8398 64.2103 59.7114 64.2103 60.752H65.2103ZM68.0263 44.944L68.2511 43.9696C67.0232 43.6862 65.1337 43.56 62.6503 43.56V44.56V45.56C65.1161 45.56 66.8107 45.6898 67.8014 45.9184L68.0263 44.944ZM62.6503 44.56V43.56C60.118 43.56 57.6877 43.7783 55.3608 44.2173L55.5463 45.2L55.7317 46.1827C57.9275 45.7684 60.2332 45.56 62.6503 45.56V44.56ZM55.5463 45.2L54.57 44.9835C52.3974 54.7815 51.223 61.4403 51.091 64.8736L52.0903 64.912L53.0895 64.9504C53.2135 61.7277 54.3431 55.2452 56.5225 45.4165L55.5463 45.2ZM52.0903 64.912L51.6046 64.0378C51.0043 64.3714 49.961 64.672 48.3758 64.8805C46.8136 65.0861 44.813 65.192 42.3623 65.192V66.192V67.192C44.8608 67.192 46.9562 67.0846 48.6367 66.8635C50.2942 66.6454 51.6403 66.306 52.5759 65.7862L52.0903 64.912ZM42.3623 66.192V65.192H41.7223V66.192V67.192H42.3623V66.192ZM41.7223 66.192L42.7199 66.26C42.7787 65.3978 43.0789 63.5904 43.6465 60.7735C44.2094 57.9803 45.0233 54.251 46.0892 49.5826L45.1143 49.36L44.1393 49.1374C43.0718 53.813 42.2537 57.5611 41.686 60.3785C41.1229 63.1723 40.7938 65.1089 40.7246 66.124L41.7223 66.192ZM45.1143 49.36L46.0882 49.5868C48.266 40.235 49.6215 33.1682 50.1404 28.4124L49.1463 28.304L48.1521 28.1955C47.647 32.8265 46.3145 39.797 44.1403 49.1332L45.1143 49.36ZM49.1463 28.304H50.1463C50.1463 27.4247 49.875 26.4666 49.4166 25.4582L48.5063 25.872L47.5959 26.2858C47.9908 27.1547 48.1463 27.818 48.1463 28.304H49.1463ZM48.5063 25.872L49.4233 25.4733C48.9802 24.454 48.5213 23.5966 48.04 22.9228L47.2263 23.504L46.4125 24.0852C46.7846 24.6061 47.179 25.3273 47.5892 26.2707L48.5063 25.872ZM47.2263 23.504L48.0126 22.8862L47.3086 21.9902L46.5223 22.608L45.7359 23.2258L46.4399 24.1218L47.2263 23.504ZM46.5223 22.608L47.5028 22.8041L47.6948 21.8441L46.7143 21.648L45.7337 21.4519L45.5417 22.4119L46.5223 22.608ZM46.7143 21.648L46.9911 22.6089C49.3656 21.9247 53.2361 21.56 58.6823 21.56V20.56V19.56C53.2058 19.56 49.0976 19.9206 46.4374 20.6871L46.7143 21.648ZM58.6823 20.56L57.8248 21.0745C58.1911 21.685 58.4503 22.841 58.4503 24.72H59.4503H60.4503C60.4503 22.759 60.1974 21.1417 59.5397 20.0455L58.6823 20.56ZM59.4503 24.72H58.4503C58.4503 25.5766 58.2282 27.2936 57.7463 29.9495C57.2696 32.5767 56.5527 36.0506 55.594 40.3756L56.5703 40.592L57.5466 40.8084C58.5078 36.4721 59.2309 32.97 59.7142 30.3065C60.1923 27.6717 60.4503 25.7834 60.4503 24.72H59.4503ZM56.5703 40.592V41.592H68.9223V40.592V39.592H56.5703V40.592ZM68.9223 40.592L69.9035 40.7849C71.3969 33.1898 72.1822 27.6917 72.2262 24.3492L71.2262 24.336L70.2263 24.3228C70.185 27.4656 69.4343 32.8049 67.941 40.3991L68.9223 40.592ZM71.2262 24.336H72.2262C72.2262 23.5782 72.1822 22.9155 72.0821 22.3651L71.0983 22.544L70.1144 22.7229C70.185 23.1112 70.2262 23.6432 70.2262 24.336H71.2262ZM71.0983 22.544L71.4596 23.4764C74.7646 22.1958 78.077 21.56 81.4023 21.56V20.56V19.56C77.8155 19.56 74.2586 20.2469 70.7369 21.6116L71.0983 22.544ZM81.4023 20.56L80.5078 21.0072C80.4829 20.9573 80.52 21.0192 80.5512 21.3315C80.5786 21.605 80.5943 21.9843 80.5943 22.48H81.5943H82.5943C82.5943 21.9517 82.5779 21.499 82.5413 21.1325C82.5085 20.8048 82.4496 20.4187 82.2967 20.1128L81.4023 20.56ZM81.5943 22.48H80.5943C80.5943 23.5563 80.3485 25.5733 79.8249 28.5974C79.3055 31.5973 78.5246 35.524 77.4806 40.3819L78.4583 40.592L79.4359 40.8021C80.4826 35.932 81.2697 31.976 81.7956 28.9386C82.3173 25.9254 82.5943 23.7504 82.5943 22.48H81.5943ZM78.4583 40.592L77.4797 40.386C75.4389 50.0798 74.3863 56.3801 74.3863 59.152H75.3863H76.3863C76.3863 56.6333 77.3816 50.5602 79.4368 40.798L78.4583 40.592ZM75.3863 59.152H74.3863C74.3863 59.7572 74.4335 60.3199 74.5816 60.7642C74.7211 61.1829 75.106 61.88 75.9623 61.88V60.88V59.88C76.1488 59.88 76.3144 59.962 76.4174 60.0649C76.4957 60.1432 76.5 60.1948 76.4789 60.1318C76.435 60.0001 76.3863 59.6988 76.3863 59.152H75.3863ZM75.9623 60.88V61.88C76.2331 61.88 76.5206 61.7964 76.7349 61.7259C76.9834 61.6441 77.2803 61.528 77.6184 61.3839C78.2964 61.0949 79.1973 60.6685 80.3135 60.1104L79.8663 59.216L79.419 58.3216C78.3165 58.8728 77.4574 59.2784 76.8342 59.5441C76.5215 59.6773 76.2825 59.7692 76.1096 59.8261C75.9026 59.8943 75.8834 59.88 75.9623 59.88V60.88ZM79.8663 59.216L78.967 59.6535L80.119 62.0215L81.0183 61.584L81.9175 61.1465L80.7655 58.7785L79.8663 59.216ZM81.0183 61.584L80.3452 60.8444C76.6067 64.2469 73.4723 65.768 70.9062 65.768V66.768V67.768C74.2282 67.768 77.8351 65.8331 81.6913 62.3236L81.0183 61.584ZM119.461 26.192L118.622 26.737L118.627 26.7443L118.632 26.7515L119.461 26.192ZM122.021 31.632L121.06 31.9095L121.062 31.9153L122.021 31.632ZM122.085 45.264L121.104 45.071L121.104 45.071L122.085 45.264ZM119.525 53.072L120.434 53.4892L120.434 53.4892L119.525 53.072ZM115.173 59.984L115.934 60.6321L115.934 60.6321L115.173 59.984ZM108.709 64.912L109.138 65.8152L109.15 65.8093L108.709 64.912ZM89.5088 61.904L88.715 62.5122L88.7188 62.5172L89.5088 61.904ZM88.4208 35.152L87.5007 34.7603L87.4988 34.7648L88.4208 35.152ZM96.2288 24.656L96.8522 25.4378L96.8534 25.4369L96.2288 24.656ZM114.725 22.096L114.278 22.9904L114.278 22.9904L114.725 22.096ZM107.109 59.792L106.33 59.165L106.325 59.1708L106.32 59.1767L107.109 59.792ZM110.309 52.944L109.341 52.691L109.34 52.6946L110.309 52.944ZM100.773 28.88L99.9263 28.3475L99.9243 28.3507L100.773 28.88ZM96.9328 58.576L97.8612 58.2046L97.8486 58.1729L97.8338 58.1422L96.9328 58.576ZM97.9568 60.56L98.8064 60.0326L98.8047 60.03L97.9568 60.56ZM119.461 26.192L118.632 26.7515C119.727 28.3743 120.535 30.0928 121.06 31.9095L122.021 31.632L122.981 31.3545C122.397 29.3311 121.498 27.4231 120.29 25.6325L119.461 26.192ZM122.021 31.632L121.062 31.9153C121.585 33.6861 121.853 35.6794 121.853 37.904H122.853H123.853C123.853 35.5206 123.566 33.3326 122.98 31.3487L122.021 31.632ZM122.853 37.904H121.853C121.853 40.1343 121.605 42.5226 121.104 45.071L122.085 45.264L123.066 45.457C123.589 42.8001 123.853 40.2817 123.853 37.904H122.853ZM122.085 45.264L121.104 45.071C120.608 47.5905 119.78 50.1181 118.616 52.6548L119.525 53.072L120.434 53.4892C121.659 50.8205 122.538 48.1429 123.066 45.457L122.085 45.264ZM119.525 53.072L118.616 52.6548C117.456 55.1814 116.053 57.4062 114.411 59.3359L115.173 59.984L115.934 60.6321C117.705 58.5511 119.204 56.168 120.434 53.4892L119.525 53.072ZM115.173 59.984L114.411 59.3359C112.802 61.227 110.76 62.7888 108.267 64.0147L108.709 64.912L109.15 65.8093C111.863 64.4752 114.13 62.7517 115.934 60.6321L115.173 59.984ZM108.709 64.912L108.279 64.0089C105.821 65.1774 103.111 65.768 100.133 65.768V66.768V67.768C103.384 67.768 106.391 67.1213 109.138 65.8151L108.709 64.912ZM100.133 66.768V65.768C95.8367 65.768 92.6035 64.2598 90.2987 61.2908L89.5088 61.904L88.7188 62.5172C91.4486 66.0336 95.2981 67.768 100.133 67.768V66.768ZM89.5088 61.904L90.3025 61.2958C87.9481 58.223 86.7328 54.2493 86.7328 49.296H85.7328H84.7328C84.7328 54.5827 86.0348 59.0143 88.715 62.5122L89.5088 61.904ZM85.7328 49.296H86.7328C86.7328 44.2509 87.6079 39.6699 89.3427 35.5392L88.4208 35.152L87.4988 34.7648C85.6496 39.1675 84.7328 44.0157 84.7328 49.296H85.7328ZM88.4208 35.152L89.3408 35.5437C91.1163 31.3735 93.6223 28.0136 96.8522 25.4378L96.2288 24.656L95.6053 23.8742C92.0939 26.6744 89.3946 30.3118 87.5007 34.7603L88.4208 35.152ZM96.2288 24.656L96.8534 25.4369C100.1 22.8395 103.659 21.56 107.557 21.56V20.56V19.56C103.178 19.56 99.184 21.0112 95.6041 23.8751L96.2288 24.656ZM107.557 20.56V21.56C110.162 21.56 112.393 22.048 114.278 22.9904L114.725 22.096L115.172 21.2016C112.961 20.096 110.413 19.56 107.557 19.56V20.56ZM114.725 22.096L114.278 22.9904C116.187 23.945 117.622 25.1975 118.622 26.737L119.461 26.192L120.299 25.647C119.081 23.7732 117.359 22.295 115.172 21.2016L114.725 22.096ZM102.053 62.416V63.416C104.402 63.416 106.365 62.3698 107.897 60.4073L107.109 59.792L106.32 59.1767C105.121 60.7129 103.714 61.416 102.053 61.416V62.416ZM107.109 59.792L107.888 60.419C109.407 58.5311 110.526 56.1083 111.277 53.1934L110.309 52.944L109.34 52.6946C108.64 55.4117 107.626 57.5542 106.33 59.165L107.109 59.792ZM110.309 52.944L111.276 53.197C112.749 47.5661 113.485 41.785 113.485 35.856H112.485H111.485C111.485 41.6176 110.77 47.2285 109.341 52.691L110.309 52.944ZM112.485 35.856H113.485C113.485 32.151 112.992 29.2162 111.893 27.1742C111.336 26.1383 110.611 25.3108 109.699 24.7459C108.785 24.1793 107.739 23.912 106.597 23.912V24.912V25.912C107.417 25.912 108.089 26.1007 108.646 26.4461C109.206 26.7932 109.708 27.3337 110.132 28.1218C110.996 29.7278 111.485 32.265 111.485 35.856H112.485ZM106.597 24.912V23.912C103.904 23.912 101.691 25.5417 99.9263 28.3475L100.773 28.88L101.619 29.4124C103.182 26.9276 104.852 25.912 106.597 25.912V24.912ZM100.773 28.88L99.9243 28.3507C96.6728 33.5621 95.1008 40.6842 95.1008 49.616H96.1008H97.1008C97.1008 40.8838 98.6434 34.1819 101.621 29.4093L100.773 28.88ZM96.1008 49.616H95.1008C95.1008 52.0415 95.1703 54.0277 95.313 55.5645C95.4518 57.0593 95.6689 58.2561 96.0317 59.0098L96.9328 58.576L97.8338 58.1422C97.642 57.7439 97.443 56.8713 97.3045 55.3795C97.1698 53.9296 97.1008 52.0119 97.1008 49.616H96.1008ZM96.9328 58.576L96.0043 58.9474C96.2856 59.6508 96.6557 60.3651 97.1088 61.09L97.9568 60.56L98.8047 60.03C98.4045 59.3896 98.0919 58.7812 97.8612 58.2046L96.9328 58.576ZM97.9568 60.56L97.1071 61.0874C98.1187 62.7172 99.8787 63.416 102.053 63.416V62.416V61.416C100.301 61.416 99.3308 60.8775 98.8064 60.0326L97.9568 60.56ZM131.86 20.56L131.893 19.5605L131.877 19.56H131.86V20.56ZM153.236 21.264L153.203 22.2635L153.23 22.2643L153.258 22.2638L153.236 21.264ZM159.252 21.136L160.242 20.9946L160.117 20.1174L159.231 20.1362L159.252 21.136ZM148.052 25.872L148.145 24.8763L147.145 24.7828L147.056 25.7835L148.052 25.872ZM146.132 35.728L147.105 35.96L147.105 35.96L146.132 35.728ZM142.932 50.64L143.914 50.83L142.932 50.64ZM141.332 64.912L141.789 65.8018L142.326 65.5262L142.332 64.9221L141.332 64.912ZM130.644 66.192H129.644V67.192H130.644V66.192ZM134.292 46.352L135.269 46.5677L134.292 46.352ZM137.812 25.36L138.793 25.1639L138.632 24.36H137.812V25.36ZM127.188 26.96L126.395 27.5684L126.925 28.2599L127.682 27.8295L127.188 26.96ZM125.396 21.328L125.063 20.385L124.333 20.6426L124.4 21.4139L125.396 21.328ZM131.86 20.56L131.827 21.5595L153.203 22.2635L153.236 21.264L153.269 20.2645L131.893 19.5605L131.86 20.56ZM153.236 21.264L153.258 22.2638L159.274 22.1358L159.252 21.136L159.231 20.1362L153.215 20.2642L153.236 21.264ZM159.252 21.136L158.262 21.2774C158.383 22.1229 158.444 23.0141 158.444 23.952H159.444H160.444C160.444 22.9273 160.377 21.9411 160.242 20.9946L159.252 21.136ZM159.444 23.952H158.444C158.444 24.8666 158.276 25.284 158.151 25.4393L158.932 26.064L159.713 26.6887C160.272 25.9906 160.444 25.0001 160.444 23.952H159.444ZM158.932 26.064L158.151 25.4393C158.094 25.5112 157.86 25.704 157.076 25.704V26.704V27.704C158.084 27.704 159.088 27.4701 159.713 26.6887L158.932 26.064ZM157.076 26.704V25.704C157.121 25.704 157.13 25.7063 156.992 25.6946C156.892 25.6861 156.746 25.6733 156.554 25.656C156.168 25.6214 155.6 25.5695 154.848 25.5002C153.345 25.3616 151.111 25.1537 148.145 24.8763L148.052 25.872L147.959 26.8677C150.925 27.145 153.16 27.353 154.664 27.4918C155.417 27.5611 155.987 27.6132 156.375 27.648C156.569 27.6654 156.718 27.6785 156.823 27.6874C156.888 27.693 157.01 27.704 157.076 27.704V26.704ZM148.052 25.872L147.056 25.7835C146.893 27.6226 146.269 30.8436 145.16 35.496L146.132 35.728L147.105 35.96C148.214 31.311 148.87 27.9614 149.048 25.9605L148.052 25.872ZM146.132 35.728L145.16 35.496C144.046 40.1622 142.977 45.147 141.95 50.45L142.932 50.64L143.914 50.83C144.936 45.5517 145.999 40.5951 147.105 35.96L146.132 35.728ZM142.932 50.64L141.95 50.45C140.918 55.7846 140.376 60.6037 140.332 64.9019L141.332 64.912L142.332 64.9221C142.374 60.7723 142.899 56.0767 143.914 50.83L142.932 50.64ZM141.332 64.912L140.876 64.0222C140.201 64.3681 139.071 64.6708 137.4 64.8797C135.75 65.0861 133.65 65.192 131.092 65.192V66.192V67.192C133.697 67.192 135.886 67.0846 137.648 66.8643C139.39 66.6465 140.799 66.3092 141.789 65.8018L141.332 64.912ZM131.092 66.192V65.192H130.644V66.192V67.192H131.092V66.192ZM130.644 66.192H131.644C131.644 65.1893 131.929 63.0715 132.54 59.7488C133.145 56.459 134.054 52.0667 135.269 46.5677L134.292 46.352L133.316 46.1363C132.099 51.6453 131.184 56.0637 130.573 59.3872C129.968 62.6778 129.644 64.976 129.644 66.192H130.644ZM134.292 46.352L135.269 46.5677C136.486 41.0582 137.401 36.6177 138.012 33.2506C138.618 29.9129 138.94 27.5545 138.94 26.256H137.94H136.94C136.94 27.3468 136.654 29.5324 136.044 32.8934C135.44 36.2249 134.531 40.6378 133.316 46.1363L134.292 46.352ZM137.94 26.256H138.94C138.94 25.9742 138.877 25.586 138.793 25.1639L137.812 25.36L136.832 25.5561C136.918 25.9873 136.94 26.1964 136.94 26.256H137.94ZM137.812 25.36V24.36H135.252V25.36V26.36H137.812V25.36ZM135.252 25.36V24.36C131.677 24.36 128.788 24.9008 126.694 26.0905L127.188 26.96L127.682 27.8295C129.343 26.8859 131.83 26.36 135.252 26.36V25.36ZM127.188 26.96L127.982 26.3516C127.163 25.2839 126.598 23.6217 126.393 21.2421L125.396 21.328L124.4 21.4139C124.621 23.9837 125.251 26.0761 126.395 27.5684L127.188 26.96ZM125.396 21.328L125.729 22.271C127.017 21.8164 129.035 21.56 131.86 21.56V20.56V19.56C128.968 19.56 126.677 19.8156 125.063 20.385L125.396 21.328Z" fill="#FF5959" mask="url(#path-1-outside-1_911_1164)"/>
<path d="M96.5 2.5C122.884 2.5 146.651 7.21535 163.729 14.7363C172.27 18.4982 179.027 22.9128 183.613 27.6885C188.188 32.452 190.5 37.4533 190.5 42.5C190.5 47.5467 188.188 52.548 183.613 57.3115C179.027 62.0872 172.27 66.5018 163.729 70.2637C146.651 77.7847 122.884 82.5 96.5 82.5C70.1156 82.5 46.3485 77.7847 29.2715 70.2637C20.7298 66.5018 13.9733 62.0872 9.38672 57.3115C4.81198 52.548 2.5 47.5467 2.5 42.5C2.5 37.4533 4.81198 32.452 9.38672 27.6885C13.9733 22.9128 20.7298 18.4982 29.2715 14.7363C46.3485 7.21535 70.1156 2.5 96.5 2.5Z" stroke="#FF5959" stroke-width="5"/>
</svg>
