<svg width="121" height="49" viewBox="0 0 121 49" fill="none" xmlns="http://www.w3.org/2000/svg">
<mask id="path-1-outside-1_911_1162" maskUnits="userSpaceOnUse" x="0" y="0" width="121" height="49" fill="black">
<rect fill="white" width="121" height="49"/>
<path d="M30.9062 47.768C29.2423 47.768 27.8769 47.2347 26.8103 46.168C25.7436 45.0587 25.2103 43.5867 25.2103 41.752C25.2103 39.8747 26.1489 34.6053 28.0263 25.944C26.9169 25.688 25.1249 25.56 22.6503 25.56C20.1756 25.56 17.8076 25.7733 15.5463 26.2C13.3703 36.0133 12.2183 42.584 12.0903 45.912C10.5543 46.7653 7.31158 47.192 2.36225 47.192H1.72225C1.85025 45.3147 2.98092 39.704 5.11425 30.36C7.29025 21.016 8.63425 13.9973 9.14625 9.304C9.14625 8.62133 8.93292 7.81067 8.50625 6.872C8.07958 5.89066 7.65292 5.10133 7.22625 4.504L6.52225 3.608L6.71425 2.648C9.23158 1.92266 13.2209 1.56 18.6823 1.56C19.1943 2.41333 19.4503 3.8 19.4503 5.72C19.4503 7.64 18.4903 12.9307 16.5703 21.592H28.9223C30.4156 13.9973 31.1836 8.57866 31.2262 5.336C31.2262 4.61066 31.1836 4.01333 31.0983 3.544C34.5116 2.22133 37.9463 1.56 41.4023 1.56C41.5303 1.816 41.5943 2.456 41.5943 3.48C41.5943 5.82667 40.5489 11.864 38.4583 21.592C36.4103 31.32 35.3863 37.5067 35.3863 40.152C35.3863 41.304 35.5783 41.88 35.9623 41.88C36.3463 41.88 37.6476 41.3253 39.8663 40.216L41.0183 42.584C37.2209 46.04 33.8503 47.768 30.9062 47.768ZM79.4608 7.192C80.6128 8.89867 81.4661 10.712 82.0208 12.632C82.5754 14.5093 82.8528 16.6 82.8528 18.904C82.8528 21.208 82.5968 23.6613 82.0848 26.264C81.5728 28.8667 80.7194 31.4693 79.5248 34.072C78.3301 36.6747 76.8794 38.9787 75.1728 40.984C73.4661 42.9893 71.3114 44.632 68.7088 45.912C66.1061 47.1493 63.2474 47.768 60.1328 47.768C55.5674 47.768 52.0261 46.1467 49.5088 42.904C46.9914 39.6187 45.7328 35.416 45.7328 30.296C45.7328 25.1333 46.6288 20.4187 48.4208 16.152C50.2554 11.8427 52.8581 8.344 56.2288 5.656C59.6421 2.92533 63.4181 1.56 67.5568 1.56C70.2874 1.56 72.6768 2.072 74.7248 3.096C76.7728 4.12 78.3514 5.48533 79.4608 7.192ZM62.0528 43.416C64.0581 43.416 65.7434 42.5413 67.1088 40.792C68.5168 39.0427 69.5834 36.76 70.3088 33.944C71.7594 28.3973 72.4848 22.7013 72.4848 16.856C72.4848 9.56 70.5221 5.912 66.5968 5.912C64.3781 5.912 62.4368 7.23466 60.7728 9.88C57.6581 14.872 56.1008 21.784 56.1008 30.616C56.1008 35.4373 56.3781 38.424 56.9328 39.576C57.1888 40.216 57.5301 40.8773 57.9568 41.56C58.7248 42.7973 60.0901 43.416 62.0528 43.416ZM91.8603 1.56L113.236 2.264L119.252 2.136C119.38 3.032 119.444 3.97067 119.444 4.952C119.444 5.93333 119.274 6.63733 118.932 7.064C118.591 7.49067 117.972 7.704 117.076 7.704C116.991 7.704 113.983 7.42666 108.052 6.872C107.882 8.792 107.242 12.0773 106.132 16.728C105.023 21.3787 103.956 26.3493 102.932 31.64C101.908 36.9307 101.375 41.688 101.332 45.912C99.6683 46.7653 96.2549 47.192 91.0923 47.192H90.6443C90.6443 44.9733 91.8603 38.36 94.2923 27.352C96.7243 16.344 97.9403 9.64533 97.9403 7.256C97.9403 7.08533 97.8976 6.78667 97.8123 6.36H95.2523C91.7536 6.36 89.0656 6.89333 87.1883 7.96C86.2069 6.68 85.6096 4.80266 85.3963 2.328C86.8469 1.816 89.0016 1.56 91.8603 1.56Z"/>
</mask>
<path d="M30.9062 47.768C29.2423 47.768 27.8769 47.2347 26.8103 46.168C25.7436 45.0587 25.2103 43.5867 25.2103 41.752C25.2103 39.8747 26.1489 34.6053 28.0263 25.944C26.9169 25.688 25.1249 25.56 22.6503 25.56C20.1756 25.56 17.8076 25.7733 15.5463 26.2C13.3703 36.0133 12.2183 42.584 12.0903 45.912C10.5543 46.7653 7.31158 47.192 2.36225 47.192H1.72225C1.85025 45.3147 2.98092 39.704 5.11425 30.36C7.29025 21.016 8.63425 13.9973 9.14625 9.304C9.14625 8.62133 8.93292 7.81067 8.50625 6.872C8.07958 5.89066 7.65292 5.10133 7.22625 4.504L6.52225 3.608L6.71425 2.648C9.23158 1.92266 13.2209 1.56 18.6823 1.56C19.1943 2.41333 19.4503 3.8 19.4503 5.72C19.4503 7.64 18.4903 12.9307 16.5703 21.592H28.9223C30.4156 13.9973 31.1836 8.57866 31.2262 5.336C31.2262 4.61066 31.1836 4.01333 31.0983 3.544C34.5116 2.22133 37.9463 1.56 41.4023 1.56C41.5303 1.816 41.5943 2.456 41.5943 3.48C41.5943 5.82667 40.5489 11.864 38.4583 21.592C36.4103 31.32 35.3863 37.5067 35.3863 40.152C35.3863 41.304 35.5783 41.88 35.9623 41.88C36.3463 41.88 37.6476 41.3253 39.8663 40.216L41.0183 42.584C37.2209 46.04 33.8503 47.768 30.9062 47.768ZM79.4608 7.192C80.6128 8.89867 81.4661 10.712 82.0208 12.632C82.5754 14.5093 82.8528 16.6 82.8528 18.904C82.8528 21.208 82.5968 23.6613 82.0848 26.264C81.5728 28.8667 80.7194 31.4693 79.5248 34.072C78.3301 36.6747 76.8794 38.9787 75.1728 40.984C73.4661 42.9893 71.3114 44.632 68.7088 45.912C66.1061 47.1493 63.2474 47.768 60.1328 47.768C55.5674 47.768 52.0261 46.1467 49.5088 42.904C46.9914 39.6187 45.7328 35.416 45.7328 30.296C45.7328 25.1333 46.6288 20.4187 48.4208 16.152C50.2554 11.8427 52.8581 8.344 56.2288 5.656C59.6421 2.92533 63.4181 1.56 67.5568 1.56C70.2874 1.56 72.6768 2.072 74.7248 3.096C76.7728 4.12 78.3514 5.48533 79.4608 7.192ZM62.0528 43.416C64.0581 43.416 65.7434 42.5413 67.1088 40.792C68.5168 39.0427 69.5834 36.76 70.3088 33.944C71.7594 28.3973 72.4848 22.7013 72.4848 16.856C72.4848 9.56 70.5221 5.912 66.5968 5.912C64.3781 5.912 62.4368 7.23466 60.7728 9.88C57.6581 14.872 56.1008 21.784 56.1008 30.616C56.1008 35.4373 56.3781 38.424 56.9328 39.576C57.1888 40.216 57.5301 40.8773 57.9568 41.56C58.7248 42.7973 60.0901 43.416 62.0528 43.416ZM91.8603 1.56L113.236 2.264L119.252 2.136C119.38 3.032 119.444 3.97067 119.444 4.952C119.444 5.93333 119.274 6.63733 118.932 7.064C118.591 7.49067 117.972 7.704 117.076 7.704C116.991 7.704 113.983 7.42666 108.052 6.872C107.882 8.792 107.242 12.0773 106.132 16.728C105.023 21.3787 103.956 26.3493 102.932 31.64C101.908 36.9307 101.375 41.688 101.332 45.912C99.6683 46.7653 96.2549 47.192 91.0923 47.192H90.6443C90.6443 44.9733 91.8603 38.36 94.2923 27.352C96.7243 16.344 97.9403 9.64533 97.9403 7.256C97.9403 7.08533 97.8976 6.78667 97.8123 6.36H95.2523C91.7536 6.36 89.0656 6.89333 87.1883 7.96C86.2069 6.68 85.6096 4.80266 85.3963 2.328C86.8469 1.816 89.0016 1.56 91.8603 1.56Z" fill="#FF5959"/>
<path d="M26.8102 46.168L26.0894 46.8611L26.0962 46.8682L26.1031 46.8751L26.8102 46.168ZM28.0263 25.944L29.0036 26.1558L29.2126 25.1915L28.2511 24.9696L28.0263 25.944ZM15.5462 26.2L15.3608 25.2173L14.7127 25.3396L14.57 25.9835L15.5462 26.2ZM12.0903 45.912L12.5759 46.7862L13.0679 46.5128L13.0895 45.9504L12.0903 45.912ZM1.72225 47.192L0.724567 47.124L0.651747 48.192H1.72225V47.192ZM5.11425 30.36L4.1403 30.1332L4.13934 30.1374L5.11425 30.36ZM9.14625 9.304L10.1404 9.41245L10.1463 9.35838V9.304H9.14625ZM8.50625 6.872L7.58918 7.27072L7.59247 7.27829L7.59588 7.2858L8.50625 6.872ZM7.22625 4.504L8.03998 3.92276L8.0267 3.90415L8.01257 3.88618L7.22625 4.504ZM6.52225 3.608L5.54167 3.41188L5.45133 3.8636L5.73593 4.22582L6.52225 3.608ZM6.71425 2.648L6.43738 1.68709L5.85295 1.85549L5.73367 2.45188L6.71425 2.648ZM18.6823 1.56L19.5397 1.0455L19.2484 0.559998H18.6823V1.56ZM16.5703 21.592L15.594 21.3756L15.3243 22.592H16.5703V21.592ZM28.9222 21.592V22.592H29.7448L29.9035 21.7849L28.9222 21.592ZM31.2262 5.336L32.2262 5.34916V5.336H31.2262ZM31.0983 3.544L30.7369 2.61156L29.9666 2.91006L30.1144 3.72288L31.0983 3.544ZM41.4023 1.56L42.2967 1.11278L42.0203 0.559998H41.4023V1.56ZM38.4583 21.592L37.4806 21.3819L37.4797 21.386L38.4583 21.592ZM39.8663 40.216L40.7655 39.7785L40.3232 38.8695L39.419 39.3216L39.8663 40.216ZM41.0183 42.584L41.6913 43.3236L42.245 42.8197L41.9175 42.1465L41.0183 42.584ZM30.9062 47.768V46.768C29.4775 46.768 28.3763 46.3198 27.5174 45.4609L26.8102 46.168L26.1031 46.8751C27.3776 48.1495 29.007 48.768 30.9062 48.768V47.768ZM26.8102 46.168L27.5311 45.4749C26.6771 44.5868 26.2103 43.3812 26.2103 41.752H25.2103H24.2103C24.2103 43.7922 24.81 45.5305 26.0894 46.8611L26.8102 46.168ZM25.2103 41.752H26.2103C26.2103 40.9153 26.4274 39.2135 26.8988 36.5674C27.365 33.9502 28.0661 30.4811 29.0036 26.1558L28.0263 25.944L27.0489 25.7322C26.1091 30.0682 25.4022 33.5645 24.9297 36.2166C24.4625 38.8398 24.2103 40.7114 24.2103 41.752H25.2103ZM28.0263 25.944L28.2511 24.9696C27.0232 24.6862 25.1337 24.56 22.6503 24.56V25.56V26.56C25.1161 26.56 26.8107 26.6898 27.8014 26.9184L28.0263 25.944ZM22.6503 25.56V24.56C20.118 24.56 17.6877 24.7783 15.3608 25.2173L15.5462 26.2L15.7317 27.1827C17.9275 26.7684 20.2332 26.56 22.6503 26.56V25.56ZM15.5462 26.2L14.57 25.9835C12.3974 35.7815 11.223 42.4403 11.091 45.8736L12.0903 45.912L13.0895 45.9504C13.2135 42.7277 14.3431 36.2452 16.5225 26.4165L15.5462 26.2ZM12.0903 45.912L11.6046 45.0378C11.0043 45.3714 9.96099 45.672 8.3758 45.8805C6.81363 46.0861 4.81299 46.192 2.36225 46.192V47.192V48.192C4.86084 48.192 6.95621 48.0846 8.63671 47.8635C10.2942 47.6454 11.6403 47.306 12.5759 46.7862L12.0903 45.912ZM2.36225 47.192V46.192H1.72225V47.192V48.192H2.36225V47.192ZM1.72225 47.192L2.71993 47.26C2.77872 46.3978 3.07889 44.5904 3.64654 41.7735C4.20945 38.9803 5.02332 35.251 6.08916 30.5826L5.11425 30.36L4.13934 30.1374C3.07185 34.813 2.25372 38.5611 1.68596 41.3784C1.12294 44.1723 0.793779 46.1089 0.724567 47.124L1.72225 47.192ZM5.11425 30.36L6.08819 30.5868C8.26602 21.235 9.62155 14.1682 10.1404 9.41245L9.14625 9.304L8.15215 9.19555C7.64695 13.8265 6.31448 20.797 4.14031 30.1332L5.11425 30.36ZM9.14625 9.304H10.1463C10.1463 8.42466 9.87499 7.46662 9.41662 6.45819L8.50625 6.872L7.59588 7.2858C7.99084 8.15471 8.14625 8.81801 8.14625 9.304H9.14625ZM8.50625 6.872L9.42332 6.47327C8.98018 5.45404 8.52127 4.59657 8.03998 3.92276L7.22625 4.504L6.41252 5.08524C6.78456 5.60609 7.17899 6.32729 7.58918 7.27072L8.50625 6.872ZM7.22625 4.504L8.01257 3.88618L7.30857 2.99018L6.52225 3.608L5.73593 4.22582L6.43993 5.12182L7.22625 4.504ZM6.52225 3.608L7.50283 3.80411L7.69483 2.84412L6.71425 2.648L5.73367 2.45188L5.54167 3.41188L6.52225 3.608ZM6.71425 2.648L6.99112 3.60891C9.36556 2.92474 13.2361 2.56 18.6823 2.56V1.56V0.559998C13.2058 0.559998 9.0976 0.920585 6.43738 1.68709L6.71425 2.648ZM18.6823 1.56L17.8248 2.07449C18.1911 2.685 18.4502 3.84095 18.4502 5.72H19.4502H20.4502C20.4502 3.75904 20.1974 2.14166 19.5397 1.0455L18.6823 1.56ZM19.4502 5.72H18.4502C18.4502 6.5766 18.2282 8.29365 17.7463 10.9495C17.2696 13.5767 16.5527 17.0506 15.594 21.3756L16.5703 21.592L17.5466 21.8084C18.5078 17.4721 19.2309 13.97 19.7142 11.3065C20.1923 8.67168 20.4502 6.78339 20.4502 5.72H19.4502ZM16.5703 21.592V22.592H28.9222V21.592V20.592H16.5703V21.592ZM28.9222 21.592L29.9035 21.7849C31.3969 14.1898 32.1822 8.69172 32.2262 5.34916L31.2262 5.336L30.2263 5.32284C30.185 8.4656 29.4343 13.8049 27.941 21.3991L28.9222 21.592ZM31.2262 5.336H32.2262C32.2262 4.57817 32.1822 3.91546 32.0821 3.36512L31.0983 3.544L30.1144 3.72288C30.185 4.1112 30.2262 4.64316 30.2262 5.336H31.2262ZM31.0983 3.544L31.4596 4.47644C34.7646 3.19575 38.077 2.56 41.4023 2.56V1.56V0.559998C37.8155 0.559998 34.2586 1.24691 30.7369 2.61156L31.0983 3.544ZM41.4023 1.56L40.5078 2.00721C40.4829 1.9573 40.52 2.0192 40.5512 2.3315C40.5786 2.60503 40.5943 2.98428 40.5943 3.48H41.5943H42.5943C42.5943 2.95171 42.5779 2.49896 42.5413 2.13249C42.5085 1.80479 42.4496 1.4187 42.2967 1.11278L41.4023 1.56ZM41.5943 3.48H40.5943C40.5943 4.55631 40.3485 6.57329 39.8249 9.59739C39.3055 12.5973 38.5246 16.524 37.4806 21.3819L38.4583 21.592L39.4359 21.8021C40.4826 16.932 41.2697 12.976 41.7956 9.93861C42.3173 6.92537 42.5943 4.75035 42.5943 3.48H41.5943ZM38.4583 21.592L37.4797 21.386C35.4389 31.0798 34.3863 37.3801 34.3863 40.152H35.3863H36.3863C36.3863 37.6333 37.3816 31.5602 39.4368 21.798L38.4583 21.592ZM35.3863 40.152H34.3863C34.3863 40.7572 34.4335 41.3199 34.5816 41.7642C34.7211 42.1829 35.106 42.88 35.9623 42.88V41.88V40.88C36.1488 40.88 36.3144 40.962 36.4174 41.0649C36.4957 41.1432 36.5 41.1948 36.4789 41.1318C36.435 41.0001 36.3863 40.6988 36.3863 40.152H35.3863ZM35.9623 41.88V42.88C36.2331 42.88 36.5206 42.7964 36.7349 42.7259C36.9834 42.6441 37.2803 42.528 37.6184 42.3839C38.2964 42.0949 39.1973 41.6685 40.3135 41.1104L39.8663 40.216L39.419 39.3216C38.3165 39.8728 37.4574 40.2784 36.8342 40.5441C36.5215 40.6773 36.2825 40.7692 36.1096 40.8261C35.9026 40.8943 35.8834 40.88 35.9623 40.88V41.88ZM39.8663 40.216L38.967 40.6535L40.119 43.0215L41.0183 42.584L41.9175 42.1465L40.7655 39.7785L39.8663 40.216ZM41.0183 42.584L40.3452 41.8444C36.6067 45.2469 33.4723 46.768 30.9062 46.768V47.768V48.768C34.2282 48.768 37.8351 46.8331 41.6913 43.3236L41.0183 42.584ZM79.4608 7.192L78.6223 7.73698L78.627 7.74427L78.6319 7.75147L79.4608 7.192ZM82.0208 12.632L81.06 12.9095L81.0617 12.9153L82.0208 12.632ZM82.0847 26.264L81.1036 26.071V26.071L82.0847 26.264ZM79.5247 34.072L80.4336 34.4892L79.5247 34.072ZM75.1728 40.984L75.9343 41.6321H75.9343L75.1728 40.984ZM68.7088 45.912L69.1381 46.8152L69.1501 46.8093L68.7088 45.912ZM49.5088 42.904L48.715 43.5122L48.7188 43.5172L49.5088 42.904ZM48.4208 16.152L47.5007 15.7603L47.4988 15.7648L48.4208 16.152ZM56.2288 5.656L56.8522 6.43783L56.8534 6.43687L56.2288 5.656ZM74.7247 3.096L74.2775 3.99042L74.7247 3.096ZM67.1087 40.792L66.3297 40.165L66.325 40.1708L66.3204 40.1767L67.1087 40.792ZM70.3088 33.944L69.3413 33.691L69.3404 33.6946L70.3088 33.944ZM60.7728 9.88L59.9263 9.34754L59.9243 9.35065L60.7728 9.88ZM56.9328 39.576L57.8612 39.2046L57.8486 39.1729L57.8338 39.1422L56.9328 39.576ZM57.9567 41.56L58.8064 41.0326L58.8047 41.03L57.9567 41.56ZM79.4608 7.192L78.6319 7.75147C79.7273 9.37427 80.5352 11.0928 81.06 12.9095L82.0208 12.632L82.9815 12.3545C82.397 10.3311 81.4982 8.42306 80.2896 6.63252L79.4608 7.192ZM82.0208 12.632L81.0617 12.9153C81.5849 14.6861 81.8528 16.6794 81.8528 18.904H82.8528H83.8528C83.8528 16.5206 83.5659 14.3326 82.9798 12.3487L82.0208 12.632ZM82.8528 18.904H81.8528C81.8528 21.1343 81.6049 23.5226 81.1036 26.071L82.0847 26.264L83.0659 26.457C83.5886 23.8001 83.8528 21.2817 83.8528 18.904H82.8528ZM82.0847 26.264L81.1036 26.071C80.6079 28.5905 79.7803 31.1181 78.6159 33.6548L79.5247 34.072L80.4336 34.4892C81.6585 31.8205 82.5376 29.1429 83.0659 26.457L82.0847 26.264ZM79.5247 34.072L78.6159 33.6548C77.4562 36.1814 76.0535 38.4062 74.4112 40.3359L75.1728 40.984L75.9343 41.6321C77.7054 39.5511 79.204 37.168 80.4336 34.4892L79.5247 34.072ZM75.1728 40.984L74.4112 40.3359C72.8017 42.227 70.76 43.7888 68.2674 45.0146L68.7088 45.912L69.1501 46.8093C71.8629 45.4752 74.1304 43.7517 75.9343 41.6321L75.1728 40.984ZM68.7088 45.912L68.2794 45.0089C65.8215 46.1774 63.1111 46.768 60.1328 46.768V47.768V48.768C63.3838 48.768 66.3907 48.1213 69.1381 46.8151L68.7088 45.912ZM60.1328 47.768V46.768C55.8367 46.768 52.6035 45.2598 50.2987 42.2908L49.5088 42.904L48.7188 43.5172C51.4486 47.0336 55.2981 48.768 60.1328 48.768V47.768ZM49.5088 42.904L50.3025 42.2958C47.9481 39.223 46.7327 35.2493 46.7327 30.296H45.7327H44.7327C44.7327 35.5827 46.0348 40.0143 48.715 43.5122L49.5088 42.904ZM45.7327 30.296H46.7327C46.7327 25.2509 47.6079 20.6699 49.3427 16.5392L48.4208 16.152L47.4988 15.7648C45.6496 20.1675 44.7327 25.0157 44.7327 30.296H45.7327ZM48.4208 16.152L49.3408 16.5437C51.1163 12.3735 53.6223 9.01362 56.8522 6.43783L56.2288 5.656L55.6053 4.87416C52.0939 7.67438 49.3946 11.3118 47.5007 15.7603L48.4208 16.152ZM56.2288 5.656L56.8534 6.43687C60.1002 3.83947 63.6585 2.56 67.5567 2.56V1.56V0.559998C63.1777 0.559998 59.184 2.01119 55.6041 4.87513L56.2288 5.656ZM67.5567 1.56V2.56C70.1618 2.56 72.3927 3.04799 74.2775 3.99042L74.7247 3.096L75.172 2.20157C72.9608 1.096 70.413 0.559998 67.5567 0.559998V1.56ZM74.7247 3.096L74.2775 3.99042C76.1867 4.94499 77.6216 6.1975 78.6223 7.73698L79.4608 7.192L80.2992 6.64701C79.0812 4.77316 77.3588 3.295 75.172 2.20157L74.7247 3.096ZM62.0527 43.416V44.416C64.4018 44.416 66.3653 43.3698 67.8971 41.4073L67.1087 40.792L66.3204 40.1767C65.1215 41.7129 63.7144 42.416 62.0527 42.416V43.416ZM67.1087 40.792L67.8878 41.419C69.4073 39.5311 70.5263 37.1083 71.2771 34.1934L70.3088 33.944L69.3404 33.6946C68.6405 36.4117 67.6262 38.5542 66.3297 40.165L67.1087 40.792ZM70.3088 33.944L71.2762 34.197C72.7489 28.5661 73.4847 22.785 73.4847 16.856H72.4847H71.4847C71.4847 22.6176 70.7699 28.2285 69.3413 33.691L70.3088 33.944ZM72.4847 16.856H73.4847C73.4847 13.151 72.992 10.2162 71.8934 8.17421C71.336 7.13825 70.6111 6.31076 69.6994 5.74593C68.7849 5.17933 67.7387 4.912 66.5967 4.912V5.912V6.912C67.4174 6.912 68.0886 7.10066 68.6461 7.44607C69.2064 7.79323 69.7081 8.33375 70.1321 9.12179C70.9962 10.7278 71.4847 13.265 71.4847 16.856H72.4847ZM66.5967 5.912V4.912C63.9043 4.912 61.6913 6.5417 59.9263 9.34755L60.7728 9.88L61.6192 10.4124C63.1822 7.92763 64.8519 6.912 66.5967 6.912V5.912ZM60.7728 9.88L59.9243 9.35065C56.6728 14.5621 55.1008 21.6842 55.1008 30.616H56.1008H57.1008C57.1008 21.8838 58.6434 15.1819 61.6212 10.4093L60.7728 9.88ZM56.1008 30.616H55.1008C55.1008 33.0415 55.1703 35.0277 55.313 36.5645C55.4518 38.0593 55.6689 39.2561 56.0317 40.0098L56.9328 39.576L57.8338 39.1422C57.642 38.7439 57.443 37.8713 57.3045 36.3795C57.1698 34.9296 57.1008 33.0119 57.1008 30.616H56.1008ZM56.9328 39.576L56.0043 39.9474C56.2856 40.6508 56.6557 41.3651 57.1087 42.09L57.9567 41.56L58.8047 41.03C58.4045 40.3896 58.0919 39.7812 57.8612 39.2046L56.9328 39.576ZM57.9567 41.56L57.1071 42.0874C58.1187 43.7172 59.8787 44.416 62.0527 44.416V43.416V42.416C60.3014 42.416 59.3308 41.8775 58.8064 41.0326L57.9567 41.56ZM91.8603 1.56L91.8932 0.560539L91.8767 0.559998H91.8603V1.56ZM113.236 2.264L113.203 3.26345L113.23 3.26435L113.258 3.26377L113.236 2.264ZM119.252 2.136L120.242 1.99458L120.117 1.11738L119.231 1.13622L119.252 2.136ZM108.052 6.872L108.145 5.87634L107.145 5.78279L107.056 6.78346L108.052 6.872ZM106.132 16.728L107.105 16.96L106.132 16.728ZM102.932 31.64L103.914 31.83L102.932 31.64ZM101.332 45.912L101.789 46.8018L102.326 46.5262L102.332 45.9221L101.332 45.912ZM90.6442 47.192H89.6442V48.192H90.6442V47.192ZM94.2923 27.352L95.2687 27.5677L94.2923 27.352ZM97.8122 6.36L98.7928 6.16388L98.6321 5.36H97.8122V6.36ZM87.1882 7.96L86.3946 8.56843L86.9247 9.25986L87.6823 8.82945L87.1882 7.96ZM85.3962 2.328L85.0634 1.38501L84.3335 1.64265L84.3999 2.41389L85.3962 2.328ZM91.8603 1.56L91.8273 2.55946L113.203 3.26345L113.236 2.264L113.269 1.26454L91.8932 0.560539L91.8603 1.56ZM113.236 2.264L113.258 3.26377L119.274 3.13577L119.252 2.136L119.231 1.13622L113.215 1.26422L113.236 2.264ZM119.252 2.136L118.262 2.27742C118.383 3.12285 118.444 4.01407 118.444 4.952H119.444H120.444C120.444 3.92726 120.377 2.94114 120.242 1.99458L119.252 2.136ZM119.444 4.952H118.444C118.444 5.86661 118.276 6.28402 118.151 6.4393L118.932 7.064L119.713 7.6887C120.272 6.99064 120.444 6.00006 120.444 4.952H119.444ZM118.932 7.064L118.151 6.4393C118.094 6.51124 117.86 6.704 117.076 6.704V7.704V8.704C118.084 8.704 119.088 8.47009 119.713 7.6887L118.932 7.064ZM117.076 7.704V6.704C117.121 6.704 117.13 6.70632 116.992 6.69459C116.892 6.68612 116.746 6.67329 116.554 6.65599C116.168 6.62144 115.6 6.56954 114.848 6.50022C113.345 6.36162 111.111 6.15367 108.145 5.87634L108.052 6.872L107.959 7.86765C110.925 8.145 113.16 8.35305 114.664 8.49178C115.417 8.56113 115.987 8.61322 116.375 8.648C116.569 8.66538 116.718 8.67854 116.823 8.68741C116.888 8.69301 117.01 8.704 117.076 8.704V7.704ZM108.052 6.872L107.056 6.78346C106.893 8.62264 106.269 11.8436 105.16 16.496L106.132 16.728L107.105 16.96C108.214 12.311 108.87 8.96136 109.048 6.96054L108.052 6.872ZM106.132 16.728L105.16 16.496C104.047 21.1622 102.977 26.147 101.95 31.45L102.932 31.64L103.914 31.83C104.936 26.5517 105.999 21.5951 107.105 16.96L106.132 16.728ZM102.932 31.64L101.95 31.45C100.918 36.7846 100.376 41.6037 100.332 45.9019L101.332 45.912L102.332 45.9221C102.374 41.7723 102.899 37.0767 103.914 31.83L102.932 31.64ZM101.332 45.912L100.876 45.0222C100.201 45.3681 99.0714 45.6708 97.4002 45.8797C95.7496 46.0861 93.6504 46.192 91.0922 46.192V47.192V48.192C93.6967 48.192 95.8856 48.0846 97.6483 47.8643C99.3905 47.6465 100.799 47.3092 101.789 46.8018L101.332 45.912ZM91.0922 47.192V46.192H90.6442V47.192V48.192H91.0922V47.192ZM90.6442 47.192H91.6442C91.6442 46.1893 91.9288 44.0715 92.5398 40.7488C93.1447 37.459 94.0538 33.0667 95.2687 27.5677L94.2923 27.352L93.3158 27.1363C92.0987 32.6453 91.1838 37.0637 90.5727 40.3872C89.9677 43.6778 89.6442 45.976 89.6442 47.192H90.6442ZM94.2923 27.352L95.2687 27.5677C96.4859 22.0582 97.4009 17.6177 98.0122 14.2506C98.6181 10.9129 98.9402 8.55452 98.9402 7.256H97.9402H96.9402C96.9402 8.34681 96.6544 10.5324 96.0443 13.8934C95.4396 17.2249 94.5306 21.6378 93.3158 27.1363L94.2923 27.352ZM97.9402 7.256H98.9402C98.9402 6.97424 98.8773 6.58601 98.7928 6.16388L97.8122 6.36L96.8317 6.55611C96.9179 6.98733 96.9402 7.19642 96.9402 7.256H97.9402ZM97.8122 6.36V5.36H95.2523V6.36V7.36H97.8122V6.36ZM95.2523 6.36V5.36C91.6767 5.36 88.7882 5.90081 86.6942 7.09054L87.1882 7.96L87.6823 8.82945C89.343 7.88586 91.8305 7.36 95.2523 7.36V6.36ZM87.1882 7.96L87.9819 7.35157C87.1633 6.2839 86.5977 4.62166 86.3926 2.24211L85.3962 2.328L84.3999 2.41389C84.6215 4.98367 85.2505 7.0761 86.3946 8.56843L87.1882 7.96ZM85.3962 2.328L85.7291 3.27099C87.0171 2.81638 89.035 2.56 91.8603 2.56V1.56V0.559998C88.9681 0.559998 86.6767 0.815619 85.0634 1.38501L85.3962 2.328Z" fill="#FF5959" mask="url(#path-1-outside-1_911_1162)"/>
</svg>
