<svg width="193" height="115" viewBox="0 0 193 115" fill="none" xmlns="http://www.w3.org/2000/svg">
<mask id="path-1-outside-1_944_1161" maskUnits="userSpaceOnUse" x="32" y="19" width="135" height="49" fill="black">
<rect fill="white" x="32" y="19" width="135" height="49"/>
<path d="M34.907 66.256H33.691C33.8617 64.336 34.9923 58.704 37.083 49.36C39.1737 39.9733 40.475 32.9547 40.987 28.304C40.987 27.6213 40.7523 26.8107 40.283 25.872C39.8563 24.8907 39.4083 24.1013 38.939 23.504L38.299 22.608L38.491 21.648C40.8803 20.9227 44.9977 20.56 50.843 20.56C51.3977 21.584 51.675 22.5867 51.675 23.568C51.675 24.5493 51.5897 25.7653 51.419 27.216C56.7523 22.7787 61.1043 20.56 64.475 20.56C66.6937 20.56 68.4857 21.2853 69.851 22.736C71.2163 24.1867 71.899 26.2133 71.899 28.816C71.899 31.4187 70.9817 36.3893 69.147 43.728C67.355 51.024 66.459 56.1227 66.459 59.024C66.459 60.2613 66.6723 60.88 67.099 60.88C67.483 60.88 68.5497 60.4533 70.299 59.6L71.131 59.216L72.411 61.584C70.619 63.12 68.763 64.3787 66.843 65.36C64.923 66.2987 63.1737 66.768 61.595 66.768C60.059 66.768 58.8003 66.2133 57.819 65.104C56.8377 63.952 56.347 62.416 56.347 60.496C56.347 58.5333 57.2217 53.6907 58.971 45.968C60.763 38.2453 61.659 33.3173 61.659 31.184C61.659 29.0507 60.827 27.984 59.163 27.984C56.6457 27.984 53.787 29.2427 50.587 31.76C50.1177 34.0213 49.243 37.7973 47.963 43.088C45.147 54.736 43.739 62.032 43.739 64.976C42.075 65.8293 39.131 66.256 34.907 66.256ZM89.1235 66.768C86.1368 66.768 83.2782 65.9147 80.5475 64.208C79.1822 63.3547 78.0515 62.16 77.1555 60.624C76.3022 59.088 75.8755 57.3173 75.8755 55.312C75.8755 51.5147 77.1342 48.4213 79.6515 46.032C82.1688 43.6427 85.1982 42.256 88.7395 41.872C86.3502 41.232 84.4302 40.1227 82.9795 38.544C81.5715 36.9653 80.8675 34.96 80.8675 32.528C80.8675 28.8587 82.2968 25.9573 85.1555 23.824C88.0568 21.648 91.3635 20.56 95.0755 20.56C98.7875 20.56 101.881 21.3493 104.356 22.928C106.83 24.5067 108.068 26.64 108.068 29.328C108.068 30.2667 107.897 31.184 107.556 32.08C107.257 32.976 106.937 33.616 106.596 34L106.148 34.64C104.782 34.64 103.268 34.4053 101.604 33.936C99.9822 33.4667 98.7875 32.8693 98.0195 32.144L98.7875 25.552C98.1475 24.912 97.0595 24.592 95.5235 24.592C94.0302 24.592 92.8355 25.3813 91.9395 26.96C91.0862 28.496 90.6595 30.2667 90.6595 32.272C90.6595 34.2773 90.8942 35.792 91.3635 36.816C91.8328 37.84 92.4942 38.6293 93.3475 39.184C94.6702 40.0373 96.2275 40.6347 98.0195 40.976L97.5075 44.496C94.4355 44.496 91.7688 45.4133 89.5075 47.248C87.2462 49.04 86.1155 51.4293 86.1155 54.416C86.1155 56.2933 86.7128 57.8507 87.9075 59.088C89.1448 60.2827 90.7235 60.88 92.6435 60.88C96.1422 60.88 99.7262 59.1093 103.396 55.568L105.956 57.936C101.006 63.824 95.3955 66.768 89.1235 66.768ZM113.613 58.128C113.613 58.128 113.762 51.3653 114.061 37.84C114.061 32.464 113.741 29.008 113.101 27.472L109.965 22.608L110.157 21.648C113.186 20.9653 117.538 20.624 123.213 20.624C124.024 21.8613 124.429 24.1653 124.429 27.536C124.429 30.864 124.216 35.3653 123.789 41.04C123.362 46.672 123.149 51.024 123.149 54.096C123.149 57.168 123.874 58.704 125.325 58.704C126.178 58.704 127.416 58.0213 129.037 56.656C130.658 55.248 132.045 53.7333 133.197 52.112C134.136 42.4693 134.605 35.9627 134.605 32.592C134.605 29.2213 134.136 26.0853 133.197 23.184C135.458 22.032 139.17 21.1573 144.333 20.56C144.802 22.096 145.037 24.272 145.037 27.088C145.037 29.8613 144.589 34.704 143.693 41.616C142.84 48.528 142.413 53.1147 142.413 55.376C142.413 57.5947 143.053 58.704 144.333 58.704C145.656 58.704 147.426 57.4667 149.645 54.992C151.864 52.5173 153.89 49.4453 155.725 45.776C157.602 42.064 158.648 38.7147 158.861 35.728L152.077 31.76C152.376 29.2 152.973 27.0027 153.869 25.168C154.808 23.2907 155.661 22.0533 156.429 21.456L157.581 20.56C160.184 20.56 162.168 21.2427 163.533 22.608C164.941 23.9307 165.645 25.5093 165.645 27.344C165.645 30.8 164.77 34.832 163.021 39.44C161.314 44.048 159.181 48.3573 156.621 52.368C154.104 56.3787 151.224 59.792 147.981 62.608C144.738 65.3813 141.752 66.768 139.021 66.768C137.4 66.768 135.949 66 134.669 64.464C133.432 62.928 132.792 60.9653 132.749 58.576C130.872 61.136 128.888 63.1413 126.797 64.592C124.706 66.0427 122.701 66.768 120.781 66.768C118.861 66.768 117.176 65.9787 115.725 64.4C114.317 62.7787 113.613 60.688 113.613 58.128Z"/>
</mask>
<path d="M34.907 66.256H33.691C33.8617 64.336 34.9923 58.704 37.083 49.36C39.1737 39.9733 40.475 32.9547 40.987 28.304C40.987 27.6213 40.7523 26.8107 40.283 25.872C39.8563 24.8907 39.4083 24.1013 38.939 23.504L38.299 22.608L38.491 21.648C40.8803 20.9227 44.9977 20.56 50.843 20.56C51.3977 21.584 51.675 22.5867 51.675 23.568C51.675 24.5493 51.5897 25.7653 51.419 27.216C56.7523 22.7787 61.1043 20.56 64.475 20.56C66.6937 20.56 68.4857 21.2853 69.851 22.736C71.2163 24.1867 71.899 26.2133 71.899 28.816C71.899 31.4187 70.9817 36.3893 69.147 43.728C67.355 51.024 66.459 56.1227 66.459 59.024C66.459 60.2613 66.6723 60.88 67.099 60.88C67.483 60.88 68.5497 60.4533 70.299 59.6L71.131 59.216L72.411 61.584C70.619 63.12 68.763 64.3787 66.843 65.36C64.923 66.2987 63.1737 66.768 61.595 66.768C60.059 66.768 58.8003 66.2133 57.819 65.104C56.8377 63.952 56.347 62.416 56.347 60.496C56.347 58.5333 57.2217 53.6907 58.971 45.968C60.763 38.2453 61.659 33.3173 61.659 31.184C61.659 29.0507 60.827 27.984 59.163 27.984C56.6457 27.984 53.787 29.2427 50.587 31.76C50.1177 34.0213 49.243 37.7973 47.963 43.088C45.147 54.736 43.739 62.032 43.739 64.976C42.075 65.8293 39.131 66.256 34.907 66.256ZM89.1235 66.768C86.1368 66.768 83.2782 65.9147 80.5475 64.208C79.1822 63.3547 78.0515 62.16 77.1555 60.624C76.3022 59.088 75.8755 57.3173 75.8755 55.312C75.8755 51.5147 77.1342 48.4213 79.6515 46.032C82.1688 43.6427 85.1982 42.256 88.7395 41.872C86.3502 41.232 84.4302 40.1227 82.9795 38.544C81.5715 36.9653 80.8675 34.96 80.8675 32.528C80.8675 28.8587 82.2968 25.9573 85.1555 23.824C88.0568 21.648 91.3635 20.56 95.0755 20.56C98.7875 20.56 101.881 21.3493 104.356 22.928C106.83 24.5067 108.068 26.64 108.068 29.328C108.068 30.2667 107.897 31.184 107.556 32.08C107.257 32.976 106.937 33.616 106.596 34L106.148 34.64C104.782 34.64 103.268 34.4053 101.604 33.936C99.9822 33.4667 98.7875 32.8693 98.0195 32.144L98.7875 25.552C98.1475 24.912 97.0595 24.592 95.5235 24.592C94.0302 24.592 92.8355 25.3813 91.9395 26.96C91.0862 28.496 90.6595 30.2667 90.6595 32.272C90.6595 34.2773 90.8942 35.792 91.3635 36.816C91.8328 37.84 92.4942 38.6293 93.3475 39.184C94.6702 40.0373 96.2275 40.6347 98.0195 40.976L97.5075 44.496C94.4355 44.496 91.7688 45.4133 89.5075 47.248C87.2462 49.04 86.1155 51.4293 86.1155 54.416C86.1155 56.2933 86.7128 57.8507 87.9075 59.088C89.1448 60.2827 90.7235 60.88 92.6435 60.88C96.1422 60.88 99.7262 59.1093 103.396 55.568L105.956 57.936C101.006 63.824 95.3955 66.768 89.1235 66.768ZM113.613 58.128C113.613 58.128 113.762 51.3653 114.061 37.84C114.061 32.464 113.741 29.008 113.101 27.472L109.965 22.608L110.157 21.648C113.186 20.9653 117.538 20.624 123.213 20.624C124.024 21.8613 124.429 24.1653 124.429 27.536C124.429 30.864 124.216 35.3653 123.789 41.04C123.362 46.672 123.149 51.024 123.149 54.096C123.149 57.168 123.874 58.704 125.325 58.704C126.178 58.704 127.416 58.0213 129.037 56.656C130.658 55.248 132.045 53.7333 133.197 52.112C134.136 42.4693 134.605 35.9627 134.605 32.592C134.605 29.2213 134.136 26.0853 133.197 23.184C135.458 22.032 139.17 21.1573 144.333 20.56C144.802 22.096 145.037 24.272 145.037 27.088C145.037 29.8613 144.589 34.704 143.693 41.616C142.84 48.528 142.413 53.1147 142.413 55.376C142.413 57.5947 143.053 58.704 144.333 58.704C145.656 58.704 147.426 57.4667 149.645 54.992C151.864 52.5173 153.89 49.4453 155.725 45.776C157.602 42.064 158.648 38.7147 158.861 35.728L152.077 31.76C152.376 29.2 152.973 27.0027 153.869 25.168C154.808 23.2907 155.661 22.0533 156.429 21.456L157.581 20.56C160.184 20.56 162.168 21.2427 163.533 22.608C164.941 23.9307 165.645 25.5093 165.645 27.344C165.645 30.8 164.77 34.832 163.021 39.44C161.314 44.048 159.181 48.3573 156.621 52.368C154.104 56.3787 151.224 59.792 147.981 62.608C144.738 65.3813 141.752 66.768 139.021 66.768C137.4 66.768 135.949 66 134.669 64.464C133.432 62.928 132.792 60.9653 132.749 58.576C130.872 61.136 128.888 63.1413 126.797 64.592C124.706 66.0427 122.701 66.768 120.781 66.768C118.861 66.768 117.176 65.9787 115.725 64.4C114.317 62.7787 113.613 60.688 113.613 58.128Z" fill="#FFEEBC"/>
<path d="M33.691 66.256L32.6949 66.1675L32.5982 67.256H33.691V66.256ZM37.083 49.36L38.0589 49.5783L38.0591 49.5774L37.083 49.36ZM40.987 28.304L41.981 28.4134L41.987 28.3589V28.304H40.987ZM40.283 25.872L39.3659 26.2707L39.3766 26.2953L39.3886 26.3192L40.283 25.872ZM38.939 23.504L38.1253 24.0852L38.1386 24.1038L38.1527 24.1218L38.939 23.504ZM38.299 22.608L37.3184 22.4119L37.2335 22.8367L37.4853 23.1892L38.299 22.608ZM38.491 21.648L38.2005 20.6911L37.6278 20.865L37.5104 21.4519L38.491 21.648ZM50.843 20.56L51.7223 20.0837L51.4386 19.56H50.843V20.56ZM51.419 27.216L50.4259 27.0992L50.1332 29.5866L52.0586 27.9847L51.419 27.216ZM69.851 22.736L70.5792 22.0506L70.5792 22.0506L69.851 22.736ZM69.147 43.728L68.1769 43.4855L68.1759 43.4895L69.147 43.728ZM70.299 59.6L69.8799 58.692L69.8702 58.6965L69.8606 58.7012L70.299 59.6ZM71.131 59.216L72.0107 58.7405L71.5643 57.9146L70.7119 58.308L71.131 59.216ZM72.411 61.584L73.0618 62.3433L73.6743 61.8182L73.2907 61.1085L72.411 61.584ZM66.843 65.36L67.2822 66.2584L67.2902 66.2545L67.2981 66.2504L66.843 65.36ZM57.819 65.104L57.0578 65.7525L57.0638 65.7596L57.07 65.7666L57.819 65.104ZM58.971 45.968L57.9969 45.742L57.9957 45.7471L58.971 45.968ZM50.587 31.76L49.9687 30.974L49.682 31.1996L49.6079 31.5568L50.587 31.76ZM47.963 43.088L46.991 42.8528L46.991 42.853L47.963 43.088ZM43.739 64.976L44.1953 65.8658L44.739 65.587V64.976H43.739ZM34.907 66.256V65.256H33.691V66.256V67.256H34.907V66.256ZM33.691 66.256L34.6871 66.3445C34.8504 64.5071 35.9608 58.9555 38.0589 49.5783L37.083 49.36L36.1071 49.1417C34.0239 58.4525 32.8729 64.1649 32.6949 66.1675L33.691 66.256ZM37.083 49.36L38.0591 49.5774C40.1512 40.184 41.4627 33.1212 41.981 28.4134L40.987 28.304L39.993 28.1946C39.4873 32.7882 38.1961 39.7626 36.1069 49.1426L37.083 49.36ZM40.987 28.304H41.987C41.987 27.4049 41.6824 26.4347 41.1774 25.4248L40.283 25.872L39.3886 26.3192C39.8223 27.1867 39.987 27.8377 39.987 28.304H40.987ZM40.283 25.872L41.2001 25.4733C40.752 24.4428 40.264 23.5718 39.7253 22.8862L38.939 23.504L38.1527 24.1218C38.5527 24.6309 38.9606 25.3385 39.3659 26.2707L40.283 25.872ZM38.939 23.504L39.7527 22.9228L39.1127 22.0268L38.299 22.608L37.4853 23.1892L38.1253 24.0852L38.939 23.504ZM38.299 22.608L39.2796 22.8041L39.4716 21.8441L38.491 21.648L37.5104 21.4519L37.3184 22.4119L38.299 22.608ZM38.491 21.648L38.7815 22.6049C41.0153 21.9268 44.9998 21.56 50.843 21.56V20.56V19.56C44.9955 19.56 40.7454 19.9186 38.2005 20.6911L38.491 21.648ZM50.843 20.56L49.9637 21.0363C50.4539 21.9413 50.675 22.7815 50.675 23.568H51.675H52.675C52.675 22.3918 52.3414 21.2267 51.7223 20.0837L50.843 20.56ZM51.675 23.568H50.675C50.675 24.4964 50.5939 25.6705 50.4259 27.0992L51.419 27.216L52.4122 27.3328C52.5854 25.8602 52.675 24.6022 52.675 23.568H51.675ZM51.419 27.216L52.0586 27.9847C57.3709 23.5648 61.4837 21.56 64.475 21.56V20.56V19.56C60.725 19.56 56.1337 21.9925 50.7794 26.4473L51.419 27.216ZM64.475 20.56V21.56C66.4526 21.56 67.969 22.1954 69.1228 23.4214L69.851 22.736L70.5792 22.0506C69.0024 20.3753 66.9347 19.56 64.475 19.56V20.56ZM69.851 22.736L69.1228 23.4214C70.2653 24.6352 70.899 26.3876 70.899 28.816H71.899H72.899C72.899 26.0391 72.1674 23.7381 70.5792 22.0506L69.851 22.736ZM71.899 28.816H70.899C70.899 31.276 70.016 36.1289 68.1769 43.4855L69.147 43.728L70.1171 43.9705C71.9473 36.6498 72.899 31.5613 72.899 28.816H71.899ZM69.147 43.728L68.1759 43.4895C66.3856 50.7783 65.459 55.9863 65.459 59.024H66.459H67.459C67.459 56.259 68.3244 51.2697 70.1181 43.9665L69.147 43.728ZM66.459 59.024H65.459C65.459 59.6732 65.5116 60.272 65.6736 60.742C65.8318 61.2006 66.2413 61.88 67.099 61.88V60.88V59.88C67.2638 59.88 67.4165 59.9507 67.514 60.045C67.5879 60.1164 67.5887 60.1605 67.5644 60.09C67.5131 59.9413 67.459 59.6122 67.459 59.024H66.459ZM67.099 60.88V61.88C67.3434 61.88 67.5948 61.8189 67.7972 61.7594C68.0199 61.6939 68.2758 61.6015 68.5584 61.4885C69.1246 61.262 69.8536 60.9299 70.7374 60.4988L70.299 59.6L69.8606 58.7012C68.9951 59.1234 68.316 59.4313 67.8156 59.6315C67.5649 59.7318 67.3728 59.7995 67.2328 59.8406C67.0726 59.8878 67.0466 59.88 67.099 59.88V60.88ZM70.299 59.6L70.7181 60.508L71.5501 60.124L71.131 59.216L70.7119 58.308L69.8799 58.692L70.299 59.6ZM71.131 59.216L70.2513 59.6915L71.5313 62.0595L72.411 61.584L73.2907 61.1085L72.0107 58.7405L71.131 59.216ZM72.411 61.584L71.7602 60.8247C70.0225 62.3142 68.2315 63.5273 66.3879 64.4696L66.843 65.36L67.2981 66.2504C69.2945 65.23 71.2155 63.9258 73.0618 62.3433L72.411 61.584ZM66.843 65.36L66.4038 64.4616C64.5746 65.3559 62.9775 65.768 61.595 65.768V66.768V67.768C63.3699 67.768 65.2714 67.2415 67.2822 66.2584L66.843 65.36ZM61.595 66.768V65.768C60.3334 65.768 59.3517 65.3273 58.568 64.4414L57.819 65.104L57.07 65.7666C58.249 67.0994 59.7846 67.768 61.595 67.768V66.768ZM57.819 65.104L58.5802 64.4555C57.7908 63.5288 57.347 62.2439 57.347 60.496H56.347H55.347C55.347 62.5881 55.8845 64.3752 57.0578 65.7525L57.819 65.104ZM56.347 60.496H57.347C57.347 59.6147 57.5492 57.994 57.9871 55.5697C58.4207 53.1688 59.0732 50.0434 59.9463 46.1889L58.971 45.968L57.9957 45.7471C57.1195 49.6153 56.4599 52.7725 56.0189 55.2143C55.5821 57.6327 55.347 59.4146 55.347 60.496H56.347ZM58.971 45.968L59.9451 46.194C60.8429 42.3249 61.5188 39.145 61.9709 36.6589C62.4192 34.1933 62.659 32.3495 62.659 31.184H61.659H60.659C60.659 32.1519 60.4508 33.8387 60.0031 36.3011C59.5592 38.743 58.8911 41.8884 57.9969 45.742L58.971 45.968ZM61.659 31.184H62.659C62.659 30.0148 62.4357 28.9538 61.8235 28.169C61.1745 27.3369 60.2246 26.984 59.163 26.984V27.984V28.984C59.7654 28.984 60.0635 29.1645 60.2465 29.399C60.4663 29.6808 60.659 30.2198 60.659 31.184H61.659ZM59.163 27.984V26.984C56.3201 26.984 53.2441 28.3974 49.9687 30.974L50.587 31.76L51.2053 32.546C54.3299 30.0879 56.9712 28.984 59.163 28.984V27.984ZM50.587 31.76L49.6079 31.5568C49.1422 33.8005 48.271 37.5625 46.991 42.8528L47.963 43.088L48.935 43.3232C50.215 38.0322 51.0932 34.2421 51.5661 31.9632L50.587 31.76ZM47.963 43.088L46.991 42.853C45.5813 48.6842 44.5213 53.437 43.8131 57.1065C43.1098 60.7509 42.739 63.397 42.739 64.976H43.739H44.739C44.739 63.611 45.0722 61.1371 45.7769 57.4855C46.4767 53.859 47.5287 49.1398 48.935 43.323L47.963 43.088ZM43.739 64.976L43.2827 64.0862C41.8514 64.8202 39.1242 65.256 34.907 65.256V66.256V67.256C39.1378 67.256 42.2986 66.8385 44.1953 65.8658L43.739 64.976ZM80.5475 64.208L80.0175 65.056L80.0175 65.056L80.5475 64.208ZM77.1555 60.624L76.2813 61.1096L76.2864 61.1188L76.2917 61.1279L77.1555 60.624ZM79.6515 46.032L80.3399 46.7573L80.3399 46.7573L79.6515 46.032ZM88.7395 41.872L88.8473 42.8662L88.9982 40.9061L88.7395 41.872ZM82.9795 38.544L82.2332 39.2096L82.2381 39.2152L82.2432 39.2206L82.9795 38.544ZM85.1555 23.824L85.7536 24.6254L85.7555 24.624L85.1555 23.824ZM107.556 32.08L106.621 31.724L106.613 31.7437L106.607 31.7638L107.556 32.08ZM106.596 34L105.848 33.3356L105.81 33.379L105.776 33.4265L106.596 34ZM106.148 34.64V35.64H106.668L106.967 35.2135L106.148 34.64ZM101.604 33.936L101.325 34.8966L101.332 34.8984L101.604 33.936ZM98.0195 32.144L97.0262 32.0283L96.9682 32.5266L97.3329 32.871L98.0195 32.144ZM98.7875 25.552L99.7808 25.6677L99.8368 25.1871L99.4946 24.8449L98.7875 25.552ZM91.9395 26.96L91.0698 26.4664L91.0653 26.4744L91.9395 26.96ZM91.3635 36.816L92.2726 36.3993L92.2726 36.3993L91.3635 36.816ZM93.3475 39.184L92.8025 40.0224L92.8054 40.0243L93.3475 39.184ZM98.0195 40.976L99.0091 41.1199L99.1469 40.1728L98.2066 39.9937L98.0195 40.976ZM97.5075 44.496V45.496H98.3726L98.4971 44.6399L97.5075 44.496ZM89.5075 47.248L90.1286 48.0318L90.1375 48.0246L89.5075 47.248ZM87.9075 59.088L87.1881 59.7826L87.2003 59.7952L87.2129 59.8074L87.9075 59.088ZM103.396 55.568L104.075 54.8339L103.381 54.1923L102.701 54.8485L103.396 55.568ZM105.956 57.936L106.721 58.5795L107.335 57.8495L106.635 57.2019L105.956 57.936ZM89.1235 66.768V65.768C86.3389 65.768 83.6622 64.9754 81.0775 63.36L80.5475 64.208L80.0175 65.056C82.8942 66.8539 85.9347 67.768 89.1235 67.768V66.768ZM80.5475 64.208L81.0775 63.36C79.8636 62.6013 78.8423 61.5309 78.0193 60.1201L77.1555 60.624L76.2917 61.1279C77.2607 62.7891 78.5007 64.108 80.0175 65.056L80.5475 64.208ZM77.1555 60.624L78.0297 60.1384C77.2699 58.7708 76.8755 57.1717 76.8755 55.312H75.8755H74.8755C74.8755 57.463 75.3344 59.4052 76.2813 61.1096L77.1555 60.624ZM75.8755 55.312H76.8755C76.8755 51.7603 78.0414 48.939 80.3399 46.7573L79.6515 46.032L78.9631 45.3067C76.227 47.9037 74.8755 51.269 74.8755 55.312H75.8755ZM79.6515 46.032L80.3399 46.7573C82.6939 44.523 85.5176 43.2272 88.8473 42.8662L88.7395 41.872L88.6317 40.8778C84.8788 41.2848 81.6437 42.7623 78.9631 45.3067L79.6515 46.032ZM88.7395 41.872L88.9982 40.9061C86.7635 40.3075 85.0192 39.2857 83.7158 37.8674L82.9795 38.544L82.2432 39.2206C83.8411 40.9596 85.9368 42.1565 88.4808 42.8379L88.7395 41.872ZM82.9795 38.544L83.7258 37.8784C82.5055 36.5102 81.8675 34.7537 81.8675 32.528H80.8675H79.8675C79.8675 35.1663 80.6375 37.4205 82.2332 39.2096L82.9795 38.544ZM80.8675 32.528H81.8675C81.8675 29.1636 83.1563 26.5637 85.7536 24.6254L85.1555 23.824L84.5574 23.0226C81.4374 25.3509 79.8675 28.5537 79.8675 32.528H80.8675ZM85.1555 23.824L85.7555 24.624C88.4794 22.5811 91.5744 21.56 95.0755 21.56V20.56V19.56C91.1526 19.56 87.6343 20.7149 84.5555 23.024L85.1555 23.824ZM95.0755 20.56V21.56C98.647 21.56 101.541 22.3188 103.818 23.7711L104.356 22.928L104.893 22.0849C102.22 20.3798 98.928 19.56 95.0755 19.56V20.56ZM104.356 22.928L103.818 23.7711C106.036 25.1862 107.068 27.0173 107.068 29.328H108.068H109.068C109.068 26.2626 107.624 23.8271 104.893 22.0849L104.356 22.928ZM108.068 29.328H107.068C107.068 30.1424 106.92 30.9392 106.621 31.724L107.556 32.08L108.49 32.436C108.874 31.4288 109.068 30.391 109.068 29.328H108.068ZM107.556 32.08L106.607 31.7638C106.321 32.621 106.053 33.1053 105.848 33.3356L106.596 34L107.343 34.6644C107.821 34.1267 108.193 33.331 108.504 32.3962L107.556 32.08ZM106.596 34L105.776 33.4265L105.328 34.0665L106.148 34.64L106.967 35.2135L107.415 34.5735L106.596 34ZM106.148 34.64V33.64C104.895 33.64 103.473 33.4243 101.875 32.9735L101.604 33.936L101.332 34.8984C103.062 35.3864 104.67 35.64 106.148 35.64V34.64ZM101.604 33.936L101.882 32.9754C100.331 32.5267 99.3094 31.9867 98.7061 31.417L98.0195 32.144L97.3329 32.871C98.2656 33.752 99.633 34.4066 101.325 34.8966L101.604 33.936ZM98.0195 32.144L99.0128 32.2597L99.7808 25.6677L98.7875 25.552L97.7942 25.4363L97.0262 32.0283L98.0195 32.144ZM98.7875 25.552L99.4946 24.8449C98.5724 23.9227 97.1513 23.592 95.5235 23.592V24.592V25.592C96.9677 25.592 97.7226 25.9013 98.0804 26.2591L98.7875 25.552ZM95.5235 24.592V23.592C93.5872 23.592 92.0983 24.6543 91.0698 26.4664L91.9395 26.96L92.8092 27.4536C93.5727 26.1084 94.4731 25.592 95.5235 25.592V24.592ZM91.9395 26.96L91.0653 26.4744C90.1184 28.1788 89.6595 30.121 89.6595 32.272H90.6595H91.6595C91.6595 30.4123 92.0539 28.8132 92.8137 27.4456L91.9395 26.96ZM90.6595 32.272H89.6595C89.6595 34.326 89.8953 36.0127 90.4544 37.2327L91.3635 36.816L92.2726 36.3993C91.893 35.5713 91.6595 34.2287 91.6595 32.272H90.6595ZM91.3635 36.816L90.4544 37.2327C90.994 38.4099 91.7736 39.3537 92.8025 40.0224L93.3475 39.184L93.8925 38.3456C93.2147 37.905 92.6717 37.2701 92.2726 36.3993L91.3635 36.816ZM93.3475 39.184L92.8054 40.0243C94.2519 40.9575 95.9339 41.5967 97.8324 41.9583L98.0195 40.976L98.2066 39.9937C96.5211 39.6726 95.0884 39.1171 93.8896 38.3437L93.3475 39.184ZM98.0195 40.976L97.0299 40.8321L96.5179 44.3521L97.5075 44.496L98.4971 44.6399L99.0091 41.1199L98.0195 40.976ZM97.5075 44.496V43.496C94.2197 43.496 91.3272 44.4839 88.8775 46.4714L89.5075 47.248L90.1375 48.0246C92.2104 46.3428 94.6513 45.496 97.5075 45.496V44.496ZM89.5075 47.248L88.8864 46.4643C86.3761 48.4535 85.1155 51.1364 85.1155 54.416H86.1155H87.1155C87.1155 51.7223 88.1162 49.6265 90.1286 48.0317L89.5075 47.248ZM86.1155 54.416H85.1155C85.1155 56.5265 85.7962 58.341 87.1881 59.7826L87.9075 59.088L88.6269 58.3934C87.6295 57.3604 87.1155 56.0602 87.1155 54.416H86.1155ZM87.9075 59.088L87.2129 59.8074C88.659 61.2036 90.4972 61.88 92.6435 61.88V60.88V59.88C90.9498 59.88 89.6307 59.3617 88.6021 58.3686L87.9075 59.088ZM92.6435 60.88V61.88C96.499 61.88 100.319 59.927 104.09 56.2875L103.396 55.568L102.701 54.8485C99.1333 58.2917 95.7853 59.88 92.6435 59.88V60.88ZM103.396 55.568L102.716 56.3021L105.276 58.6701L105.956 57.936L106.635 57.2019L104.075 54.8339L103.396 55.568ZM105.956 57.936L105.19 57.2925C100.384 63.0105 95.0342 65.768 89.1235 65.768V66.768V67.768C95.7568 67.768 101.629 64.6375 106.721 58.5795L105.956 57.936ZM113.613 58.128L112.613 58.1059L112.613 58.117V58.128H113.613ZM114.061 37.84L115.061 37.8621L115.061 37.851V37.84H114.061ZM113.101 27.472L114.024 27.0874L113.99 27.0051L113.941 26.9301L113.101 27.472ZM109.965 22.608L108.984 22.4119L108.905 22.8093L109.125 23.1499L109.965 22.608ZM110.157 21.648L109.937 20.6725L109.304 20.8152L109.176 21.4519L110.157 21.648ZM123.213 20.624L124.049 20.076L123.753 19.624H123.213V20.624ZM123.789 41.04L124.786 41.1155L124.786 41.115L123.789 41.04ZM129.037 56.656L129.681 57.4209L129.687 57.416L129.693 57.411L129.037 56.656ZM133.197 52.112L134.012 52.6912L134.166 52.474L134.192 52.2089L133.197 52.112ZM133.197 23.184L132.743 22.293L131.983 22.6802L132.246 23.4918L133.197 23.184ZM144.333 20.56L145.289 20.2678L145.046 19.4708L144.218 19.5666L144.333 20.56ZM143.693 41.616L142.701 41.4874L142.701 41.4935L143.693 41.616ZM149.645 54.992L148.9 54.3245L148.9 54.3245L149.645 54.992ZM155.725 45.776L154.833 45.3247L154.831 45.3288L155.725 45.776ZM158.861 35.728L159.858 35.7992L159.903 35.1788L159.366 34.8648L158.861 35.728ZM152.077 31.76L151.084 31.6441L151.008 32.2932L151.572 32.6232L152.077 31.76ZM153.869 25.168L152.975 24.7208L152.97 24.7292L153.869 25.168ZM156.429 21.456L155.815 20.6666L156.429 21.456ZM157.581 20.56V19.56H157.238L156.967 19.7706L157.581 20.56ZM163.533 22.608L162.826 23.3151L162.837 23.3262L162.848 23.3368L163.533 22.608ZM163.021 39.44L162.086 39.0851L162.083 39.0927L163.021 39.44ZM156.621 52.368L155.778 51.8299L155.774 51.8364L156.621 52.368ZM147.981 62.608L148.631 63.368L148.637 63.363L147.981 62.608ZM134.669 64.464L133.89 65.0913L133.895 65.0978L133.901 65.1042L134.669 64.464ZM132.749 58.576L133.749 58.5581L133.696 55.5938L131.943 57.9846L132.749 58.576ZM126.797 64.592L126.227 63.7704L126.227 63.7704L126.797 64.592ZM115.725 64.4L114.97 65.0557L114.979 65.0663L114.989 65.0766L115.725 64.4ZM113.613 58.128C114.613 58.1501 114.613 58.1501 114.613 58.15C114.613 58.1499 114.613 58.1499 114.613 58.1498C114.613 58.1497 114.613 58.1495 114.613 58.1494C114.613 58.1492 114.613 58.149 114.613 58.1488C114.613 58.1486 114.613 58.1484 114.613 58.1481C114.613 58.1479 114.613 58.1476 114.613 58.1473C114.613 58.147 114.613 58.1466 114.613 58.1463C114.613 58.1459 114.613 58.1455 114.613 58.1451C114.613 58.1334 114.613 58.1515 114.613 58.1389C114.613 58.1198 114.613 58.1502 114.613 58.1303C114.615 58.0654 114.612 58.1736 114.614 58.1055C114.614 58.1041 114.614 58.0994 114.614 58.0978C114.614 58.0964 114.614 58.0951 114.614 58.0937C114.614 58.0923 114.614 58.0908 114.614 58.0894C114.615 58.0637 114.614 58.1063 114.614 58.0804C114.615 58.0624 114.614 58.089 114.615 58.0708C114.616 58.0083 114.614 58.1131 114.615 58.0498C114.615 58.0367 114.615 58.0516 114.615 58.0383C114.615 58.0364 114.615 58.0344 114.615 58.0324C114.615 58.0304 114.615 58.0283 114.615 58.0262C114.616 58.0043 114.615 58.0357 114.616 58.0136C114.616 58.0056 114.616 58.0084 114.616 58.0002C114.616 57.998 114.616 57.9957 114.616 57.9934C114.616 57.991 114.616 57.9887 114.616 57.9863C114.617 57.954 114.616 58.0043 114.617 57.9718C114.617 57.9383 114.619 57.8797 114.62 57.8331C114.621 57.7717 114.619 57.8745 114.62 57.813C114.62 57.8095 114.62 57.8061 114.62 57.8027C114.621 57.7992 114.621 57.7957 114.621 57.7922C114.621 57.7887 114.621 57.7852 114.621 57.7816C114.621 57.7781 114.621 57.7745 114.621 57.7709C114.621 57.7672 114.621 57.7636 114.621 57.7599C114.621 57.7563 114.622 57.7526 114.622 57.7489C114.623 57.6997 114.623 57.7073 114.624 57.6548C114.624 57.6506 114.624 57.6465 114.624 57.6423C114.624 57.6381 114.624 57.6339 114.624 57.6297C114.624 57.6255 114.624 57.6212 114.625 57.6169C114.625 57.6126 114.625 57.6083 114.625 57.604C114.625 57.5997 114.625 57.5953 114.625 57.5909C114.625 57.5865 114.625 57.5821 114.625 57.5777C114.625 57.5732 114.626 57.5688 114.626 57.5643C114.626 57.5598 114.626 57.5553 114.626 57.5507C114.626 57.5462 114.626 57.5416 114.626 57.537C114.626 57.5325 114.626 57.5278 114.627 57.5232C114.627 57.5186 114.627 57.5139 114.627 57.5092C114.627 57.5045 114.627 57.4998 114.627 57.495C114.627 57.4903 114.627 57.4855 114.628 57.4807C114.628 57.4759 114.628 57.4711 114.628 57.4662C114.628 57.4614 114.628 57.4565 114.628 57.4516C114.628 57.4467 114.628 57.4418 114.629 57.4368C114.629 57.401 114.633 57.2283 114.634 57.1793C114.634 57.1735 114.634 57.1677 114.635 57.1619C114.635 57.156 114.635 57.1502 114.635 57.1443C114.635 57.1384 114.635 57.1325 114.635 57.1266C114.635 57.1206 114.636 57.1147 114.636 57.1087C114.636 57.1027 114.636 57.0967 114.636 57.0906C114.636 57.0846 114.636 57.0786 114.637 57.0725C114.637 57.0664 114.637 57.0603 114.637 57.0541C114.637 57.048 114.637 57.0418 114.637 57.0356C114.638 56.9922 114.64 56.9288 114.641 56.8821C114.641 56.8755 114.641 56.8688 114.641 56.8622C114.641 56.8555 114.641 56.8488 114.642 56.8421C114.642 56.8354 114.642 56.8287 114.642 56.8219C114.642 56.8152 114.642 56.8084 114.643 56.8016C114.643 56.7948 114.643 56.7879 114.643 56.7811C114.643 56.7742 114.643 56.7673 114.643 56.7604C114.644 56.7535 114.644 56.7466 114.644 56.7396C114.644 56.7326 114.644 56.7256 114.644 56.7186C114.645 56.7116 114.645 56.7046 114.645 56.6975C114.645 56.6904 114.645 56.6833 114.645 56.6762C114.645 56.6691 114.646 56.6619 114.646 56.6548C114.646 56.6476 114.646 56.6404 114.646 56.6332C114.646 56.626 114.647 56.6187 114.647 56.6114C114.647 56.6042 114.647 56.5969 114.647 56.5895C114.647 56.5822 114.648 56.5749 114.648 56.5675C114.648 56.5601 114.648 56.5527 114.648 56.5453C114.649 56.4884 114.655 56.2389 114.657 56.1688C114.657 56.1606 114.657 56.1523 114.657 56.144C114.657 56.1357 114.657 56.1273 114.658 56.119C114.658 56.1106 114.658 56.1022 114.658 56.0938C114.658 56.0854 114.659 56.077 114.659 56.0685C114.659 56.0601 114.659 56.0516 114.659 56.0431C114.659 56.0346 114.66 56.026 114.66 56.0174C114.66 56.0089 114.66 56.0003 114.66 55.9917C114.661 55.9831 114.661 55.9744 114.661 55.9657C114.662 55.9177 114.665 55.8041 114.666 55.7528C114.666 55.7437 114.666 55.7346 114.666 55.7254C114.666 55.7163 114.667 55.7072 114.667 55.698C114.667 55.6888 114.667 55.6796 114.668 55.6703C114.668 55.6611 114.668 55.6518 114.668 55.6426C114.669 55.5897 114.669 55.5835 114.671 55.5299C114.671 55.5204 114.671 55.5109 114.671 55.5013C114.671 55.4918 114.672 55.4822 114.672 55.4726C114.672 55.463 114.672 55.4534 114.673 55.4437C114.673 55.4341 114.673 55.4244 114.673 55.4147C114.673 55.405 114.674 55.3953 114.674 55.3855C114.674 55.3758 114.674 55.366 114.674 55.3562C114.675 55.3464 114.675 55.3366 114.675 55.3267C114.675 55.3169 114.676 55.307 114.676 55.2971C114.677 55.2421 114.68 55.1127 114.681 55.0544C114.681 55.0441 114.682 55.0337 114.682 55.0233C114.682 55.013 114.682 55.0026 114.682 54.9921C114.683 54.9817 114.683 54.9713 114.683 54.9608C114.683 54.9503 114.684 54.9398 114.684 54.9293C114.685 54.8922 114.686 54.8397 114.687 54.8018C114.687 54.791 114.687 54.7803 114.687 54.7695C114.688 54.7587 114.688 54.7479 114.688 54.7371C114.689 54.6948 114.689 54.7142 114.69 54.6717C114.69 54.6608 114.69 54.6498 114.69 54.6389C114.691 54.6279 114.691 54.6168 114.691 54.6058C114.691 54.5948 114.692 54.5837 114.692 54.5726C114.692 54.5615 114.692 54.5504 114.692 54.5392C114.693 54.4936 114.697 54.3158 114.699 54.2668C114.699 54.2553 114.699 54.2437 114.699 54.2321C114.7 54.2205 114.7 54.2088 114.7 54.1972C114.7 54.1855 114.701 54.1738 114.701 54.1621C114.701 54.1504 114.701 54.1387 114.702 54.1269C114.703 54.0854 114.704 54.0268 114.705 53.9845C114.705 53.9725 114.705 53.9605 114.706 53.9485C114.706 53.9365 114.706 53.9244 114.706 53.9124C114.707 53.8696 114.707 53.8826 114.708 53.8396C114.708 53.8274 114.708 53.8152 114.709 53.803C114.709 53.7908 114.709 53.7785 114.71 53.7663C114.71 53.754 114.71 53.7417 114.71 53.7293C114.711 53.717 114.711 53.7046 114.711 53.6923C114.712 53.6413 114.717 53.4443 114.718 53.3901C114.718 53.3773 114.718 53.3645 114.719 53.3517C114.719 53.3388 114.719 53.3259 114.72 53.313C114.72 53.3001 114.72 53.2872 114.72 53.2743C114.721 53.2613 114.721 53.2483 114.721 53.2353C114.722 53.1895 114.724 53.1247 114.725 53.0781C114.725 53.0649 114.725 53.0516 114.726 53.0384C114.726 53.0251 114.726 53.0118 114.727 52.9985C114.728 52.9513 114.727 52.9657 114.728 52.9183C114.729 52.9049 114.729 52.8915 114.729 52.878C114.729 52.8645 114.73 52.8511 114.73 52.8375C114.73 52.824 114.731 52.8105 114.731 52.7969C114.731 52.7833 114.732 52.7697 114.732 52.7561C114.733 52.7 114.738 52.4837 114.739 52.4243C114.74 52.4102 114.74 52.3962 114.74 52.3821C114.74 52.368 114.741 52.3539 114.741 52.3398C114.741 52.3256 114.742 52.3115 114.742 52.2973C114.742 52.2831 114.743 52.2689 114.743 52.2546C114.744 52.2146 114.746 52.1233 114.747 52.0825C114.747 52.0681 114.747 52.0536 114.748 52.0391C114.748 52.0246 114.748 52.0101 114.749 51.9955C114.749 51.981 114.749 51.9664 114.75 51.9518C114.75 51.9372 114.75 51.9226 114.751 51.9079C114.751 51.8932 114.751 51.8786 114.752 51.8639C114.752 51.8492 114.752 51.8344 114.753 51.8197C114.753 51.8049 114.753 51.7901 114.754 51.7753C114.754 51.7605 114.754 51.7457 114.755 51.7308C114.756 51.6693 114.761 51.434 114.762 51.3692C114.763 51.354 114.763 51.3387 114.764 51.3234C114.764 51.308 114.764 51.2927 114.765 51.2773C114.765 51.2619 114.765 51.2465 114.766 51.2311C114.766 51.2157 114.766 51.2002 114.767 51.1847C114.768 51.1412 114.77 51.0421 114.771 50.9978C114.771 50.9821 114.771 50.9664 114.772 50.9506C114.772 50.9349 114.772 50.9191 114.773 50.9033C114.774 50.853 114.774 50.8588 114.775 50.8083C114.775 50.7924 114.776 50.7765 114.776 50.7606C114.776 50.7446 114.777 50.7286 114.777 50.7126C114.777 50.6967 114.778 50.6806 114.778 50.6646C114.778 50.6485 114.779 50.6325 114.779 50.6164C114.781 50.5497 114.786 50.2951 114.788 50.2251C114.788 50.2086 114.788 50.192 114.789 50.1755C114.789 50.1589 114.79 50.1423 114.79 50.1257C114.79 50.1091 114.791 50.0925 114.791 50.0758C114.791 50.0591 114.792 50.0424 114.792 50.0257C114.794 49.9548 114.795 49.8956 114.797 49.8239C114.797 49.8069 114.797 49.79 114.798 49.773C114.798 49.7561 114.798 49.7391 114.799 49.722C114.8 49.6738 114.8 49.668 114.801 49.6196C114.802 49.6024 114.802 49.5853 114.802 49.5681C114.803 49.5509 114.803 49.5337 114.803 49.5165C114.804 49.4992 114.804 49.482 114.805 49.4647C114.805 49.4474 114.805 49.4301 114.806 49.4128C114.807 49.3392 114.809 49.2779 114.81 49.2035C114.811 49.186 114.811 49.1684 114.811 49.1508C114.812 49.1332 114.812 49.1156 114.813 49.0979C114.813 49.0803 114.813 49.0626 114.814 49.0449C114.814 49.0272 114.815 49.0095 114.815 48.9917C114.815 48.974 114.816 48.9562 114.816 48.9384C114.817 48.9206 114.817 48.9028 114.817 48.8849C114.818 48.8671 114.818 48.8492 114.819 48.8313C114.819 48.8134 114.819 48.7955 114.82 48.7775C114.821 48.7013 114.823 48.6379 114.825 48.5608C114.825 48.5427 114.825 48.5245 114.826 48.5063C114.826 48.4881 114.827 48.4698 114.827 48.4515C114.828 48.3999 114.828 48.3936 114.829 48.3416C114.83 48.3233 114.83 48.3049 114.831 48.2865C114.831 48.268 114.831 48.2496 114.832 48.2311C114.832 48.2127 114.833 48.1942 114.833 48.1756C114.833 48.1571 114.834 48.1386 114.834 48.12C114.836 48.0412 114.837 47.9755 114.839 47.8959C114.84 47.8771 114.84 47.8583 114.84 47.8394C114.841 47.8206 114.841 47.8018 114.842 47.7829C114.843 47.7294 114.843 47.7229 114.844 47.6693C114.845 47.6503 114.845 47.6313 114.845 47.6122C114.846 47.5932 114.846 47.5741 114.847 47.555C114.847 47.5359 114.848 47.5168 114.848 47.4977C114.848 47.4785 114.849 47.4594 114.849 47.4402C114.85 47.4136 114.854 47.2361 114.854 47.2086C114.855 47.1892 114.855 47.1698 114.856 47.1503C114.856 47.1309 114.857 47.1114 114.857 47.0919C114.858 47.0367 114.858 47.03 114.86 46.9746C114.86 46.955 114.86 46.9353 114.861 46.9157C114.861 46.896 114.862 46.8764 114.862 46.8566C114.863 46.8369 114.863 46.8172 114.863 46.7974C114.864 46.7777 114.864 46.7579 114.865 46.7381C114.865 46.7106 114.869 46.5274 114.87 46.4991C114.87 46.4791 114.871 46.459 114.871 46.439C114.872 46.4189 114.872 46.3988 114.873 46.3787C114.874 46.3217 114.874 46.3148 114.875 46.2576C114.876 46.2374 114.876 46.2171 114.877 46.1969C114.877 46.1766 114.878 46.1563 114.878 46.136C114.879 46.1156 114.879 46.0953 114.879 46.0749C114.88 46.0545 114.88 46.0341 114.881 46.0137C114.881 45.9854 114.886 45.7964 114.886 45.7673C114.887 45.7466 114.887 45.726 114.888 45.7053C114.888 45.6846 114.888 45.6639 114.889 45.6431C114.89 45.5844 114.89 45.5773 114.892 45.5184C114.892 45.4975 114.893 45.4767 114.893 45.4558C114.894 45.4349 114.894 45.4139 114.894 45.393C114.895 45.372 114.895 45.3511 114.896 45.3301C114.896 45.3091 114.897 45.288 114.897 45.267C114.898 45.2378 114.902 45.0432 114.903 45.0131C114.903 44.9919 114.904 44.9706 114.904 44.9493C114.905 44.928 114.905 44.9067 114.906 44.8853C114.907 44.8248 114.907 44.8175 114.909 44.7568C114.909 44.7354 114.909 44.7139 114.91 44.6924C114.91 44.6708 114.911 44.6493 114.911 44.6277C114.912 44.6062 114.912 44.5846 114.913 44.563C114.913 44.5413 114.914 44.5197 114.914 44.498C114.915 44.4679 114.919 44.2677 114.92 44.2367C114.92 44.2149 114.921 44.193 114.921 44.171C114.922 44.1491 114.922 44.1272 114.923 44.1052C114.924 44.043 114.924 44.0354 114.926 43.973C114.926 43.9509 114.927 43.9288 114.927 43.9067C114.928 43.8845 114.928 43.8624 114.929 43.8402C114.929 43.818 114.93 43.7958 114.93 43.7736C114.931 43.7513 114.931 43.7291 114.932 43.7068C114.932 43.6758 114.937 43.4698 114.938 43.4381C114.938 43.4156 114.939 43.393 114.939 43.3705C114.94 43.3479 114.94 43.3254 114.941 43.3028C114.942 43.2388 114.942 43.231 114.944 43.1669C114.944 43.1442 114.945 43.1214 114.945 43.0987C114.946 43.0759 114.946 43.0532 114.947 43.0304C114.947 43.0075 114.948 42.9847 114.948 42.9619C114.949 42.939 114.949 42.9161 114.95 42.8932C114.95 42.8614 114.955 42.6497 114.956 42.6171C114.956 42.594 114.957 42.5708 114.957 42.5477C114.958 42.5245 114.958 42.5013 114.959 42.4781C114.96 42.4124 114.96 42.4044 114.962 42.3385C114.962 42.3151 114.963 42.2918 114.963 42.2684C114.964 42.245 114.964 42.2217 114.965 42.1982C114.966 42.1748 114.966 42.1514 114.967 42.1279C114.967 42.1044 114.968 42.0809 114.968 42.0574C114.969 42.0246 114.974 41.8074 114.974 41.7738C114.975 41.7501 114.975 41.7263 114.976 41.7025C114.976 41.6787 114.977 41.6549 114.978 41.6311C114.979 41.5636 114.979 41.5554 114.981 41.4878C114.981 41.4638 114.982 41.4399 114.982 41.4159C114.983 41.3919 114.983 41.3679 114.984 41.3438C114.984 41.3198 114.985 41.2957 114.985 41.2716C114.986 41.2475 114.987 41.2234 114.987 41.1992C114.988 41.1657 114.993 40.9427 114.993 40.9082C114.994 40.8839 114.995 40.8595 114.995 40.8351C114.996 40.8107 114.996 40.7863 114.997 40.7618C114.998 40.71 114.999 40.6668 115 40.6148C115.001 40.5902 115.001 40.5656 115.002 40.541C115.002 40.5164 115.003 40.4918 115.003 40.4671C115.004 40.4424 115.004 40.4178 115.005 40.393C115.005 40.3683 115.006 40.3436 115.007 40.3188C115.007 40.2844 115.012 40.0557 115.013 40.0204C115.014 39.9954 115.014 39.9704 115.015 39.9454C115.015 39.9204 115.016 39.8953 115.016 39.8703C115.018 39.8171 115.019 39.7729 115.02 39.7195C115.02 39.6943 115.021 39.6691 115.021 39.6439C115.022 39.6187 115.023 39.5934 115.023 39.5681C115.024 39.5428 115.024 39.5175 115.025 39.4922C115.025 39.4669 115.026 39.4415 115.026 39.4161C115.027 39.3808 115.032 39.1464 115.033 39.1103C115.034 39.0847 115.034 39.0591 115.035 39.0334C115.035 39.0078 115.036 38.9821 115.037 38.9564C115.038 38.9019 115.039 38.8566 115.04 38.8019C115.041 38.7761 115.041 38.7503 115.042 38.7245C115.042 38.6986 115.043 38.6727 115.043 38.6468C115.044 38.6209 115.045 38.595 115.045 38.5691C115.046 38.5431 115.046 38.5171 115.047 38.4911C115.048 38.4549 115.053 38.2149 115.054 38.1778C115.054 38.1516 115.055 38.1254 115.056 38.0991C115.056 38.0729 115.057 38.0466 115.057 38.0203C115.058 37.9645 115.06 37.9181 115.061 37.8621L114.061 37.84L113.061 37.8179C113.061 37.8443 113.06 37.8707 113.059 37.8971C113.059 37.9235 113.058 37.9498 113.058 37.9761C113.057 38.0134 113.055 38.0966 113.054 38.1337C113.054 38.1599 113.053 38.1861 113.053 38.2122C113.052 38.2384 113.051 38.2645 113.051 38.2906C113.05 38.3167 113.05 38.3428 113.049 38.3689C113.049 38.3949 113.048 38.421 113.047 38.447C113.047 38.4843 113.041 38.7213 113.04 38.7578C113.04 38.7836 113.039 38.8093 113.039 38.8351C113.038 38.8608 113.038 38.8866 113.037 38.9123C113.036 38.9486 113.034 39.0299 113.034 39.0661C113.033 39.0917 113.033 39.1173 113.032 39.1428C113.031 39.1683 113.031 39.1939 113.03 39.2193C113.03 39.2448 113.029 39.2703 113.029 39.2957C113.028 39.3212 113.027 39.3466 113.027 39.372C113.026 39.4084 113.021 39.6398 113.02 39.6753C113.02 39.7005 113.019 39.7257 113.019 39.7508C113.018 39.7759 113.017 39.801 113.017 39.8261C113.016 39.8616 113.014 39.9409 113.014 39.9762C113.013 40.0012 113.012 40.0262 113.012 40.0511C113.011 40.076 113.011 40.1009 113.01 40.1258C113.01 40.1506 113.009 40.1755 113.009 40.2003C113.008 40.2251 113.008 40.2499 113.007 40.2747C113.006 40.3102 113.001 40.5359 113 40.5706C113 40.5952 112.999 40.6197 112.999 40.6442C112.998 40.6687 112.998 40.6932 112.997 40.7177C112.996 40.7523 112.995 40.8297 112.994 40.8641C112.993 40.8884 112.993 40.9128 112.992 40.9371C112.992 40.9614 112.991 40.9857 112.991 41.0099C112.99 41.0342 112.99 41.0584 112.989 41.0826C112.989 41.1068 112.988 41.1309 112.988 41.1551C112.987 41.1897 112.982 41.4098 112.981 41.4436C112.981 41.4675 112.98 41.4915 112.98 41.5154C112.979 41.5392 112.979 41.5631 112.978 41.5869C112.977 41.6108 112.977 41.6346 112.976 41.6584C112.976 41.6822 112.975 41.7059 112.975 41.7297C112.974 41.7534 112.974 41.7771 112.973 41.8008C112.973 41.8245 112.972 41.8481 112.972 41.8717C112.971 41.8954 112.971 41.919 112.97 41.9426C112.97 41.9661 112.969 41.9897 112.969 42.0132C112.968 42.047 112.963 42.2614 112.962 42.2943C112.962 42.3176 112.961 42.3409 112.961 42.3642C112.96 42.3875 112.96 42.4107 112.959 42.4339C112.959 42.4668 112.957 42.5402 112.956 42.5729C112.956 42.596 112.955 42.6191 112.955 42.6422C112.954 42.6653 112.954 42.6883 112.953 42.7113C112.953 42.7343 112.952 42.7573 112.952 42.7803C112.951 42.8032 112.951 42.8262 112.95 42.8491C112.949 42.882 112.945 43.0906 112.944 43.1227C112.944 43.1454 112.943 43.1681 112.943 43.1907C112.942 43.2134 112.942 43.236 112.941 43.2586C112.94 43.2906 112.939 43.3621 112.938 43.3939C112.938 43.4164 112.937 43.4389 112.937 43.4613C112.936 43.4838 112.936 43.5062 112.935 43.5286C112.935 43.551 112.934 43.5733 112.934 43.5957C112.933 43.618 112.933 43.6403 112.932 43.6626C112.931 43.6946 112.927 43.8976 112.926 43.9288C112.926 43.9509 112.925 43.973 112.925 43.995C112.924 44.017 112.924 44.039 112.923 44.061C112.923 44.0922 112.921 44.1617 112.92 44.1926C112.92 44.2145 112.92 44.2363 112.919 44.2581C112.919 44.28 112.918 44.3018 112.918 44.3235C112.917 44.3453 112.917 44.3671 112.916 44.3888C112.916 44.4105 112.915 44.4322 112.915 44.4539C112.914 44.485 112.91 44.6824 112.909 44.7127C112.909 44.7341 112.908 44.7556 112.908 44.777C112.907 44.7984 112.907 44.8198 112.906 44.8411C112.905 44.8714 112.904 44.939 112.903 44.969C112.903 44.9903 112.902 45.0115 112.902 45.0327C112.901 45.0539 112.901 45.0751 112.901 45.0962C112.9 45.1174 112.9 45.1385 112.899 45.1596C112.899 45.1807 112.898 45.2018 112.898 45.2228C112.897 45.2531 112.893 45.4448 112.892 45.4742C112.892 45.4951 112.891 45.5159 112.891 45.5367C112.89 45.5575 112.89 45.5782 112.889 45.599C112.889 45.6283 112.887 45.6939 112.887 45.7231C112.886 45.7437 112.886 45.7644 112.885 45.7849C112.885 45.8055 112.884 45.8261 112.884 45.8466C112.884 45.8672 112.883 45.8877 112.883 45.9082C112.882 45.9286 112.882 45.9491 112.881 45.9695C112.881 45.9989 112.876 46.1849 112.876 46.2135C112.875 46.2337 112.875 46.2539 112.875 46.2741C112.874 46.2942 112.874 46.3144 112.873 46.3345C112.873 46.363 112.871 46.4266 112.871 46.4549C112.87 46.475 112.87 46.4949 112.869 46.5149C112.869 46.5349 112.868 46.5548 112.868 46.5747C112.867 46.5947 112.867 46.6145 112.867 46.6344C112.866 46.6543 112.866 46.6741 112.865 46.6939C112.865 46.7225 112.861 46.9027 112.86 46.9304C112.86 46.95 112.859 46.9696 112.859 46.9892C112.858 47.0087 112.858 47.0283 112.857 47.0478C112.857 47.0754 112.855 47.137 112.855 47.1645C112.854 47.1839 112.854 47.2032 112.854 47.2226C112.853 47.2419 112.853 47.2613 112.852 47.2806C112.852 47.2999 112.851 47.3191 112.851 47.3384C112.851 47.3576 112.85 47.3768 112.85 47.396C112.849 47.4237 112.845 47.5983 112.845 47.6251C112.844 47.6441 112.844 47.6631 112.843 47.682C112.843 47.7009 112.843 47.7198 112.842 47.7387C112.842 47.7655 112.84 47.8252 112.84 47.8517C112.839 47.8705 112.839 47.8893 112.838 47.908C112.838 47.9267 112.838 47.9454 112.837 47.9641C112.837 47.9828 112.836 48.0014 112.836 48.02C112.836 48.0387 112.835 48.0573 112.835 48.0758C112.834 48.1026 112.83 48.2715 112.83 48.2975C112.83 48.3044 112.825 48.5106 112.825 48.5167C112.825 48.5348 112.824 48.553 112.824 48.5711C112.823 48.5892 112.823 48.6073 112.823 48.6253C112.822 48.6434 112.822 48.6614 112.821 48.6794C112.821 48.6974 112.821 48.7154 112.82 48.7334C112.82 48.7593 112.816 48.9225 112.815 48.9476C112.815 48.9653 112.815 48.9831 112.814 49.0008C112.814 49.0185 112.814 49.0361 112.813 49.0538C112.813 49.0714 112.812 49.089 112.812 49.1066C112.812 49.1242 112.811 49.1418 112.811 49.1593C112.81 49.1769 112.81 49.1944 112.81 49.2119C112.809 49.2294 112.809 49.2468 112.808 49.2643C112.808 49.2817 112.808 49.2991 112.807 49.3165C112.807 49.3339 112.807 49.3513 112.806 49.3686C112.806 49.3936 112.802 49.5512 112.802 49.5754C112.801 49.5925 112.801 49.6096 112.8 49.6267C112.8 49.6438 112.8 49.6608 112.799 49.6779C112.799 49.6949 112.799 49.7119 112.798 49.7289C112.798 49.7458 112.797 49.7628 112.797 49.7797C112.797 49.7966 112.796 49.8135 112.796 49.8304C112.796 49.8473 112.795 49.8641 112.795 49.8809C112.794 49.8978 112.794 49.9146 112.794 49.9313C112.793 49.9481 112.793 49.9648 112.793 49.9816C112.792 50.0174 112.789 50.1459 112.788 50.1809C112.788 50.1842 112.784 50.3753 112.784 50.3778C112.784 50.3941 112.783 50.4104 112.783 50.4266C112.782 50.4429 112.782 50.4591 112.782 50.4753C112.781 50.4915 112.781 50.5077 112.781 50.5238C112.78 50.54 112.78 50.5561 112.78 50.5722C112.779 50.6067 112.776 50.7305 112.775 50.7642C112.775 50.7674 112.771 50.9512 112.771 50.9536C112.771 50.9693 112.77 50.985 112.77 51.0006C112.77 51.0162 112.769 51.0318 112.769 51.0474C112.769 51.063 112.768 51.0785 112.768 51.0941C112.768 51.1096 112.767 51.1251 112.767 51.1406C112.766 51.1738 112.764 51.2927 112.763 51.3251C112.763 51.3404 112.762 51.3556 112.762 51.3708C112.762 51.3861 112.761 51.4012 112.761 51.4164C112.761 51.4316 112.76 51.4467 112.76 51.4618C112.76 51.477 112.759 51.4921 112.759 51.5071C112.759 51.5222 112.758 51.5372 112.758 51.5522C112.758 51.5673 112.757 51.5822 112.757 51.5972C112.757 51.6122 112.756 51.6271 112.756 51.642C112.756 51.6569 112.755 51.6718 112.755 51.6867C112.754 51.7308 112.748 51.9975 112.747 52.0383C112.747 52.0528 112.747 52.0672 112.746 52.0816C112.746 52.096 112.746 52.1104 112.745 52.1247C112.745 52.1391 112.745 52.1534 112.744 52.1677C112.744 52.182 112.744 52.1962 112.743 52.2105C112.743 52.241 112.74 52.3504 112.74 52.3801C112.739 52.3941 112.739 52.4082 112.739 52.4221C112.738 52.4361 112.738 52.4501 112.738 52.464C112.738 52.4779 112.737 52.4918 112.737 52.5057C112.737 52.5196 112.736 52.5335 112.736 52.5473C112.736 52.5611 112.735 52.5749 112.735 52.5887C112.735 52.6025 112.734 52.6162 112.734 52.6299C112.734 52.6437 112.734 52.6574 112.733 52.671C112.733 52.6847 112.733 52.6983 112.732 52.712C112.731 52.7526 112.726 52.9966 112.725 53.0339C112.725 53.0471 112.725 53.0603 112.724 53.0735C112.724 53.0866 112.724 53.0998 112.724 53.1129C112.723 53.126 112.723 53.139 112.723 53.1521C112.722 53.1652 112.722 53.1782 112.722 53.1912C112.721 53.2282 112.719 53.3098 112.718 53.346C112.718 53.3486 112.715 53.4964 112.715 53.4983C112.715 53.5109 112.714 53.5234 112.714 53.536C112.714 53.5485 112.714 53.561 112.713 53.5735C112.713 53.586 112.713 53.5985 112.713 53.6109C112.712 53.6233 112.712 53.6357 112.712 53.6481C112.711 53.6853 112.706 53.9065 112.705 53.9403C112.705 53.9523 112.705 53.9643 112.704 53.9762C112.704 53.9881 112.704 54 112.704 54.0119C112.703 54.0237 112.703 54.0356 112.703 54.0474C112.703 54.0592 112.702 54.071 112.702 54.0827C112.701 54.1162 112.7 54.19 112.699 54.2227C112.699 54.2342 112.698 54.2458 112.698 54.2573C112.698 54.2688 112.698 54.2803 112.697 54.2917C112.697 54.3032 112.697 54.3146 112.697 54.326C112.696 54.3374 112.696 54.3488 112.696 54.3601C112.696 54.3715 112.695 54.3828 112.695 54.3941C112.695 54.4054 112.695 54.4167 112.694 54.4279C112.694 54.4392 112.694 54.4504 112.694 54.4616C112.693 54.4728 112.693 54.484 112.693 54.4951C112.692 54.5287 112.688 54.7273 112.687 54.7576C112.687 54.7683 112.687 54.779 112.686 54.7897C112.686 54.8004 112.686 54.8111 112.686 54.8217C112.686 54.8323 112.685 54.8429 112.685 54.8535C112.685 54.8641 112.685 54.8746 112.684 54.8852C112.683 54.9297 112.683 54.9665 112.682 55.0102C112.681 55.0205 112.681 55.0308 112.681 55.0411C112.681 55.0514 112.68 55.0616 112.68 55.0718C112.68 55.082 112.68 55.0922 112.68 55.1024C112.679 55.1126 112.679 55.1227 112.679 55.1328C112.679 55.1338 112.678 55.1924 112.678 55.1932C112.677 55.2032 112.677 55.2132 112.677 55.2231C112.677 55.2331 112.676 55.243 112.676 55.2529C112.675 55.2965 112.672 55.4455 112.671 55.4857C112.671 55.4907 112.666 55.7069 112.666 55.7086C112.666 55.7177 112.666 55.7267 112.666 55.7358C112.665 55.7448 112.665 55.7538 112.665 55.7628C112.665 55.7718 112.665 55.7807 112.664 55.7896C112.664 55.7986 112.664 55.8075 112.664 55.8163C112.664 55.8172 112.663 55.8686 112.663 55.8693C112.661 55.9631 112.664 55.8279 112.661 55.9216C112.661 55.9599 112.658 56.0897 112.657 56.1247C112.657 56.1292 112.653 56.3166 112.653 56.3178C112.653 56.3257 112.652 56.3335 112.652 56.3413C112.652 56.3491 112.652 56.3569 112.652 56.3646C112.652 56.3723 112.651 56.38 112.651 56.3877C112.651 56.3954 112.651 56.4031 112.651 56.4107C112.651 56.4122 112.65 56.455 112.65 56.4562C112.648 56.5315 112.65 56.426 112.649 56.5011C112.648 56.5517 112.642 56.8006 112.641 56.8379C112.641 56.8445 112.641 56.8511 112.641 56.8577C112.641 56.8642 112.641 56.8707 112.64 56.8772C112.64 56.8837 112.64 56.8902 112.64 56.8967C112.64 56.9031 112.64 56.9095 112.64 56.9159C112.64 56.9166 112.639 56.9536 112.639 56.954C112.639 56.9603 112.638 56.9666 112.638 56.9728C112.638 56.9791 112.638 56.9853 112.638 56.9915C112.637 57.0274 112.635 57.1024 112.635 57.1351C112.635 57.1362 112.634 57.1686 112.634 57.1695C112.634 57.1751 112.634 57.1808 112.634 57.1864C112.633 57.192 112.633 57.1976 112.633 57.2032C112.633 57.2088 112.633 57.2143 112.633 57.2199C112.633 57.2254 112.633 57.2309 112.632 57.2363C112.632 57.2418 112.632 57.2473 112.632 57.2527C112.632 57.2581 112.632 57.2635 112.632 57.2688C112.632 57.2742 112.631 57.2796 112.631 57.2849C112.631 57.2902 112.631 57.2955 112.631 57.3007C112.631 57.3052 112.63 57.3277 112.63 57.332C112.63 57.3372 112.63 57.3423 112.63 57.3474C112.63 57.3525 112.63 57.3576 112.63 57.3626C112.628 57.4375 112.631 57.318 112.629 57.3927C112.627 57.4828 112.621 57.7516 112.62 57.7889C112.62 57.7922 112.62 57.7955 112.62 57.7988C112.62 57.802 112.62 57.8052 112.62 57.8084C112.62 57.8116 112.62 57.8148 112.62 57.8179C112.62 57.8211 112.619 57.8242 112.619 57.8273C112.619 57.8459 112.619 57.8272 112.619 57.8456C112.619 57.8486 112.619 57.8515 112.619 57.8545C112.619 57.8574 112.619 57.8603 112.619 57.8632C112.618 57.8876 112.619 57.856 112.618 57.8802C112.618 57.883 112.618 57.8858 112.618 57.8885C112.618 57.8913 112.618 57.894 112.618 57.8967C112.618 57.8975 112.618 57.9118 112.618 57.9124C112.617 57.9288 112.618 57.9115 112.617 57.9276C112.617 57.9354 112.617 57.9491 112.617 57.9561C112.616 57.9657 112.616 57.96 112.616 57.9694C112.616 57.9796 112.616 57.9721 112.616 57.9821C112.616 57.9868 112.615 58.0252 112.615 58.0267C112.614 58.0868 112.615 58.0045 112.614 58.0613C112.614 58.0791 112.614 58.0717 112.614 58.0861C112.614 58.0926 112.614 58.0891 112.613 58.0948C112.613 58.1006 112.614 58.0926 112.613 58.0982C112.613 58.0987 112.613 58.0992 112.613 58.0997C112.613 58.1001 112.613 58.1006 112.613 58.101C112.613 58.1043 112.613 58.1 112.613 58.1031C112.613 58.1049 112.613 58.1031 112.613 58.1047C112.613 58.1049 112.613 58.1051 112.613 58.1052C112.613 58.1054 112.613 58.1055 112.613 58.1056C112.613 58.1057 112.613 58.1058 112.613 58.1058C112.613 58.1059 112.613 58.1059 113.613 58.128ZM114.061 37.84H115.061C115.061 35.1359 114.981 32.8942 114.817 31.1238C114.655 29.3798 114.406 28.0036 114.024 27.0874L113.101 27.472L112.178 27.8566C112.436 28.4764 112.667 29.5962 112.825 31.3082C112.981 32.9937 113.061 35.1681 113.061 37.84H114.061ZM113.101 27.472L113.941 26.9301L110.805 22.0661L109.965 22.608L109.125 23.1499L112.261 28.0139L113.101 27.472ZM109.965 22.608L110.946 22.8041L111.138 21.8441L110.157 21.648L109.176 21.4519L108.984 22.4119L109.965 22.608ZM110.157 21.648L110.377 22.6235C113.298 21.9653 117.562 21.624 123.213 21.624V20.624V19.624C117.514 19.624 113.075 19.9653 109.937 20.6725L110.157 21.648ZM123.213 20.624L122.377 21.172C122.677 21.6304 122.949 22.3659 123.14 23.4533C123.329 24.5292 123.429 25.8857 123.429 27.536H124.429H125.429C125.429 25.8156 125.326 24.3348 125.11 23.1067C124.896 21.8901 124.56 20.855 124.049 20.076L123.213 20.624ZM124.429 27.536H123.429C123.429 30.8276 123.218 35.3005 122.792 40.965L123.789 41.04L124.786 41.115C125.214 35.4302 125.429 30.9004 125.429 27.536H124.429ZM123.789 41.04L122.792 40.9645C122.365 46.6045 122.149 50.9861 122.149 54.096H123.149H124.149C124.149 51.0619 124.36 46.7395 124.786 41.1155L123.789 41.04ZM123.149 54.096H122.149C122.149 55.679 122.331 57.0093 122.789 57.979C123.024 58.477 123.35 58.9176 123.796 59.233C124.252 59.5548 124.775 59.704 125.325 59.704V58.704V57.704C125.149 57.704 125.038 57.6612 124.95 57.599C124.852 57.5304 124.725 57.395 124.597 57.125C124.33 56.5587 124.149 55.585 124.149 54.096H123.149ZM125.325 58.704V59.704C125.997 59.704 126.695 59.4431 127.376 59.0676C128.073 58.6833 128.843 58.127 129.681 57.4209L129.037 56.656L128.393 55.8911C127.61 56.5503 126.951 57.0181 126.41 57.3164C125.853 57.6236 125.506 57.704 125.325 57.704V58.704ZM129.037 56.656L129.693 57.411C131.369 55.9551 132.811 54.3822 134.012 52.6912L133.197 52.112L132.382 51.5328C131.279 53.0845 129.947 54.5409 128.381 55.901L129.037 56.656ZM133.197 52.112L134.192 52.2089C135.13 42.5728 135.605 36.0188 135.605 32.592H134.605H133.605C133.605 35.9065 133.141 42.3659 132.202 52.0151L133.197 52.112ZM134.605 32.592H135.605C135.605 29.1277 135.122 25.8868 134.148 22.8762L133.197 23.184L132.246 23.4918C133.149 26.2838 133.605 29.3149 133.605 32.592H134.605ZM133.197 23.184L133.651 24.075C135.745 23.0085 139.306 22.1483 144.448 21.5534L144.333 20.56L144.218 19.5666C139.035 20.1664 135.172 21.0555 132.743 22.293L133.197 23.184ZM144.333 20.56L143.377 20.8522C143.803 22.2481 144.037 24.3085 144.037 27.088H145.037H146.037C146.037 24.2355 145.802 21.9439 145.289 20.2678L144.333 20.56ZM145.037 27.088H144.037C144.037 29.7892 143.598 34.5733 142.701 41.4874L143.693 41.616L144.685 41.7446C145.58 34.8347 146.037 29.9335 146.037 27.088H145.037ZM143.693 41.616L142.701 41.4935C141.849 48.394 141.413 53.0425 141.413 55.376H142.413H143.413C143.413 53.1868 143.831 48.662 144.685 41.7385L143.693 41.616ZM142.413 55.376H141.413C141.413 56.5487 141.576 57.591 142.027 58.3717C142.525 59.2357 143.335 59.704 144.333 59.704V58.704V57.704C144.051 57.704 143.901 57.6176 143.759 57.3723C143.57 57.0437 143.413 56.4219 143.413 55.376H142.413ZM144.333 58.704V59.704C145.292 59.704 146.269 59.264 147.226 58.5957C148.198 57.9162 149.253 56.9269 150.39 55.6595L149.645 54.992L148.9 54.3245C147.818 55.5317 146.879 56.3984 146.08 56.9563C145.266 57.5253 144.697 57.704 144.333 57.704V58.704ZM149.645 54.992L150.39 55.6595C152.68 53.1051 154.754 49.9545 156.619 46.2232L155.725 45.776L154.831 45.3288C153.027 48.9362 151.048 51.9296 148.9 54.3245L149.645 54.992ZM155.725 45.776L156.617 46.2273C158.533 42.4398 159.633 38.9591 159.858 35.7992L158.861 35.728L157.864 35.6568C157.663 38.4702 156.672 41.6882 154.833 45.3247L155.725 45.776ZM158.861 35.728L159.366 34.8648L152.582 30.8968L152.077 31.76L151.572 32.6232L158.356 36.5912L158.861 35.728ZM152.077 31.76L153.07 31.8759C153.359 29.4 153.932 27.3173 154.768 25.6068L153.869 25.168L152.97 24.7292C152.014 26.688 151.392 29 151.084 31.6441L152.077 31.76ZM153.869 25.168L154.763 25.6152C155.695 23.7516 156.466 22.6942 157.043 22.2453L156.429 21.456L155.815 20.6666C154.856 21.4125 153.92 22.8298 152.975 24.7208L153.869 25.168ZM156.429 21.456L157.043 22.2453L158.195 21.3493L157.581 20.56L156.967 19.7706L155.815 20.6666L156.429 21.456ZM157.581 20.56V21.56C160.013 21.56 161.706 22.1952 162.826 23.3151L163.533 22.608L164.24 21.9009C162.629 20.2901 160.354 19.56 157.581 19.56V20.56ZM163.533 22.608L162.848 23.3368C164.067 24.4817 164.645 25.8014 164.645 27.344H165.645H166.645C166.645 25.2173 165.815 23.3796 164.218 21.8791L163.533 22.608ZM165.645 27.344H164.645C164.645 30.6389 163.809 34.5461 162.086 39.0851L163.021 39.44L163.956 39.7949C165.731 35.1179 166.645 30.9611 166.645 27.344H165.645ZM163.021 39.44L162.083 39.0927C160.401 43.6361 158.299 47.8812 155.778 51.83L156.621 52.368L157.464 52.906C160.063 48.8334 162.228 44.4599 163.959 39.7873L163.021 39.44ZM156.621 52.368L155.774 51.8364C153.304 55.772 150.486 59.1079 147.325 61.853L147.981 62.608L148.637 63.363C151.961 60.4761 154.904 56.9853 157.468 52.8996L156.621 52.368ZM147.981 62.608L147.331 61.848C144.173 64.5493 141.411 65.768 139.021 65.768V66.768V67.768C142.092 67.768 145.304 66.2134 148.631 63.368L147.981 62.608ZM139.021 66.768V65.768C137.765 65.768 136.576 65.19 135.437 63.8238L134.669 64.464L133.901 65.1042C135.322 66.81 137.035 67.768 139.021 67.768V66.768ZM134.669 64.464L135.448 63.8367C134.377 62.5079 133.788 60.7738 133.749 58.5581L132.749 58.576L131.749 58.5939C131.795 61.1569 132.486 63.3481 133.89 65.0913L134.669 64.464ZM132.749 58.576L131.943 57.9846C130.115 60.4765 128.207 62.3963 126.227 63.7704L126.797 64.592L127.367 65.4136C129.568 63.8864 131.628 61.7955 133.555 59.1674L132.749 58.576ZM126.797 64.592L126.227 63.7704C124.25 65.1422 122.44 65.768 120.781 65.768V66.768V67.768C122.962 67.768 125.163 66.9431 127.367 65.4136L126.797 64.592ZM120.781 66.768V65.768C119.175 65.768 117.747 65.1226 116.461 63.7234L115.725 64.4L114.989 65.0766C116.604 66.8347 118.547 67.768 120.781 67.768V66.768ZM115.725 64.4L116.48 63.7443C115.259 62.3385 114.613 60.4957 114.613 58.128H113.613H112.613C112.613 60.8803 113.375 63.2188 114.97 65.0557L115.725 64.4Z" fill="#FFEEBC" mask="url(#path-1-outside-1_944_1161)"/>
<path d="M96.5 2.5C122.884 2.5 146.651 7.21535 163.729 14.7363C172.27 18.4982 179.027 22.9128 183.613 27.6885C188.188 32.452 190.5 37.4533 190.5 42.5C190.5 47.5467 188.188 52.548 183.613 57.3115C179.027 62.0872 172.27 66.5018 163.729 70.2637C146.651 77.7847 122.884 82.5 96.5 82.5C70.1156 82.5 46.3485 77.7847 29.2715 70.2637C20.7298 66.5018 13.9733 62.0872 9.38672 57.3115C4.81198 52.548 2.5 47.5467 2.5 42.5C2.5 37.4533 4.81198 32.452 9.38672 27.6885C13.9733 22.9128 20.7298 18.4982 29.2715 14.7363C46.3485 7.21535 70.1156 2.5 96.5 2.5Z" stroke="#FFEEBC" stroke-width="5"/>
</svg>
