<svg width="76" height="76" viewBox="0 0 76 76" fill="none" xmlns="http://www.w3.org/2000/svg">
<path d="M8.77859 54.0845L22.3358 68.116M8.77859 54.0845L48.0943 14.7062M8.77859 54.0845L4.61895 66.3055M22.3358 68.116C32.9491 57.5824 50.4718 40.0789 61.9834 28.285M22.3358 68.116L10.1343 71.6464M48.0943 14.7062L61.9834 28.285M48.0943 14.7062L53.2913 9.50096M61.9834 28.285C63.8585 26.3638 65.5742 24.5942 67.0745 23.0308M53.2913 9.50096L58.4883 4.2957C59.9946 2.78695 63.8207 0.493645 67.0745 3.39045C70.3282 6.28725 72.648 8.82204 73.4012 9.72734C73.8531 10.9343 74.4857 13.8915 73.4012 16.0641C73.1244 16.6184 70.7433 19.2078 67.0745 23.0308M53.2913 9.50096L67.0745 23.0308M4.61895 66.3055L2 74L10.1343 71.6464M4.61895 66.3055L10.1343 71.6464" stroke="#777777" stroke-width="4" stroke-linecap="round" stroke-linejoin="round"/>
</svg>
